<?xml version="1.0" encoding="UTF-8"?>
<svg xmlns="http://www.w3.org/2000/svg" xmlns:xlink="http://www.w3.org/1999/xlink" width="24pt" height="24pt" viewBox="0 0 24 24" version="1.1">
<g id="surface7454360">
<path style=" stroke:none;fill-rule:nonzero;fill:rgb(100%,100%,100%);fill-opacity:1;" d="M 6.5 22 L 5 22 C 3.894531 22 3 21.105469 3 20 L 3 11.5 C 3 10.394531 3.894531 9.5 5 9.5 L 8.5 9.5 L 8.5 20 C 8.5 21.105469 7.605469 22 6.5 22 Z M 20.332031 10.785156 C 19.855469 10.28125 19.195312 10 18.472656 10 L 14.75 10 C 14.75 10 15.296875 7.8125 15.484375 7.078125 C 15.765625 5.96875 15.824219 5.03125 15.660156 4.136719 C 15.578125 3.671875 15.425781 3.070312 15.015625 2.535156 C 14.722656 2.15625 14.355469 1.910156 13.925781 1.800781 C 13.285156 1.640625 12.902344 1.847656 12.671875 2.488281 C 12.652344 2.539062 11.847656 5.371094 11.847656 5.371094 C 11.785156 5.59375 11.726562 5.773438 11.632812 5.914062 C 11.039062 6.84375 10.320312 7.742188 9.5 8.660156 L 9.5 20.738281 C 11.730469 21.375 15.082031 21.960938 15.3125 21.980469 C 15.441406 21.992188 15.570312 22 15.699219 22 C 17.503906 22 19.089844 20.785156 19.554688 18.992188 C 19.972656 17.371094 20.835938 13.5 20.835938 13.5 C 20.90625 13.246094 20.984375 12.953125 21 12.640625 C 21.039062 11.9375 20.800781 11.28125 20.332031 10.785156 Z M 20.332031 10.785156 "/>
</g>
</svg>
