<?xml version="1.0" encoding="UTF-8"?>
<svg xmlns="http://www.w3.org/2000/svg" xmlns:xlink="http://www.w3.org/1999/xlink" width="24pt" height="24pt" viewBox="0 0 24 24" version="1.1">
<g id="surface7454469">
<path style=" stroke:none;fill-rule:nonzero;fill:rgb(100%,100%,100%);fill-opacity:1;" d="M 13.445312 1.511719 C 13.21875 1.523438 12.996094 1.578125 12.789062 1.691406 C 12.371094 1.917969 12.117188 2.320312 11.96875 2.742188 C 11.964844 2.742188 11.964844 2.742188 11.964844 2.742188 C 11.929688 2.847656 11.949219 2.800781 11.941406 2.824219 C 11.933594 2.851562 11.921875 2.882812 11.910156 2.925781 C 11.886719 3.007812 11.855469 3.125 11.816406 3.261719 C 11.738281 3.535156 11.636719 3.894531 11.53125 4.25 C 11.328125 4.964844 11.128906 5.671875 11.128906 5.671875 C 11.128906 5.671875 11.128906 5.675781 11.128906 5.675781 C 11.070312 5.878906 11.023438 5.984375 11.003906 6.015625 C 11.003906 6.015625 11.003906 6.019531 11 6.019531 C 10.265625 7.167969 9.46875 8.328125 8.695312 9.5 L 5.25 9.5 C 4.015625 9.5 3 10.515625 3 11.75 L 3 19.75 C 3 20.984375 4.015625 22 5.25 22 L 7.25 22 C 7.878906 22 8.445312 21.734375 8.855469 21.3125 C 10.011719 21.558594 11.296875 21.835938 12.347656 22.058594 C 12.898438 22.175781 13.378906 22.273438 13.746094 22.347656 C 14.109375 22.421875 14.246094 22.460938 14.484375 22.484375 C 14.636719 22.5 14.792969 22.507812 14.941406 22.507812 C 17.082031 22.507812 18.976562 21.050781 19.523438 18.933594 C 19.941406 17.316406 20.800781 13.960938 20.804688 13.945312 C 20.875 13.6875 20.972656 13.34375 20.992188 12.929688 C 21.042969 12.035156 20.730469 11.164062 20.121094 10.519531 C 19.5 9.863281 18.632812 9.5 17.71875 9.5 L 15.734375 9.5 C 15.910156 8.871094 16.082031 8.261719 16.210938 7.769531 C 16.511719 6.585938 16.582031 5.527344 16.398438 4.511719 C 16.304688 4.003906 16.132812 3.265625 15.609375 2.585938 C 15.226562 2.089844 14.703125 1.730469 14.109375 1.582031 C 13.894531 1.527344 13.667969 1.5 13.445312 1.511719 Z M 13.542969 3.003906 C 13.578125 3.003906 13.640625 3.011719 13.742188 3.035156 C 14.011719 3.101562 14.21875 3.234375 14.421875 3.5 C 14.71875 3.886719 14.847656 4.351562 14.921875 4.777344 C 15.0625 5.554688 15.019531 6.363281 14.753906 7.398438 C 14.574219 8.101562 14.027344 10.046875 14.027344 10.046875 C 13.964844 10.273438 14.011719 10.515625 14.152344 10.703125 C 14.292969 10.890625 14.515625 11 14.75 11 L 17.71875 11 C 18.246094 11 18.695312 11.195312 19.03125 11.550781 C 19.359375 11.894531 19.523438 12.34375 19.496094 12.847656 C 19.484375 13.066406 19.425781 13.296875 19.355469 13.554688 C 19.355469 13.558594 19.355469 13.5625 19.351562 13.5625 C 19.351562 13.5625 18.488281 16.941406 18.070312 18.558594 C 17.691406 20.03125 16.410156 21.007812 14.941406 21.007812 C 14.839844 21.007812 14.734375 21 14.628906 20.992188 C 14.742188 21.003906 14.398438 20.949219 14.042969 20.878906 C 13.683594 20.808594 13.203125 20.707031 12.65625 20.589844 C 11.699219 20.390625 10.542969 20.140625 9.46875 19.90625 C 9.472656 19.851562 9.5 19.804688 9.5 19.75 L 9.5 11.007812 C 10.386719 9.625 11.351562 8.25 12.261719 6.828125 L 12.265625 6.828125 C 12.429688 6.574219 12.503906 6.324219 12.570312 6.082031 C 12.570312 6.078125 12.773438 5.375 12.976562 4.660156 C 13.078125 4.304688 13.179688 3.945312 13.257812 3.671875 C 13.296875 3.539062 13.328125 3.421875 13.351562 3.339844 C 13.363281 3.300781 13.375 3.269531 13.378906 3.246094 C 13.457031 3.03125 13.511719 3.007812 13.503906 3.011719 C 13.5 3.011719 13.507812 3.003906 13.542969 3.003906 Z M 5.25 11 L 8 11 L 8 19.75 C 8 20.171875 7.671875 20.5 7.25 20.5 L 5.25 20.5 C 4.828125 20.5 4.5 20.171875 4.5 19.75 L 4.5 11.75 C 4.5 11.328125 4.828125 11 5.25 11 Z M 5.25 11 "/>
</g>
</svg>
