<?xml version="1.0" encoding="UTF-8"?>
<!--Generator: Apple Native CoreSVG 123-->
<!DOCTYPE svg
PUBLIC "-//W3C//DTD SVG 1.1//EN"
       "http://www.w3.org/Graphics/SVG/1.1/DTD/svg11.dtd">
<svg version="1.1" xmlns="http://www.w3.org/2000/svg" xmlns:xlink="http://www.w3.org/1999/xlink" width="3300" height="2200">
 <!--glyph: "uni10027F.medium", point size: 100.000000, font version: "Version 15.0d7e11", template writer version: "5"-->
 <g id="Notes">
  <rect height="2200" id="artboard" style="fill:white;opacity:1" width="3300" x="0" y="0"/>
  <line id="" style="fill:none;stroke:black;opacity:1;stroke-width:0.5;" x1="263" x2="3036" y1="292" y2="292"/>
  <text style="stroke:none;fill:black;font-family:-apple-system,&quot;SF Pro Display&quot;,&quot;SF Pro Text&quot;,Helvetica,sans-serif;font-weight:bold;" transform="matrix(1 0 0 1 263 322)">Weight/Scale Variations</text>
  <text style="stroke:none;fill:black;font-family:-apple-system,&quot;SF Pro Display&quot;,&quot;SF Pro Text&quot;,Helvetica,sans-serif;text-anchor:middle;" transform="matrix(1 0 0 1 559.711 322)">Ultralight</text>
  <text style="stroke:none;fill:black;font-family:-apple-system,&quot;SF Pro Display&quot;,&quot;SF Pro Text&quot;,Helvetica,sans-serif;text-anchor:middle;" transform="matrix(1 0 0 1 856.422 322)">Thin</text>
  <text style="stroke:none;fill:black;font-family:-apple-system,&quot;SF Pro Display&quot;,&quot;SF Pro Text&quot;,Helvetica,sans-serif;text-anchor:middle;" transform="matrix(1 0 0 1 1153.13 322)">Light</text>
  <text style="stroke:none;fill:black;font-family:-apple-system,&quot;SF Pro Display&quot;,&quot;SF Pro Text&quot;,Helvetica,sans-serif;text-anchor:middle;" transform="matrix(1 0 0 1 1449.84 322)">Regular</text>
  <text style="stroke:none;fill:black;font-family:-apple-system,&quot;SF Pro Display&quot;,&quot;SF Pro Text&quot;,Helvetica,sans-serif;text-anchor:middle;" transform="matrix(1 0 0 1 1746.56 322)">Medium</text>
  <text style="stroke:none;fill:black;font-family:-apple-system,&quot;SF Pro Display&quot;,&quot;SF Pro Text&quot;,Helvetica,sans-serif;text-anchor:middle;" transform="matrix(1 0 0 1 2043.27 322)">Semibold</text>
  <text style="stroke:none;fill:black;font-family:-apple-system,&quot;SF Pro Display&quot;,&quot;SF Pro Text&quot;,Helvetica,sans-serif;text-anchor:middle;" transform="matrix(1 0 0 1 2339.98 322)">Bold</text>
  <text style="stroke:none;fill:black;font-family:-apple-system,&quot;SF Pro Display&quot;,&quot;SF Pro Text&quot;,Helvetica,sans-serif;text-anchor:middle;" transform="matrix(1 0 0 1 2636.69 322)">Heavy</text>
  <text style="stroke:none;fill:black;font-family:-apple-system,&quot;SF Pro Display&quot;,&quot;SF Pro Text&quot;,Helvetica,sans-serif;text-anchor:middle;" transform="matrix(1 0 0 1 2933.4 322)">Black</text>
  <line id="" style="fill:none;stroke:black;opacity:1;stroke-width:0.5;" x1="263" x2="3036" y1="1903" y2="1903"/>
  <g id="" transform="matrix(1 0 0 1 263 1933)">
   <path d="M 9.24805 0.830078 C 13.5547 0.830078 17.1387 -2.74414 17.1387 -7.05078 C 17.1387 -11.3574 13.5449 -14.9316 9.23828 -14.9316 C 4.94141 -14.9316 1.36719 -11.3574 1.36719 -7.05078 C 1.36719 -2.74414 4.95117 0.830078 9.24805 0.830078 Z M 9.24805 -0.654297 C 5.70312 -0.654297 2.87109 -3.49609 2.87109 -7.05078 C 2.87109 -10.6055 5.69336 -13.4473 9.23828 -13.4473 C 12.793 -13.4473 15.6348 -10.6055 15.6445 -7.05078 C 15.6543 -3.49609 12.8027 -0.654297 9.24805 -0.654297 Z M 9.22852 -3.42773 C 9.69727 -3.42773 9.9707 -3.74023 9.9707 -4.25781 L 9.9707 -6.31836 L 12.1973 -6.31836 C 12.6953 -6.31836 13.0371 -6.57227 13.0371 -7.04102 C 13.0371 -7.51953 12.7148 -7.7832 12.1973 -7.7832 L 9.9707 -7.7832 L 9.9707 -10.0098 C 9.9707 -10.5273 9.69727 -10.8496 9.22852 -10.8496 C 8.75977 -10.8496 8.50586 -10.5078 8.50586 -10.0098 L 8.50586 -7.7832 L 6.29883 -7.7832 C 5.78125 -7.7832 5.44922 -7.51953 5.44922 -7.04102 C 5.44922 -6.57227 5.80078 -6.31836 6.29883 -6.31836 L 8.50586 -6.31836 L 8.50586 -4.25781 C 8.50586 -3.75977 8.75977 -3.42773 9.22852 -3.42773 Z"/>
  </g>
  <g id="" transform="matrix(1 0 0 1 281.506 1933)">
   <path d="M 11.709 2.91016 C 17.1582 2.91016 21.6699 -1.60156 21.6699 -7.05078 C 21.6699 -12.4902 17.1484 -17.0117 11.6992 -17.0117 C 6.25977 -17.0117 1.74805 -12.4902 1.74805 -7.05078 C 1.74805 -1.60156 6.26953 2.91016 11.709 2.91016 Z M 11.709 1.25 C 7.09961 1.25 3.41797 -2.44141 3.41797 -7.05078 C 3.41797 -11.6504 7.08984 -15.3516 11.6992 -15.3516 C 16.3086 -15.3516 20 -11.6504 20.0098 -7.05078 C 20.0195 -2.44141 16.3184 1.25 11.709 1.25 Z M 11.6895 -2.41211 C 12.207 -2.41211 12.5195 -2.77344 12.5195 -3.33984 L 12.5195 -6.23047 L 15.5762 -6.23047 C 16.123 -6.23047 16.5039 -6.51367 16.5039 -7.03125 C 16.5039 -7.55859 16.1426 -7.86133 15.5762 -7.86133 L 12.5195 -7.86133 L 12.5195 -10.9277 C 12.5195 -11.5039 12.207 -11.8555 11.6895 -11.8555 C 11.1719 -11.8555 10.8789 -11.4844 10.8789 -10.9277 L 10.8789 -7.86133 L 7.83203 -7.86133 C 7.26562 -7.86133 6.89453 -7.55859 6.89453 -7.03125 C 6.89453 -6.51367 7.28516 -6.23047 7.83203 -6.23047 L 10.8789 -6.23047 L 10.8789 -3.33984 C 10.8789 -2.79297 11.1719 -2.41211 11.6895 -2.41211 Z"/>
  </g>
  <g id="" transform="matrix(1 0 0 1 304.924 1933)">
   <path d="M 14.9707 5.67383 C 21.9336 5.67383 27.6953 -0.078125 27.6953 -7.04102 C 27.6953 -14.0039 21.9238 -19.7559 14.9609 -19.7559 C 8.00781 -19.7559 2.25586 -14.0039 2.25586 -7.04102 C 2.25586 -0.078125 8.01758 5.67383 14.9707 5.67383 Z M 14.9707 3.85742 C 8.93555 3.85742 4.08203 -1.00586 4.08203 -7.04102 C 4.08203 -13.0762 8.92578 -17.9395 14.9609 -17.9395 C 21.0059 -17.9395 25.8594 -13.0762 25.8691 -7.04102 C 25.8789 -1.00586 21.0156 3.85742 14.9707 3.85742 Z M 14.9512 -1.06445 C 15.5176 -1.06445 15.8691 -1.45508 15.8691 -2.06055 L 15.8691 -6.13281 L 20.1074 -6.13281 C 20.6934 -6.13281 21.1133 -6.46484 21.1133 -7.02148 C 21.1133 -7.59766 20.7227 -7.93945 20.1074 -7.93945 L 15.8691 -7.93945 L 15.8691 -12.1875 C 15.8691 -12.8027 15.5176 -13.1934 14.9512 -13.1934 C 14.3848 -13.1934 14.0625 -12.7832 14.0625 -12.1875 L 14.0625 -7.93945 L 9.83398 -7.93945 C 9.21875 -7.93945 8.80859 -7.59766 8.80859 -7.02148 C 8.80859 -6.46484 9.23828 -6.13281 9.83398 -6.13281 L 14.0625 -6.13281 L 14.0625 -2.06055 C 14.0625 -1.47461 14.3848 -1.06445 14.9512 -1.06445 Z"/>
  </g>
  <text style="stroke:none;fill:black;font-family:-apple-system,&quot;SF Pro Display&quot;,&quot;SF Pro Text&quot;,Helvetica,sans-serif;font-weight:bold;" transform="matrix(1 0 0 1 263 1953)">Design Variations</text>
  <text style="stroke:none;fill:black;font-family:-apple-system,&quot;SF Pro Display&quot;,&quot;SF Pro Text&quot;,Helvetica,sans-serif;" transform="matrix(1 0 0 1 263 1971)">Symbols are supported in up to nine weights and three scales.</text>
  <text style="stroke:none;fill:black;font-family:-apple-system,&quot;SF Pro Display&quot;,&quot;SF Pro Text&quot;,Helvetica,sans-serif;" transform="matrix(1 0 0 1 263 1989)">For optimal layout with text and other symbols, vertically align</text>
  <text style="stroke:none;fill:black;font-family:-apple-system,&quot;SF Pro Display&quot;,&quot;SF Pro Text&quot;,Helvetica,sans-serif;" transform="matrix(1 0 0 1 263 2007)">symbols with the adjacent text.</text>
  <rect height="14" id="" style="fill:#00AEEF;stroke:none;opacity:0.4;" width="3" x="776" y="1919"/>
  <g id="" transform="matrix(1 0 0 1 779 1933)">
   <path d="M 10.5273 0 L 12.373 0 L 7.17773 -14.0918 L 5.43945 -14.0918 L 0.244141 0 L 2.08984 0 L 3.50586 -4.0332 L 9.11133 -4.0332 Z M 6.2793 -11.9531 L 6.33789 -11.9531 L 8.59375 -5.52734 L 4.02344 -5.52734 Z"/>
  </g>
  <rect height="14" id="" style="fill:#00AEEF;stroke:none;opacity:0.4;" width="3" x="791.617" y="1919"/>
  <text style="stroke:none;fill:black;font-family:-apple-system,&quot;SF Pro Display&quot;,&quot;SF Pro Text&quot;,Helvetica,sans-serif;font-weight:bold;" transform="matrix(1 0 0 1 776 1953)">Margins</text>
  <text style="stroke:none;fill:black;font-family:-apple-system,&quot;SF Pro Display&quot;,&quot;SF Pro Text&quot;,Helvetica,sans-serif;" transform="matrix(1 0 0 1 776 1971)">Leading and trailing margins on the left and right side of each symbol</text>
  <text style="stroke:none;fill:black;font-family:-apple-system,&quot;SF Pro Display&quot;,&quot;SF Pro Text&quot;,Helvetica,sans-serif;" transform="matrix(1 0 0 1 776 1989)">can be adjusted by modifying the width of the blue rectangles.</text>
  <text style="stroke:none;fill:black;font-family:-apple-system,&quot;SF Pro Display&quot;,&quot;SF Pro Text&quot;,Helvetica,sans-serif;" transform="matrix(1 0 0 1 776 2007)">Modifications are automatically applied proportionally to all</text>
  <text style="stroke:none;fill:black;font-family:-apple-system,&quot;SF Pro Display&quot;,&quot;SF Pro Text&quot;,Helvetica,sans-serif;" transform="matrix(1 0 0 1 776 2025)">scales and weights.</text>
  <g id="" transform="matrix(1 0 0 1 1289 1933)">
   <path d="M 2.83203 3.11523 L 4.375 4.6582 C 5.22461 5.48828 6.19141 5.41992 7.06055 4.46289 L 17.2754 -6.66016 C 17.7051 -6.36719 18.0957 -6.37695 18.5645 -6.47461 L 19.6094 -6.68945 L 20.3027 -5.99609 L 20.2539 -5.47852 C 20.1855 -4.95117 20.3516 -4.53125 20.8496 -4.0332 L 21.6602 -3.22266 C 22.168 -2.71484 22.8223 -2.68555 23.3008 -3.16406 L 26.5527 -6.41602 C 27.0312 -6.89453 27.0117 -7.54883 26.5039 -8.05664 L 25.6836 -8.87695 C 25.1855 -9.375 24.7754 -9.55078 24.2383 -9.47266 L 23.7109 -9.41406 L 23.0566 -10.0781 L 23.3398 -11.2207 C 23.4863 -11.7871 23.3398 -12.2559 22.7148 -12.8613 L 20.3027 -15.2539 C 16.7578 -18.7793 12.2266 -18.6719 9.11133 -15.5371 C 8.69141 -15.1074 8.64258 -14.5215 8.91602 -14.0918 C 9.15039 -13.7207 9.62891 -13.4961 10.2734 -13.6621 C 11.7871 -14.043 13.3008 -13.9258 14.7852 -12.9199 L 14.1602 -11.3379 C 13.9258 -10.752 13.9453 -10.2734 14.1797 -9.83398 L 3.01758 0.439453 C 2.08008 1.30859 1.97266 2.25586 2.83203 3.11523 Z M 10.6738 -15.1465 C 13.3398 -17.1387 16.6504 -16.8262 19.0527 -14.4141 L 21.6797 -11.8066 C 21.9141 -11.5723 21.9434 -11.3867 21.8848 -11.0938 L 21.5039 -9.53125 L 23.0762 -7.95898 L 24.043 -8.04688 C 24.3262 -8.07617 24.4141 -8.05664 24.6387 -7.83203 L 25.2637 -7.20703 L 22.5098 -4.46289 L 21.8848 -5.07812 C 21.6602 -5.30273 21.6406 -5.40039 21.6699 -5.68359 L 21.7578 -6.64062 L 20.1953 -8.20312 L 18.5742 -7.89062 C 18.291 -7.83203 18.1445 -7.83203 17.9102 -8.07617 L 15.7324 -10.2539 C 15.5078 -10.4883 15.4785 -10.625 15.6055 -10.9473 L 16.5527 -13.2227 C 14.9512 -14.7559 12.8418 -15.6055 10.8008 -14.9512 C 10.7129 -14.9219 10.6445 -14.9414 10.6152 -14.9805 C 10.5859 -15.0293 10.5859 -15.0781 10.6738 -15.1465 Z M 4.10156 2.41211 C 3.61328 1.91406 3.78906 1.61133 4.12109 1.30859 L 15.0781 -8.80859 L 16.3086 -7.57812 L 6.15234 3.34961 C 5.84961 3.68164 5.46875 3.7793 5.06836 3.37891 Z"/>
  </g>
  <text style="stroke:none;fill:black;font-family:-apple-system,&quot;SF Pro Display&quot;,&quot;SF Pro Text&quot;,Helvetica,sans-serif;font-weight:bold;" transform="matrix(1 0 0 1 1289 1953)">Exporting</text>
  <text style="stroke:none;fill:black;font-family:-apple-system,&quot;SF Pro Display&quot;,&quot;SF Pro Text&quot;,Helvetica,sans-serif;" transform="matrix(1 0 0 1 1289 1971)">Symbols should be outlined when exporting to ensure the</text>
  <text style="stroke:none;fill:black;font-family:-apple-system,&quot;SF Pro Display&quot;,&quot;SF Pro Text&quot;,Helvetica,sans-serif;" transform="matrix(1 0 0 1 1289 1989)">design is preserved when submitting to Xcode.</text>
  <text id="template-version" style="stroke:none;fill:black;font-family:-apple-system,&quot;SF Pro Display&quot;,&quot;SF Pro Text&quot;,Helvetica,sans-serif;text-anchor:end;" transform="matrix(1 0 0 1 3036 1933)">Template v.1.0</text>
  <text style="stroke:none;fill:black;font-family:-apple-system,&quot;SF Pro Display&quot;,&quot;SF Pro Text&quot;,Helvetica,sans-serif;text-anchor:end;" transform="matrix(1 0 0 1 3036 1951)">Generated from hand.thumbsup</text>
  <text style="stroke:none;fill:black;font-family:-apple-system,&quot;SF Pro Display&quot;,&quot;SF Pro Text&quot;,Helvetica,sans-serif;text-anchor:end;" transform="matrix(1 0 0 1 3036 1969)">Typeset at 100 points</text>
  <text style="stroke:none;fill:black;font-family:-apple-system,&quot;SF Pro Display&quot;,&quot;SF Pro Text&quot;,Helvetica,sans-serif;" transform="matrix(1 0 0 1 263 726)">Small</text>
  <text style="stroke:none;fill:black;font-family:-apple-system,&quot;SF Pro Display&quot;,&quot;SF Pro Text&quot;,Helvetica,sans-serif;" transform="matrix(1 0 0 1 263 1156)">Medium</text>
  <text style="stroke:none;fill:black;font-family:-apple-system,&quot;SF Pro Display&quot;,&quot;SF Pro Text&quot;,Helvetica,sans-serif;" transform="matrix(1 0 0 1 263 1586)">Large</text>
 </g>
 <g id="Guides">
  <g id="H-reference" style="fill:#27AAE1;stroke:none;" transform="matrix(1 0 0 1 339 696)">
   <path d="M 54.9316 0 L 57.666 0 L 30.5664 -70.459 L 28.0762 -70.459 L 0.976562 0 L 3.66211 0 L 12.9395 -24.4629 L 45.7031 -24.4629 Z M 29.1992 -67.0898 L 29.4434 -67.0898 L 44.8242 -26.709 L 13.8184 -26.709 Z"/>
  </g>
  <line id="Baseline-S" style="fill:none;stroke:#27AAE1;opacity:1;stroke-width:0.577;" x1="263" x2="3036" y1="696" y2="696"/>
  <line id="Capline-S" style="fill:none;stroke:#27AAE1;opacity:1;stroke-width:0.577;" x1="263" x2="3036" y1="625.541" y2="625.541"/>
  <g id="H-reference" style="fill:#27AAE1;stroke:none;" transform="matrix(1 0 0 1 339 1126)">
   <path d="M 54.9316 0 L 57.666 0 L 30.5664 -70.459 L 28.0762 -70.459 L 0.976562 0 L 3.66211 0 L 12.9395 -24.4629 L 45.7031 -24.4629 Z M 29.1992 -67.0898 L 29.4434 -67.0898 L 44.8242 -26.709 L 13.8184 -26.709 Z"/>
  </g>
  <line id="Baseline-M" style="fill:none;stroke:#27AAE1;opacity:1;stroke-width:0.577;" x1="263" x2="3036" y1="1126" y2="1126"/>
  <line id="Capline-M" style="fill:none;stroke:#27AAE1;opacity:1;stroke-width:0.577;" x1="263" x2="3036" y1="1055.54" y2="1055.54"/>
  <g id="H-reference" style="fill:#27AAE1;stroke:none;" transform="matrix(1 0 0 1 339 1556)">
   <path d="M 54.9316 0 L 57.666 0 L 30.5664 -70.459 L 28.0762 -70.459 L 0.976562 0 L 3.66211 0 L 12.9395 -24.4629 L 45.7031 -24.4629 Z M 29.1992 -67.0898 L 29.4434 -67.0898 L 44.8242 -26.709 L 13.8184 -26.709 Z"/>
  </g>
  <line id="Baseline-L" style="fill:none;stroke:#27AAE1;opacity:1;stroke-width:0.577;" x1="263" x2="3036" y1="1556" y2="1556"/>
  <line id="Capline-L" style="fill:none;stroke:#27AAE1;opacity:1;stroke-width:0.577;" x1="263" x2="3036" y1="1485.54" y2="1485.54"/>
  <rect height="119.336" id="left-margin" style="fill:#00AEEF;stroke:none;opacity:0.4;" width="8.74023" x="1389.57" y="1030.79"/>
  <rect height="119.336" id="right-margin" style="fill:#00AEEF;stroke:none;opacity:0.4;" width="8.74023" x="1501.38" y="1030.79"/>
 </g>
 <g id="Symbols">
  <g id="Black-L" transform="matrix(1 0 0 1 2847.63 1556)">
   <path d="M 101.27 38.5742 L 110.547 38.5742 C 119.385 38.5742 127.197 38.0371 132.227 36.7676 C 142.725 34.082 149.561 26.1719 149.561 16.8457 C 149.561 15.625 149.316 14.4531 148.926 13.1836 C 153.516 9.375 156.055 4.05273 156.055 -1.9043 C 156.055 -4.49219 155.566 -6.88477 154.639 -8.93555 C 157.715 -12.4023 159.375 -16.9922 159.375 -22.0215 C 159.375 -25.293 158.643 -28.2715 157.275 -30.8594 C 159.229 -33.9844 160.254 -37.9883 160.254 -42.5293 C 160.254 -54.0039 151.904 -62.4512 140.527 -62.4512 L 115.771 -62.4512 C 114.746 -62.4512 114.502 -63.2812 114.795 -64.2578 C 116.602 -71.4355 125.537 -86.1328 125.537 -98.8281 C 125.537 -109.814 117.676 -117.969 106.982 -117.969 C 99.2188 -117.969 93.75 -113.867 88.916 -104.59 C 80.2246 -87.5 68.457 -72.5586 57.0801 -58.1055 L 43.9941 -58.1055 C 25.3418 -58.1055 11.2793 -38.2812 11.2793 -12.9395 C 11.2793 12.1094 26.6113 31.9336 46.5332 31.9336 L 70.8496 31.9336 C 79.5898 36.084 89.9414 38.5742 101.27 38.5742 Z M 110.693 23.1934 L 101.416 23.1445 C 74.7559 22.9004 56.6406 8.00781 56.6406 -13.4766 C 56.6406 -27.2949 59.668 -35.8887 68.5059 -47.8516 C 78.5645 -61.1816 92.4805 -77.3438 102.539 -97.5586 C 104.639 -101.611 105.713 -102.588 107.08 -102.588 C 109.082 -102.588 110.156 -101.318 110.156 -98.8281 C 110.156 -88.6719 98.8281 -72.3145 98.8281 -61.2305 C 98.8281 -52.7832 105.664 -47.0703 115.039 -47.0703 L 139.355 -47.0703 C 142.48 -47.0703 144.873 -44.5801 144.873 -41.3574 C 144.873 -39.209 143.799 -37.9395 142.529 -36.6699 C 140.674 -34.8145 139.844 -33.1543 139.844 -31.3477 C 139.844 -29.6387 140.527 -28.0273 141.797 -26.8066 C 143.115 -25.0488 144.141 -23.9746 144.141 -22.0215 C 144.141 -19.9707 142.773 -18.1152 140.869 -16.8457 C 138.574 -15.2344 137.207 -13.0371 137.207 -10.7422 C 137.207 -9.375 137.891 -7.95898 138.477 -6.78711 C 139.453 -4.6875 140.088 -3.66211 140.088 -1.70898 C 140.088 1.07422 138.574 2.34375 135.449 4.00391 C 133.008 5.32227 131.689 7.32422 131.689 9.7168 C 131.689 10.8887 132.178 12.1094 132.617 13.1836 C 133.447 15.1855 133.594 15.625 133.594 16.8457 C 133.594 19.1895 131.738 20.8984 127.93 21.875 C 124.268 22.8516 118.213 23.291 110.693 23.1934 Z M 47.7051 17.2852 C 35.3027 17.2852 25.9277 4.39453 25.9277 -12.9395 C 25.9277 -30.5176 34.2285 -43.457 45.166 -43.457 L 47.6562 -43.457 C 43.2129 -34.3262 41.3086 -24.8535 41.3086 -13.4766 C 41.3086 -1.66016 45.1172 8.88672 51.9043 17.2852 Z"/>
  </g>
  <g id="Heavy-L" transform="matrix(1 0 0 1 2553.19 1556)">
   <path d="M 98.6816 36.4746 L 107.812 36.4746 C 116.406 36.4746 123.926 35.9863 128.809 34.7656 C 138.77 32.2266 145.215 24.8535 145.215 16.0156 C 145.215 14.6973 144.971 13.3789 144.531 12.0605 C 149.072 8.44727 151.562 3.27148 151.562 -2.49023 C 151.562 -5.07812 151.074 -7.51953 150.146 -9.57031 C 153.174 -12.8418 154.883 -17.3828 154.883 -22.3145 C 154.883 -25.5371 154.15 -28.5645 152.734 -31.0059 C 154.688 -33.9844 155.713 -37.8418 155.713 -42.2363 C 155.713 -53.0762 147.705 -61.1816 136.963 -61.1816 L 112.549 -61.1816 C 111.23 -61.1816 110.693 -62.0605 110.938 -63.2324 C 112.305 -70.4102 121.631 -85.3027 121.631 -97.9492 C 121.631 -108.301 114.307 -115.869 104.297 -115.869 C 97.0215 -115.869 91.8945 -112.012 87.3047 -103.174 C 78.8574 -86.6211 67.9199 -72.5098 55.5664 -56.9336 L 42.7734 -56.9336 C 24.9512 -56.9336 11.2793 -37.7441 11.2793 -13.3789 C 11.2793 10.6445 26.1719 29.834 45.2148 29.834 L 68.6523 29.834 C 77.2461 33.9844 87.4512 36.4746 98.6816 36.4746 Z M 107.91 22.8516 L 98.8281 22.7539 C 72.2168 22.5098 54.1504 7.61719 54.1504 -13.8672 C 54.1504 -27.6367 57.1777 -36.2305 65.918 -48.0957 C 75.8789 -61.2305 89.502 -77.1484 99.4629 -96.9727 C 101.611 -101.221 102.783 -102.246 104.395 -102.246 C 106.689 -102.246 108.008 -100.732 108.008 -97.9492 C 108.008 -87.793 96.8262 -71.6797 96.8262 -60.9375 C 96.8262 -52.8809 103.369 -47.5098 112.207 -47.5098 L 136.084 -47.5098 C 139.453 -47.5098 142.09 -44.8242 142.09 -41.3574 C 142.09 -38.9648 141.016 -37.5488 139.502 -36.0352 C 137.939 -34.4727 137.207 -33.0566 137.207 -31.4941 C 137.207 -30.0293 137.793 -28.7109 138.867 -27.5879 C 140.332 -25.6836 141.309 -24.4141 141.309 -22.3145 C 141.309 -20.0195 139.941 -17.9688 137.842 -16.5039 C 135.791 -15.0879 134.619 -13.1836 134.619 -11.1816 C 134.619 -10.0098 135.156 -8.83789 135.645 -7.8125 C 136.816 -5.51758 137.5 -4.3457 137.5 -2.29492 C 137.5 0.634766 135.791 2.19727 132.373 4.05273 C 130.273 5.12695 129.15 6.83594 129.15 8.88672 C 129.15 9.91211 129.541 10.8887 129.932 11.8652 C 130.908 14.1602 131.104 14.6973 131.104 16.0156 C 131.104 18.6035 129.102 20.5078 125.049 21.5332 C 121.387 22.4609 115.381 22.9492 107.91 22.8516 Z M 46.1426 16.748 C 33.9355 16.748 24.4141 3.71094 24.4141 -13.3789 C 24.4141 -30.7617 32.9102 -43.7988 43.6523 -43.7988 L 47.1191 -43.7988 C 42.4805 -34.668 40.4785 -25.2441 40.4785 -13.8672 C 40.4785 -2.00195 44.5312 8.49609 51.6602 16.748 Z"/>
  </g>
  <g id="Bold-L" transform="matrix(1 0 0 1 2259 1556)">
   <path d="M 95.8008 34.1797 L 104.736 34.1797 C 113.086 34.1797 120.312 33.6914 125 32.5195 C 134.375 30.127 140.332 23.3887 140.332 15.0879 C 140.332 13.623 140.088 12.207 139.6 10.8398 C 144.043 7.42188 146.582 2.44141 146.582 -3.125 C 146.582 -5.76172 146.094 -8.20312 145.068 -10.2539 C 148.096 -13.3789 149.854 -17.8223 149.854 -22.6074 C 149.854 -25.7812 149.072 -28.8574 147.656 -31.2012 C 149.609 -33.9844 150.684 -37.6953 150.684 -41.8945 C 150.684 -52.0508 143.018 -59.7656 132.959 -59.7656 L 108.887 -59.7656 C 107.275 -59.7656 106.494 -60.6934 106.641 -62.0605 C 107.52 -69.1895 117.285 -84.4238 117.285 -96.9727 C 117.285 -106.592 110.547 -113.574 101.27 -113.574 C 94.5312 -113.574 89.8438 -110.01 85.498 -101.66 C 77.2949 -85.6934 67.2852 -72.4609 53.8574 -55.6152 L 41.3574 -55.6152 C 24.4629 -55.6152 11.2793 -37.1582 11.2793 -13.916 C 11.2793 9.0332 25.7324 27.4902 43.7988 27.4902 L 66.2109 27.4902 C 74.6094 31.6895 84.668 34.1797 95.8008 34.1797 Z M 104.834 22.4121 L 95.8984 22.3633 C 69.3848 22.1191 51.3184 7.17773 51.3184 -14.2578 C 51.3184 -27.9785 54.3457 -36.6211 63.0371 -48.3398 C 72.8027 -61.2793 86.2305 -76.8555 95.9473 -96.2891 C 98.291 -100.83 99.5117 -101.807 101.318 -101.807 C 104.004 -101.807 105.566 -100.098 105.566 -96.9727 C 105.566 -86.8164 94.5801 -70.9473 94.5801 -60.5469 C 94.5801 -52.9785 100.781 -48.0469 109.082 -48.0469 L 132.373 -48.0469 C 136.084 -48.0469 138.916 -45.1172 138.916 -41.3086 C 138.916 -38.7695 137.891 -37.1094 136.133 -35.3516 C 134.863 -34.1309 134.277 -32.959 134.277 -31.6895 C 134.277 -30.5176 134.717 -29.4434 135.596 -28.5156 C 137.207 -26.416 138.135 -24.8535 138.135 -22.6074 C 138.135 -20.0684 136.768 -17.8223 134.424 -16.1621 C 132.666 -14.9414 131.689 -13.3301 131.689 -11.6699 C 131.689 -10.7422 132.08 -9.81445 132.52 -8.98438 C 133.838 -6.39648 134.57 -5.12695 134.57 -2.97852 C 134.57 0.146484 132.715 2.09961 128.955 4.05273 C 127.246 4.93164 126.318 6.29883 126.318 7.95898 C 126.318 8.78906 126.611 9.57031 126.953 10.4004 C 128.076 13.0371 128.271 13.6719 128.271 15.0879 C 128.271 17.9199 126.172 20.0684 121.875 21.0938 C 118.164 22.0703 112.207 22.5098 104.834 22.4121 Z M 44.3848 16.1133 C 32.4219 16.1133 22.7051 2.92969 22.7051 -13.916 C 22.7051 -31.0547 31.3965 -44.1895 41.9434 -44.1895 L 46.4844 -44.1895 C 41.6504 -35.0586 39.5996 -25.7324 39.5996 -14.3555 C 39.5996 -2.39258 43.8477 8.10547 51.3184 16.1133 Z"/>
  </g>
  <g id="Semibold-L" transform="matrix(1 0 0 1 1964.02 1556)">
   <path d="M 93.7988 32.5684 L 102.637 32.5684 C 110.791 32.5684 117.773 32.1289 122.363 30.957 C 131.348 28.7109 136.963 22.3633 136.963 14.4531 C 136.963 12.8906 136.719 11.4258 136.182 10.0098 C 140.625 6.73828 143.164 1.85547 143.164 -3.51562 C 143.164 -6.20117 142.627 -8.69141 141.602 -10.7422 C 144.629 -13.7207 146.387 -18.1152 146.387 -22.8027 C 146.387 -25.9277 145.605 -29.0527 144.189 -31.3477 C 146.094 -33.9844 147.217 -37.5977 147.217 -41.6504 C 147.217 -51.3672 139.844 -58.8379 130.225 -58.8379 L 106.396 -58.8379 C 104.59 -58.8379 103.564 -59.7656 103.662 -61.2793 C 104.248 -68.4082 114.307 -83.7891 114.307 -96.3379 C 114.307 -105.371 107.959 -111.963 99.2188 -111.963 C 92.7734 -111.963 88.4277 -108.594 84.2773 -100.586 C 76.2207 -85.0098 66.8457 -72.4121 52.6855 -54.6875 L 40.3809 -54.6875 C 24.1699 -54.6875 11.2793 -36.7676 11.2793 -14.2578 C 11.2793 7.91016 25.3906 25.8789 42.7734 25.8789 L 64.502 25.8789 C 72.8027 30.0781 82.7637 32.5684 93.7988 32.5684 Z M 102.734 22.168 L 93.8965 22.0703 C 67.4316 21.8262 49.4141 6.88477 49.4141 -14.5508 C 49.4141 -28.2227 52.4414 -36.9141 61.084 -48.4863 C 70.7031 -61.2793 83.9355 -76.6602 93.5547 -95.8008 C 95.9473 -100.537 97.2656 -101.514 99.2676 -101.514 C 102.148 -101.514 103.857 -99.6582 103.857 -96.3379 C 103.857 -86.084 93.0176 -70.4102 93.0176 -60.3027 C 93.0176 -53.0273 98.9746 -48.3887 106.934 -48.3887 L 129.834 -48.3887 C 133.789 -48.3887 136.768 -45.3125 136.768 -41.3086 C 136.768 -38.5742 135.791 -36.8164 133.789 -34.9121 C 132.715 -33.8867 132.227 -32.8613 132.227 -31.7871 C 132.227 -30.8594 132.617 -29.9316 133.35 -29.1504 C 135.059 -26.9043 135.986 -25.1465 135.986 -22.8027 C 135.986 -20.0684 134.57 -17.6758 132.08 -15.918 C 130.518 -14.7949 129.688 -13.4277 129.688 -12.0117 C 129.688 -11.2793 129.98 -10.498 130.371 -9.76562 C 131.787 -7.03125 132.52 -5.66406 132.52 -3.4668 C 132.52 -0.244141 130.566 2.00195 126.611 4.05273 C 125.146 4.78516 124.365 5.95703 124.365 7.32422 C 124.365 8.00781 124.609 8.69141 124.902 9.375 C 126.172 12.2559 126.367 12.9395 126.367 14.4531 C 126.367 17.4316 124.121 19.7266 119.678 20.8496 C 115.967 21.7773 110.01 22.2168 102.734 22.168 Z M 43.1641 15.6738 C 31.3965 15.6738 21.4844 2.39258 21.4844 -14.2578 C 21.4844 -31.25 30.3711 -44.4824 40.7715 -44.4824 L 46.0449 -44.4824 C 41.0645 -35.3027 38.9648 -26.0254 38.9648 -14.6484 C 38.9648 -2.63672 43.3594 7.8125 51.123 15.6738 Z"/>
  </g>
  <g id="Medium-L" transform="matrix(1 0 0 1 1668.63 1556)">
   <path d="M 92.2852 31.3965 L 101.025 31.3965 C 109.033 31.3965 115.869 30.9082 120.361 29.7852 C 129.004 27.5879 134.424 21.582 134.424 13.9648 C 134.424 12.3535 134.131 10.8398 133.594 9.32617 C 138.037 6.20117 140.576 1.41602 140.576 -3.85742 C 140.576 -6.54297 140.039 -9.08203 138.965 -11.1328 C 141.992 -13.9648 143.75 -18.3594 143.75 -22.9492 C 143.75 -26.0742 142.92 -29.1992 141.504 -31.4453 C 143.457 -33.9844 144.58 -37.5488 144.58 -41.5039 C 144.58 -50.8301 137.402 -58.1055 128.125 -58.1055 L 104.492 -58.1055 C 102.539 -58.1055 101.367 -59.082 101.416 -60.6934 C 101.709 -67.7734 112.061 -83.3008 112.061 -95.8008 C 112.061 -104.492 106.006 -110.791 97.6562 -110.791 C 91.5039 -110.791 87.3535 -107.568 83.3008 -99.7559 C 75.3906 -84.5215 66.5039 -72.4121 51.8066 -54.0039 L 39.6484 -54.0039 C 23.9258 -54.0039 11.2793 -36.4746 11.2793 -14.502 C 11.2793 7.08008 25.1465 24.6582 42.041 24.6582 L 63.2324 24.6582 C 71.4355 28.8574 81.2988 31.3965 92.2852 31.3965 Z M 101.123 21.9238 L 92.3828 21.8262 C 65.918 21.6309 47.9492 6.64062 47.9492 -14.7949 C 47.9492 -28.418 50.9766 -37.1094 59.5703 -48.6328 C 69.1406 -61.3281 82.2266 -76.5625 91.748 -95.459 C 94.1895 -100.293 95.5566 -101.318 97.6562 -101.318 C 100.781 -101.318 102.588 -99.3164 102.588 -95.8008 C 102.588 -85.5957 91.8457 -70.0684 91.8457 -60.1562 C 91.8457 -53.0762 97.6562 -48.6328 105.273 -48.6328 L 127.93 -48.6328 C 132.031 -48.6328 135.107 -45.459 135.107 -41.3086 C 135.107 -38.4766 134.131 -36.5723 132.031 -34.5703 C 131.104 -33.6914 130.664 -32.8125 130.664 -31.8848 C 130.664 -31.1035 131.006 -30.3223 131.641 -29.6387 C 133.447 -27.2461 134.326 -25.3906 134.326 -22.9492 C 134.326 -20.1172 132.91 -17.5781 130.322 -15.7227 C 128.906 -14.7461 128.174 -13.5254 128.174 -12.2559 C 128.174 -11.6211 128.369 -10.9863 128.711 -10.4004 C 130.273 -7.51953 131.006 -6.10352 131.006 -3.80859 C 131.006 -0.488281 128.955 1.95312 124.805 4.05273 C 123.584 4.6875 122.9 5.66406 122.9 6.83594 C 122.9 7.42188 123.096 8.00781 123.34 8.59375 C 124.658 11.6699 124.902 12.4023 124.902 13.9648 C 124.902 17.0898 122.559 19.4824 117.969 20.6543 C 114.307 21.582 108.398 22.0215 101.123 21.9238 Z M 42.2363 15.332 C 30.6152 15.332 20.6055 2.00195 20.6055 -14.502 C 20.6055 -31.3965 29.5898 -44.6777 39.8438 -44.6777 L 45.7031 -44.6777 C 40.625 -35.498 38.4766 -26.2695 38.4766 -14.8926 C 38.4766 -2.88086 43.0176 7.56836 50.9766 15.332 Z"/>
  </g>
  <g id="Regular-L" transform="matrix(1 0 0 1 1373.65 1556)">
   <path d="M 90.332 29.7852 L 98.9746 29.7852 C 106.738 29.7852 113.379 29.3457 117.725 28.2715 C 126.025 26.1719 131.104 20.6055 131.104 13.3301 C 131.104 11.6211 130.811 10.0098 130.225 8.49609 C 134.619 5.51758 137.158 0.878906 137.158 -4.29688 C 137.158 -6.98242 136.621 -9.57031 135.498 -11.6211 C 138.525 -14.3066 140.332 -18.6523 140.332 -23.1934 C 140.332 -26.2695 139.502 -29.3945 138.086 -31.5918 C 139.99 -33.9844 141.113 -37.4512 141.113 -41.2598 C 141.113 -50.1465 134.18 -57.1289 125.391 -57.1289 L 102.051 -57.1289 C 99.8535 -57.1289 98.4863 -58.1543 98.4863 -59.9121 C 98.4863 -66.9434 109.082 -82.7148 109.082 -95.166 C 109.082 -103.32 103.418 -109.18 95.6055 -109.18 C 89.7949 -109.18 85.9863 -106.152 82.0801 -98.7305 C 74.3652 -83.8379 66.0645 -72.3633 50.6348 -53.125 L 38.6719 -53.125 C 23.584 -53.125 11.2793 -36.084 11.2793 -14.8926 C 11.2793 5.95703 24.8047 23.0957 41.0645 23.0957 L 61.5723 23.0957 C 69.6289 27.2949 79.3945 29.7852 90.332 29.7852 Z M 99.0234 21.6309 L 90.3809 21.582 C 64.0137 21.3379 46.0449 6.34766 46.0449 -15.0879 C 46.0449 -28.6621 49.0723 -37.3535 57.6172 -48.7793 C 67.041 -61.3281 79.9805 -76.3672 89.3555 -95.0195 C 91.8945 -100 93.3105 -101.025 95.6055 -101.025 C 98.9258 -101.025 100.928 -98.877 100.928 -95.166 C 100.928 -84.9121 90.2832 -69.5312 90.2832 -59.9121 C 90.2832 -53.1738 95.8984 -48.9746 103.125 -48.9746 L 125.391 -48.9746 C 129.736 -48.9746 132.959 -45.6543 132.959 -41.2598 C 132.959 -38.2812 132.031 -36.2793 129.736 -34.082 C 129.004 -33.4473 128.662 -32.7637 128.662 -31.9824 C 128.662 -31.4453 128.906 -30.8594 129.395 -30.2734 C 131.299 -27.7344 132.178 -25.6836 132.178 -23.1934 C 132.178 -20.1172 130.713 -17.4805 127.979 -15.4785 C 126.758 -14.5996 126.172 -13.623 126.172 -12.5977 C 126.172 -12.1582 126.318 -11.6699 126.611 -11.1816 C 128.223 -8.1543 129.004 -6.64062 129.004 -4.29688 C 129.004 -0.830078 126.855 1.85547 122.461 4.05273 C 121.533 4.54102 120.947 5.32227 120.947 6.25 C 120.947 6.64062 121.094 7.08008 121.338 7.56836 C 122.754 10.8887 122.949 11.6699 122.949 13.3301 C 122.949 16.6016 120.557 19.1895 115.82 20.3613 C 112.109 21.2891 106.201 21.7285 99.0234 21.6309 Z M 41.0645 14.9414 C 29.5898 14.9414 19.4336 1.46484 19.4336 -14.8926 C 19.4336 -31.5918 28.5645 -44.9219 38.6719 -44.9219 L 45.2637 -44.9219 C 40.0879 -35.791 37.8906 -26.6113 37.8906 -15.2344 C 37.8906 -3.125 42.5781 7.27539 50.7324 14.9414 Z"/>
  </g>
  <g id="Light-L" transform="matrix(1 0 0 1 1079.09 1556)">
   <path d="M 87.8418 27.7344 L 96.3379 27.7344 C 104.053 27.7344 110.449 27.3438 114.6 26.2207 C 122.266 24.2676 126.953 19.2871 126.953 12.6465 C 126.953 10.7422 126.562 9.0332 125.83 7.42188 C 130.322 4.6875 132.91 0.244141 132.91 -4.73633 C 132.91 -7.61719 132.275 -10.3027 131.006 -12.3047 C 134.131 -14.6484 136.035 -18.8965 136.035 -23.3887 C 136.035 -26.6113 135.107 -29.7852 133.545 -31.7871 C 135.596 -33.9844 136.816 -37.3535 136.816 -41.2598 C 136.816 -49.3652 130.469 -55.7617 122.412 -55.7617 L 99.7559 -55.7617 C 96.6309 -55.7617 94.7266 -57.2754 94.7266 -59.6191 C 94.7266 -66.9434 105.225 -82.4219 105.225 -94.3848 C 105.225 -101.855 100.146 -107.129 93.0176 -107.129 C 87.7441 -107.129 84.3262 -104.395 80.7129 -97.4121 C 72.9492 -82.373 65.7715 -72.998 49.707 -52.4414 L 37.8418 -52.4414 C 23.3398 -52.4414 11.2793 -36.1328 11.2793 -15.3809 C 11.2793 4.98047 24.5117 21.3867 40.1367 21.3867 L 60.2539 21.3867 C 67.9688 25.3418 77.3438 27.7344 87.8418 27.7344 Z M 96.3379 21.4355 L 87.8418 21.3867 C 61.5723 21.1426 43.5059 6.10352 43.5059 -15.4297 C 43.5059 -28.9551 46.5332 -37.6465 55.0781 -49.0234 C 64.4043 -61.4746 77.0996 -76.2207 86.377 -94.5801 C 88.916 -99.6094 90.4785 -100.83 93.0176 -100.83 C 96.6797 -100.83 98.9258 -98.3887 98.9258 -94.3848 C 98.9258 -84.1309 88.4277 -68.9453 88.4277 -59.6191 C 88.4277 -53.418 93.5547 -49.4629 100.439 -49.4629 L 122.412 -49.4629 C 127.002 -49.4629 130.518 -45.8984 130.518 -41.2598 C 130.518 -38.2812 129.59 -36.1328 127.588 -34.2773 C 126.758 -33.5938 126.367 -32.8125 126.367 -32.0312 C 126.367 -31.3965 126.611 -30.7617 127.246 -30.127 C 128.906 -28.1738 129.736 -25.9766 129.736 -23.3887 C 129.736 -20.2637 128.271 -17.4316 125.684 -15.7227 C 124.463 -14.8926 123.877 -13.9648 123.877 -12.9395 C 123.877 -12.4023 124.072 -11.8652 124.414 -11.2793 C 125.83 -8.83789 126.611 -7.12891 126.611 -4.73633 C 126.611 -1.2207 124.414 1.66016 120.264 3.66211 C 119.287 4.10156 118.75 4.88281 118.75 5.81055 C 118.75 6.29883 118.896 6.78711 119.189 7.32422 C 120.41 9.91211 120.654 10.9863 120.654 12.6465 C 120.654 16.1621 118.066 18.9453 113.086 20.166 C 109.473 21.0938 103.613 21.5332 96.3379 21.4355 Z M 40.1367 15.0879 C 28.2227 15.0879 17.5781 1.51367 17.5781 -15.3809 C 17.5781 -32.666 27.1973 -46.0938 37.8418 -46.0938 L 45.459 -46.0938 C 39.5996 -36.5234 37.207 -27.3926 37.207 -15.5273 C 37.207 -2.97852 42.4316 7.66602 51.416 15.0879 Z"/>
  </g>
  <g id="Thin-L" transform="matrix(1 0 0 1 785.206 1556)">
   <path d="M 84.5215 25.0488 L 92.8711 25.0488 C 100.439 25.0488 106.543 24.6094 110.498 23.584 C 117.285 21.7773 121.484 17.5293 121.484 11.7188 C 121.484 9.57031 120.947 7.71484 120.02 5.95703 C 124.561 3.61328 127.295 -0.537109 127.295 -5.37109 C 127.295 -8.44727 126.514 -11.2793 125.049 -13.1836 C 128.32 -15.0391 130.371 -19.2383 130.371 -23.6816 C 130.371 -27.0508 129.248 -30.3223 127.539 -32.0801 C 129.834 -33.9844 131.152 -37.3047 131.152 -41.2109 C 131.152 -48.3398 125.586 -54.0039 118.457 -54.0039 L 96.7773 -54.0039 C 92.4316 -54.0039 89.7949 -56.1035 89.7949 -59.2285 C 89.7949 -66.9434 100.146 -82.0312 100.146 -93.4082 C 100.146 -99.9023 95.752 -104.443 89.5996 -104.443 C 85.0098 -104.443 82.1289 -102.002 78.9062 -95.7031 C 71.0449 -80.4199 65.332 -73.8281 48.4375 -51.5137 L 36.6699 -51.5137 C 22.9492 -51.5137 11.2793 -36.2305 11.2793 -16.0156 C 11.2793 3.66211 24.1699 19.1406 38.916 19.1406 L 58.4473 19.1406 C 65.8203 22.8027 74.6582 25.0488 84.5215 25.0488 Z M 92.8711 21.1914 L 84.5215 21.0938 C 58.3008 20.8496 40.1367 5.76172 40.1367 -15.8691 C 40.1367 -29.2969 43.2129 -38.0371 51.6602 -49.3164 C 60.8887 -61.6211 73.2422 -76.0254 82.373 -93.9941 C 84.9609 -99.0234 86.6699 -100.537 89.5996 -100.537 C 93.7012 -100.537 96.2891 -97.7539 96.2891 -93.4082 C 96.2891 -83.1543 85.9375 -68.1152 85.9375 -59.2285 C 85.9375 -53.7598 90.4297 -50.1465 96.9238 -50.1465 L 118.457 -50.1465 C 123.438 -50.1465 127.295 -46.1914 127.295 -41.2109 C 127.295 -38.2324 126.416 -35.9375 124.707 -34.5703 C 123.779 -33.7891 123.291 -32.9102 123.291 -32.0312 C 123.291 -31.3477 123.633 -30.6152 124.365 -29.9316 C 125.684 -28.7598 126.514 -26.3184 126.514 -23.6816 C 126.514 -20.4102 125 -17.4316 122.656 -16.0645 C 121.436 -15.2832 120.898 -14.4043 120.898 -13.3789 C 120.898 -12.7441 121.094 -12.1094 121.582 -11.4258 C 122.705 -9.76562 123.438 -7.8125 123.438 -5.37109 C 123.438 -1.70898 121.24 1.41602 117.383 3.07617 C 116.357 3.56445 115.82 4.3457 115.82 5.27344 C 115.82 5.81055 116.016 6.39648 116.357 6.98242 C 117.285 8.64258 117.578 10.0098 117.578 11.7188 C 117.578 15.625 114.746 18.6035 109.521 19.873 C 105.957 20.8008 100.195 21.2402 92.8711 21.1914 Z M 38.916 15.2832 C 26.416 15.2832 15.1367 1.5625 15.1367 -16.0156 C 15.1367 -34.082 25.3418 -47.6562 36.6699 -47.6562 L 45.7031 -47.6562 C 38.9648 -37.5 36.2793 -28.418 36.2793 -15.8691 C 36.2793 -2.83203 42.2363 8.10547 52.2949 15.2832 Z"/>
  </g>
  <g id="Ultralight-L" transform="matrix(1 0 0 1 489.936 1556)">
   <path d="M 82.8613 23.6328 L 91.0645 23.6328 C 98.6328 23.6328 104.59 23.2422 108.35 22.2168 C 114.746 20.459 118.652 16.6504 118.652 11.2305 C 118.652 8.98438 118.066 7.03125 117.041 5.22461 C 121.631 3.07617 124.414 -0.976562 124.414 -5.66406 C 124.414 -8.83789 123.584 -11.7676 121.973 -13.623 C 125.342 -15.2832 127.441 -19.4336 127.441 -23.8281 C 127.441 -27.2461 126.27 -30.5664 124.463 -32.1777 C 126.855 -33.9844 128.271 -37.2559 128.271 -41.2109 C 128.271 -47.8027 123.047 -53.0762 116.455 -53.0762 L 95.2148 -53.0762 C 90.2344 -53.0762 87.2559 -55.4688 87.2559 -59.082 C 87.2559 -66.9434 97.5098 -81.8359 97.5098 -92.9199 C 97.5098 -98.877 93.5059 -103.027 87.8906 -103.027 C 83.6426 -103.027 81.0059 -100.781 77.9785 -94.8242 C 70.0684 -79.4434 65.1367 -74.2188 47.8027 -51.0254 L 36.084 -51.0254 C 22.7539 -51.0254 11.2793 -36.2305 11.2793 -16.3574 C 11.2793 3.02734 23.9746 17.9688 38.3301 17.9688 L 57.5684 17.9688 C 64.6973 21.5332 73.2422 23.6328 82.8613 23.6328 Z M 91.0645 21.0449 L 82.8125 20.9473 C 56.6406 20.7031 38.4277 5.56641 38.4277 -16.0645 C 38.4277 -29.4922 41.5039 -38.2812 49.9023 -49.5117 C 59.082 -61.6699 71.2891 -75.9277 80.3223 -93.6523 C 82.9102 -98.7305 84.7168 -100.439 87.8906 -100.439 C 92.1875 -100.439 94.9219 -97.4609 94.9219 -92.9199 C 94.9219 -82.6172 84.668 -67.7246 84.668 -59.082 C 84.668 -53.9551 88.8184 -50.4883 95.0684 -50.4883 L 116.455 -50.4883 C 121.631 -50.4883 125.635 -46.3867 125.635 -41.2109 C 125.635 -38.2324 124.756 -35.8887 123.242 -34.7168 C 122.266 -33.8867 121.729 -32.959 121.729 -32.0801 C 121.729 -31.2988 122.07 -30.5664 122.9 -29.834 C 124.023 -29.0527 124.854 -26.5137 124.854 -23.8281 C 124.854 -20.5078 123.291 -17.4316 121.094 -16.2109 C 119.922 -15.4785 119.336 -14.6484 119.336 -13.5742 C 119.336 -12.9395 119.58 -12.2559 120.117 -11.5234 C 121.094 -10.2539 121.777 -8.1543 121.777 -5.66406 C 121.777 -1.95312 119.629 1.26953 115.918 2.7832 C 114.844 3.27148 114.307 4.10156 114.307 4.98047 C 114.307 5.56641 114.551 6.20117 114.893 6.78711 C 115.723 8.00781 116.016 9.52148 116.016 11.2305 C 116.016 15.332 113.086 18.457 107.715 19.7754 C 104.199 20.6543 98.3887 21.1426 91.0645 21.0449 Z M 38.3301 15.3809 C 25.4883 15.3809 13.916 1.5625 13.916 -16.3574 C 13.916 -34.8145 24.4141 -48.4375 36.084 -48.4375 L 45.8496 -48.4375 C 38.623 -37.9883 35.8398 -28.9062 35.8398 -16.0645 C 35.8398 -2.73438 42.0898 8.34961 52.7344 15.3809 Z"/>
  </g>
  <g id="Black-M" transform="matrix(1 0 0 1 2865.04 1126)">
   <path d="M 80.6641 23.6328 L 87.9395 23.6328 C 95.0684 23.6328 101.416 23.1934 105.42 22.2168 C 113.916 19.9707 119.531 13.4277 119.531 5.85938 C 119.531 5.0293 119.336 4.15039 119.043 3.22266 C 122.656 0.146484 124.658 -4.10156 124.658 -8.93555 C 124.658 -10.9863 124.268 -12.793 123.535 -14.3555 C 125.977 -17.0898 127.295 -20.7031 127.295 -24.7559 C 127.295 -27.3926 126.709 -29.6875 125.586 -31.6895 C 127.148 -34.2773 127.979 -37.5 127.979 -41.2598 C 127.979 -50.5859 121.338 -57.2754 112.158 -57.2754 L 92.8711 -57.2754 C 91.9434 -57.2754 91.8457 -58.1055 92.1387 -58.9844 C 94.1406 -64.7461 100.439 -75.5859 100.439 -85.3027 C 100.439 -94.3359 93.9941 -101.025 85.1562 -101.025 C 78.8086 -101.025 74.2676 -97.6562 70.3613 -90.1367 C 63.2812 -76.123 53.6621 -64.5996 45.752 -54.1992 L 35.3516 -54.1992 C 20.0684 -54.1992 8.74023 -38.3301 8.74023 -17.5781 C 8.74023 2.88086 21.0449 18.75 37.3047 18.75 L 57.1777 18.75 C 63.9648 21.7773 71.9238 23.6328 80.6641 23.6328 Z M 88.0859 10.4492 L 80.7617 10.4004 C 60.0098 10.2051 45.9473 -1.31836 45.9473 -18.0176 C 45.9473 -28.8086 48.2422 -35.4004 55.1758 -44.8242 C 63.1348 -55.3223 74.0723 -68.1152 82.0801 -84.1309 C 83.5449 -86.9629 84.375 -87.8418 85.2539 -87.8418 C 86.5723 -87.8418 87.2559 -86.9629 87.2559 -85.3027 C 87.2559 -77.4414 78.3203 -64.5508 78.3203 -55.6641 C 78.3203 -48.8281 83.7402 -44.0918 91.5039 -44.0918 L 110.889 -44.0918 C 113.037 -44.0918 114.795 -42.2852 114.795 -39.9902 C 114.795 -38.5742 113.916 -37.793 113.379 -37.2559 C 111.523 -35.4492 110.693 -33.7891 110.693 -31.9824 C 110.693 -30.2734 111.426 -28.7109 112.695 -27.4902 C 113.379 -26.7578 114.209 -26.123 114.209 -24.7559 C 114.209 -23.4375 113.135 -22.168 112.061 -21.5332 C 109.912 -20.0684 108.643 -18.0176 108.643 -15.8203 C 108.643 -14.4531 109.326 -13.0371 109.912 -11.8652 C 110.4 -10.8398 110.84 -10.1074 110.84 -8.64258 C 110.84 -6.68945 109.863 -6.10352 107.959 -5.0293 C 105.566 -3.80859 104.297 -1.80664 104.297 0.439453 C 104.297 1.66016 104.785 2.88086 105.225 3.95508 C 105.566 4.6875 105.713 5.07812 105.713 5.85938 C 105.713 7.51953 104.346 8.69141 101.562 9.375 C 98.7305 10.1562 93.9941 10.498 88.0859 10.4492 Z M 38.623 6.29883 C 28.4668 6.29883 21.1914 -3.56445 21.1914 -17.5781 C 21.1914 -31.7871 27.5879 -41.748 36.6211 -41.748 L 37.793 -41.748 C 34.2285 -34.4238 32.7148 -27.002 32.7148 -17.9688 C 32.7148 -8.64258 35.7422 -0.341797 40.9668 6.29883 Z"/>
  </g>
  <g id="Heavy-M" transform="matrix(1 0 0 1 2570.23 1126)">
   <path d="M 78.4668 21.9238 L 85.6445 21.9238 C 92.5293 21.9238 98.584 21.4844 102.49 20.5566 C 110.596 18.4082 115.869 12.3535 115.869 5.12695 C 115.869 4.19922 115.674 3.27148 115.332 2.29492 C 118.896 -0.634766 120.898 -4.78516 120.898 -9.42383 C 120.898 -11.4258 120.508 -13.2812 119.775 -14.8438 C 122.168 -17.4805 123.486 -21.0449 123.486 -25 C 123.486 -27.5391 122.9 -29.8828 121.826 -31.8359 C 123.34 -34.2773 124.17 -37.4023 124.17 -40.9668 C 124.17 -49.8047 117.773 -56.25 109.033 -56.25 L 89.9414 -56.25 C 88.916 -56.25 88.6719 -57.0312 88.916 -57.9102 C 90.4297 -63.5742 97.2168 -74.8047 97.2168 -84.5703 C 97.2168 -93.0176 91.1621 -99.3164 82.8613 -99.3164 C 76.9043 -99.3164 72.6562 -96.1426 68.9453 -88.9648 C 62.1582 -75.5371 53.125 -64.3555 44.3359 -53.0762 L 34.1797 -53.0762 C 19.6777 -53.0762 8.74023 -37.7441 8.74023 -17.9688 C 8.74023 1.5625 20.6543 16.8945 36.1328 16.8945 L 55.127 16.8945 C 61.8164 20.0195 69.7754 21.9238 78.4668 21.9238 Z M 85.7422 10.1074 L 78.5645 10.0586 C 57.9102 9.86328 43.8477 -1.70898 43.8477 -18.3594 C 43.8477 -29.1016 46.1426 -35.7422 53.0273 -45.0195 C 60.8398 -55.3711 71.6309 -67.9199 79.4434 -83.5449 C 81.0547 -86.6699 81.8848 -87.5 82.959 -87.5 C 84.5215 -87.5 85.4004 -86.4746 85.4004 -84.5703 C 85.4004 -76.6602 76.6113 -63.9648 76.6113 -55.3711 C 76.6113 -48.877 81.8359 -44.4336 89.1602 -44.4336 L 108.057 -44.4336 C 110.449 -44.4336 112.354 -42.4805 112.354 -39.9902 C 112.354 -38.3789 111.475 -37.4023 110.645 -36.5723 C 109.131 -35.0098 108.447 -33.6426 108.447 -32.1777 C 108.447 -30.7617 108.984 -29.4434 110.059 -28.418 C 110.986 -27.2949 111.768 -26.5137 111.768 -25 C 111.768 -23.4375 110.693 -22.0215 109.326 -21.1426 C 107.471 -19.8242 106.396 -18.0664 106.396 -16.2109 C 106.396 -15.0879 106.934 -13.9648 107.422 -12.9395 C 108.105 -11.5234 108.594 -10.7422 108.594 -9.22852 C 108.594 -7.08008 107.422 -6.15234 105.176 -4.93164 C 103.174 -3.85742 102.1 -2.24609 102.1 -0.341797 C 102.1 0.683594 102.49 1.66016 102.881 2.58789 C 103.418 3.85742 103.564 4.24805 103.564 5.12695 C 103.564 6.98242 102.1 8.30078 99.1211 9.0332 C 96.2891 9.81445 91.6016 10.1562 85.7422 10.1074 Z M 37.1094 5.66406 C 27.3438 5.66406 19.9707 -4.3457 19.9707 -17.9688 C 19.9707 -31.7871 26.4648 -41.8457 35.1562 -41.8457 L 37.1094 -41.8457 C 33.5449 -34.6191 32.0312 -27.2949 32.0312 -18.3594 C 32.0312 -9.08203 35.1074 -0.878906 40.4785 5.66406 Z"/>
  </g>
  <g id="Bold-M" transform="matrix(1 0 0 1 2275.67 1126)">
   <path d="M 76.0254 19.9707 L 83.0566 19.9707 C 89.6973 19.9707 95.459 19.5801 99.2188 18.6523 C 106.836 16.6992 111.768 11.1328 111.768 4.3457 C 111.768 3.27148 111.572 2.29492 111.23 1.2207 C 114.746 -1.51367 116.699 -5.51758 116.699 -9.96094 C 116.699 -11.9629 116.309 -13.8672 115.576 -15.4297 C 117.92 -17.9688 119.238 -21.4844 119.238 -25.2441 C 119.238 -27.7344 118.652 -30.0781 117.578 -31.9824 C 119.092 -34.2773 119.873 -37.2559 119.873 -40.5762 C 119.873 -48.9258 113.721 -55.127 105.518 -55.127 L 86.6211 -55.127 C 85.5469 -55.127 85.1074 -55.8105 85.3027 -56.7383 C 86.2793 -62.2559 93.6035 -73.877 93.6035 -83.6914 C 93.6035 -91.6016 87.9883 -97.3633 80.3223 -97.3633 C 74.8047 -97.3633 70.8984 -94.4336 67.3828 -87.6465 C 60.8887 -74.9512 52.5391 -64.1113 42.7734 -51.8066 L 32.9102 -51.8066 C 19.2383 -51.8066 8.74023 -37.1094 8.74023 -18.3594 C 8.74023 0.0488281 20.2148 14.8438 34.8145 14.8438 L 52.832 14.8438 C 59.4238 18.0664 67.334 19.9707 76.0254 19.9707 Z M 83.1543 9.7168 L 76.123 9.66797 C 55.5176 9.47266 41.5039 -2.09961 41.5039 -18.75 C 41.5039 -29.3945 43.8477 -36.084 50.6348 -45.2148 C 58.3008 -55.3711 68.8477 -67.6758 76.5137 -82.959 C 78.2227 -86.3281 79.1504 -87.1094 80.4199 -87.1094 C 82.2754 -87.1094 83.3008 -85.8887 83.3008 -83.6914 C 83.3008 -75.8301 74.707 -63.3789 74.707 -55.0781 C 74.707 -48.9258 79.6875 -44.8242 86.4746 -44.8242 L 104.883 -44.8242 C 107.568 -44.8242 109.619 -42.7246 109.619 -39.9414 C 109.619 -38.0859 108.789 -36.9629 107.568 -35.7422 C 106.396 -34.5703 105.859 -33.4961 105.859 -32.373 C 105.859 -31.2988 106.299 -30.2734 107.08 -29.4922 C 108.252 -27.9297 109.033 -26.9043 109.033 -25.2441 C 109.033 -23.4375 107.959 -21.8262 106.25 -20.6543 C 104.736 -19.5801 103.857 -18.1641 103.857 -16.6504 C 103.857 -15.8203 104.248 -14.9414 104.639 -14.1602 C 105.566 -12.3535 106.104 -11.4258 106.104 -9.81445 C 106.104 -7.51953 104.736 -6.25 102.051 -4.78516 C 100.488 -3.95508 99.6582 -2.68555 99.6582 -1.17188 C 99.6582 -0.439453 99.9512 0.292969 100.244 1.02539 C 101.025 2.88086 101.172 3.32031 101.172 4.3457 C 101.172 6.34766 99.6094 7.91016 96.4355 8.69141 C 93.5547 9.42383 88.916 9.76562 83.1543 9.7168 Z M 35.4492 4.93164 C 26.0742 4.93164 18.6523 -5.17578 18.6523 -18.3594 C 18.6523 -31.7871 25.2441 -41.9434 33.5449 -41.9434 L 36.377 -41.9434 C 32.7637 -34.8633 31.25 -27.5391 31.25 -18.75 C 31.25 -9.52148 34.375 -1.41602 39.9414 4.93164 Z"/>
  </g>
  <g id="Semibold-M" transform="matrix(1 0 0 1 1980.42 1126)">
   <path d="M 74.3652 18.6523 L 81.2988 18.6523 C 87.6953 18.6523 93.3105 18.2617 96.9727 17.3828 C 104.297 15.5273 108.936 10.2539 108.936 3.75977 C 108.936 2.63672 108.74 1.61133 108.398 0.537109 C 111.816 -2.14844 113.77 -6.00586 113.77 -10.3027 C 113.77 -12.3535 113.428 -14.2578 112.646 -15.8691 C 114.99 -18.3105 116.309 -21.7285 116.309 -25.4395 C 116.309 -27.8809 115.723 -30.2246 114.648 -32.0801 C 116.113 -34.2773 116.943 -37.1582 116.943 -40.332 C 116.943 -48.291 110.938 -54.3457 103.076 -54.3457 L 84.375 -54.3457 C 83.252 -54.3457 82.666 -54.9805 82.8125 -55.9082 C 83.3984 -61.377 91.1133 -73.291 91.1133 -83.1055 C 91.1133 -90.5762 85.8398 -96.0449 78.6133 -96.0449 C 73.3398 -96.0449 69.6777 -93.2617 66.3086 -86.7676 C 59.9609 -74.5117 52.0996 -63.9648 41.6992 -50.9766 L 32.0312 -50.9766 C 18.9453 -50.9766 8.74023 -36.6211 8.74023 -18.6523 C 8.74023 -0.976562 19.9219 13.4277 33.9355 13.4277 L 51.2207 13.4277 C 57.7637 16.6992 65.625 18.6523 74.3652 18.6523 Z M 81.3477 9.42383 L 74.4141 9.375 C 53.8574 9.17969 39.8926 -2.34375 39.8926 -18.9941 C 39.8926 -29.5898 42.2852 -36.3281 48.9746 -45.3613 C 56.543 -55.3711 66.9434 -67.4805 74.5117 -82.5195 C 76.3184 -86.084 77.2461 -86.8164 78.6133 -86.8164 C 80.7129 -86.8164 81.8848 -85.498 81.8848 -83.1055 C 81.8848 -75.1953 73.3398 -62.9395 73.3398 -54.8828 C 73.3398 -48.9258 78.2227 -45.1172 84.668 -45.1172 L 102.686 -45.1172 C 105.566 -45.1172 107.715 -42.8711 107.715 -39.9414 C 107.715 -37.9395 106.934 -36.6211 105.469 -35.2051 C 104.541 -34.2773 104.102 -33.4473 104.102 -32.4707 C 104.102 -31.6406 104.443 -30.8594 105.078 -30.2246 C 106.396 -28.3691 107.129 -27.1973 107.129 -25.4395 C 107.129 -23.4375 106.055 -21.6797 104.15 -20.3613 C 102.832 -19.3848 102.1 -18.2129 102.1 -16.9922 C 102.1 -16.3086 102.393 -15.625 102.686 -15.0391 C 103.809 -12.8906 104.346 -11.9141 104.346 -10.2539 C 104.346 -7.8125 102.881 -6.29883 99.9023 -4.6875 C 98.6328 -4.05273 97.9492 -3.02734 97.9492 -1.80664 C 97.9492 -1.2207 98.1934 -0.634766 98.4375 -0.0488281 C 99.3652 2.19727 99.5117 2.68555 99.5117 3.75977 C 99.5117 5.95703 97.8516 7.56836 94.5312 8.39844 C 91.6992 9.17969 87.0605 9.52148 81.3477 9.42383 Z M 34.3262 4.44336 C 25.1953 4.44336 17.7246 -5.81055 17.7246 -18.6523 C 17.7246 -31.7871 24.4141 -41.9922 32.4219 -41.9922 L 35.8887 -41.9922 C 32.2266 -35.0098 30.7129 -27.7344 30.7129 -19.043 C 30.7129 -9.86328 33.8867 -1.80664 39.5996 4.44336 Z"/>
  </g>
  <g id="Medium-M" transform="matrix(1 0 0 1 1684.84 1126)">
   <path d="M 73.0957 17.6758 L 79.9316 17.6758 C 86.2305 17.6758 91.6992 17.2852 95.2637 16.4062 C 102.344 14.6484 106.787 9.61914 106.787 3.36914 C 106.787 2.19727 106.592 1.07422 106.25 0 C 109.668 -2.58789 111.572 -6.39648 111.572 -10.5957 C 111.572 -12.5977 111.182 -14.5508 110.449 -16.1621 C 112.744 -18.5547 114.062 -21.9727 114.062 -25.5859 C 114.062 -27.9785 113.477 -30.3711 112.451 -32.1777 C 113.916 -34.2773 114.697 -37.0605 114.697 -40.1855 C 114.697 -47.8516 108.838 -53.7598 101.27 -53.7598 L 82.6172 -53.7598 C 81.4941 -53.7598 80.8594 -54.3457 80.9082 -55.3223 C 81.25 -60.6934 89.209 -72.8027 89.209 -82.666 C 89.209 -89.8438 84.1797 -95.0195 77.2949 -95.0195 C 72.2168 -95.0195 68.75 -92.3828 65.4785 -86.084 C 59.3262 -74.1699 51.8066 -63.8184 40.8691 -50.293 L 31.3477 -50.293 C 18.75 -50.293 8.74023 -36.2793 8.74023 -18.8965 C 8.74023 -1.75781 19.6777 12.3535 33.2031 12.3535 L 50.0488 12.3535 C 56.543 15.6738 64.3555 17.6758 73.0957 17.6758 Z M 79.9805 9.22852 L 73.1445 9.17969 C 52.6367 8.98438 38.7207 -2.58789 38.7207 -19.1895 C 38.7207 -29.7852 41.0645 -36.4746 47.7539 -45.459 C 55.2246 -55.4199 65.5273 -67.334 72.9492 -82.2266 C 74.8535 -85.8887 75.8301 -86.6211 77.2949 -86.6211 C 79.4922 -86.6211 80.8105 -85.2051 80.8105 -82.666 C 80.8105 -74.7559 72.3633 -62.5977 72.3633 -54.6875 C 72.3633 -48.9746 77.0996 -45.3125 83.252 -45.3125 L 101.025 -45.3125 C 104.053 -45.3125 106.299 -43.0176 106.299 -39.9414 C 106.299 -37.793 105.518 -36.4258 103.857 -34.7656 C 103.125 -34.0332 102.783 -33.3496 102.783 -32.5684 C 102.783 -31.9336 103.027 -31.2988 103.516 -30.7617 C 104.98 -28.7109 105.664 -27.3926 105.664 -25.5859 C 105.664 -23.4375 104.59 -21.582 102.588 -20.1172 C 101.416 -19.2871 100.781 -18.2617 100.781 -17.1875 C 100.781 -16.6992 100.977 -16.1621 101.221 -15.6738 C 102.49 -13.2812 103.027 -12.3047 103.027 -10.5469 C 103.027 -8.05664 101.514 -6.29883 98.291 -4.63867 C 97.2656 -4.10156 96.6797 -3.27148 96.6797 -2.24609 C 96.6797 -1.80664 96.8262 -1.31836 97.0215 -0.878906 C 98.0957 1.70898 98.2422 2.19727 98.2422 3.36914 C 98.2422 5.61523 96.582 7.37305 93.1152 8.20312 C 90.2344 8.98438 85.6445 9.27734 79.9805 9.22852 Z M 33.4473 4.05273 C 24.5605 4.05273 17.041 -6.25 17.041 -18.8965 C 17.041 -31.7871 23.7793 -42.041 31.5918 -42.041 L 35.498 -42.041 C 31.8359 -35.1074 30.2734 -27.9297 30.2734 -19.2871 C 30.2734 -10.1074 33.5449 -2.09961 39.3066 4.05273 Z"/>
  </g>
  <g id="Regular-M" transform="matrix(1 0 0 1 1389.57 1126)">
   <path d="M 71.4355 16.3574 L 78.1738 16.3574 C 84.2773 16.3574 89.5508 15.9668 93.0176 15.1367 C 99.8047 13.4766 104.004 8.78906 104.004 2.7832 C 104.004 1.5625 103.809 0.390625 103.418 -0.732422 C 106.787 -3.17383 108.691 -6.93359 108.691 -10.9863 C 108.691 -12.9883 108.35 -14.9414 107.568 -16.5527 C 109.863 -18.8477 111.182 -22.2168 111.182 -25.7812 C 111.182 -28.0762 110.596 -30.5176 109.57 -32.2754 C 110.986 -34.2773 111.816 -36.9629 111.816 -39.9414 C 111.816 -47.2168 106.104 -52.9785 98.877 -52.9785 L 80.3711 -52.9785 C 79.1992 -52.9785 78.418 -53.5156 78.418 -54.4922 C 78.418 -59.8145 86.7676 -72.168 86.7676 -82.0801 C 86.7676 -88.8184 82.0312 -93.7012 75.5371 -93.7012 C 70.752 -93.7012 67.5781 -91.2109 64.4043 -85.1562 C 58.4473 -73.7305 51.3672 -63.623 39.7949 -49.4629 L 30.4688 -49.4629 C 18.457 -49.4629 8.74023 -35.8398 8.74023 -19.1895 C 8.74023 -2.73438 19.3848 10.9375 32.3242 10.9375 L 48.4863 10.9375 C 54.8828 14.3066 62.6953 16.3574 71.4355 16.3574 Z M 78.2227 8.98438 L 71.4844 8.88672 C 51.0254 8.74023 37.1094 -2.83203 37.1094 -19.4336 C 37.1094 -29.9805 39.502 -36.7188 46.1426 -45.6055 C 53.4668 -55.4199 63.623 -67.1875 70.9961 -81.7871 C 72.9004 -85.6934 73.9746 -86.3281 75.5371 -86.3281 C 77.9297 -86.3281 79.3945 -84.8145 79.3945 -82.0801 C 79.3945 -74.1699 71.0449 -62.1582 71.0449 -54.4922 C 71.0449 -48.9746 75.6348 -45.6055 81.4453 -45.6055 L 98.877 -45.6055 C 102.051 -45.6055 104.443 -43.1641 104.443 -39.9414 C 104.443 -37.5977 103.711 -36.084 101.758 -34.2285 C 101.27 -33.7402 101.025 -33.252 101.025 -32.7148 C 101.025 -32.3242 101.172 -31.8848 101.514 -31.4941 C 103.125 -29.1504 103.809 -27.6855 103.809 -25.7812 C 103.809 -23.4375 102.734 -21.4844 100.488 -19.7754 C 99.5605 -19.0918 99.0723 -18.3105 99.0723 -17.4805 C 99.0723 -17.1875 99.1699 -16.8457 99.3164 -16.5039 C 100.732 -13.8184 101.318 -12.7441 101.318 -10.9863 C 101.318 -8.34961 99.6582 -6.34766 96.1426 -4.54102 C 95.4102 -4.15039 94.9707 -3.56445 94.9707 -2.83203 C 94.9707 -2.53906 95.0684 -2.24609 95.2148 -1.9043 C 96.4355 1.07422 96.6309 1.5625 96.6309 2.7832 C 96.6309 5.17578 94.873 7.08008 91.2598 7.95898 C 88.3789 8.69141 83.7891 9.0332 78.2227 8.98438 Z M 32.3242 3.56445 C 23.6816 3.56445 16.1133 -6.83594 16.1133 -19.1895 C 16.1133 -31.7871 22.9492 -42.0898 30.4688 -42.0898 L 35.0098 -42.0898 C 31.3477 -35.2539 29.7363 -28.0762 29.7363 -19.5801 C 29.7363 -10.4004 33.0566 -2.49023 38.9648 3.56445 Z"/>
  </g>
  <g id="Light-M" transform="matrix(1 0 0 1 1094.78 1126)">
   <path d="M 69.1895 14.502 L 75.8301 14.502 C 81.8359 14.502 86.9141 14.1602 90.2344 13.3301 C 96.4355 11.7676 100.244 7.61719 100.244 2.19727 C 100.244 0.78125 100 -0.488281 99.5117 -1.70898 C 102.93 -3.90625 104.883 -7.4707 104.883 -11.377 C 104.883 -13.5254 104.443 -15.5762 103.564 -17.1387 C 105.908 -19.1406 107.324 -22.4609 107.324 -25.9766 C 107.324 -28.3691 106.641 -30.8594 105.518 -32.4707 C 107.08 -34.2773 107.959 -36.9141 107.959 -39.8926 C 107.959 -46.5332 102.783 -51.7578 96.1914 -51.7578 L 78.3203 -51.7578 C 76.3184 -51.7578 75.0977 -52.6855 75.0977 -54.248 C 75.0977 -59.8145 83.3008 -71.9238 83.3008 -81.4453 C 83.3008 -87.5 79.0527 -91.8945 73.2422 -91.8945 C 68.8965 -91.8945 66.0645 -89.5996 63.1836 -84.0332 C 57.1777 -72.4121 51.123 -64.209 38.916 -48.877 L 29.6875 -48.877 C 18.2129 -48.877 8.74023 -35.8887 8.74023 -19.6289 C 8.74023 -3.61328 19.1406 9.375 31.4941 9.375 L 47.2656 9.375 C 53.418 12.5977 60.8887 14.502 69.1895 14.502 Z M 75.8789 8.78906 L 69.2383 8.74023 C 48.7793 8.54492 34.8633 -3.07617 34.8633 -19.7266 C 34.8633 -30.2246 37.207 -37.0117 43.7988 -45.8008 C 51.0742 -55.5176 61.0352 -67.041 68.2617 -81.3965 C 70.2637 -85.3027 71.3867 -86.1816 73.2422 -86.1816 C 75.9277 -86.1816 77.5879 -84.4238 77.5879 -81.4453 C 77.5879 -73.4863 69.3848 -61.6211 69.3848 -54.248 C 69.3848 -49.2188 73.5352 -46.0449 79.0527 -46.0449 L 96.1914 -46.0449 C 99.6582 -46.0449 102.246 -43.3594 102.246 -39.8926 C 102.246 -37.5977 101.514 -35.9863 99.8047 -34.4238 C 99.2188 -33.8867 98.9746 -33.3008 98.9746 -32.7148 C 98.9746 -32.2754 99.1699 -31.7871 99.5605 -31.3477 C 100.977 -29.541 101.611 -27.9297 101.611 -25.9766 C 101.611 -23.584 100.488 -21.4355 98.4375 -20.0195 C 97.5098 -19.3359 97.0215 -18.6035 97.0215 -17.7734 C 97.0215 -17.4316 97.168 -17.041 97.4121 -16.6016 C 98.584 -14.4531 99.1699 -13.2324 99.1699 -11.377 C 99.1699 -8.69141 97.5098 -6.54297 94.1895 -4.93164 C 93.457 -4.54102 93.0176 -3.95508 93.0176 -3.22266 C 93.0176 -2.88086 93.1152 -2.53906 93.3105 -2.14844 C 94.3359 0.195312 94.5312 0.878906 94.5312 2.19727 C 94.5312 4.78516 92.627 6.83594 88.8672 7.76367 C 86.0352 8.49609 81.4453 8.83789 75.8789 8.78906 Z M 31.4941 3.66211 C 22.4609 3.66211 14.4531 -6.78711 14.4531 -19.6289 C 14.4531 -32.7637 21.6797 -43.1641 29.6875 -43.1641 L 35.1562 -43.1641 C 30.9082 -35.8887 29.1504 -28.8086 29.1504 -19.8242 C 29.1504 -10.3027 32.9102 -2.14844 39.5508 3.66211 Z"/>
  </g>
  <g id="Thin-M" transform="matrix(1 0 0 1 800.612 1126)">
   <path d="M 66.2109 12.0605 L 72.7051 12.0605 C 78.6133 12.0605 83.4473 11.7676 86.5234 10.9375 C 91.9922 9.47266 95.3125 6.05469 95.3125 1.31836 C 95.3125 -0.244141 94.9219 -1.66016 94.2871 -2.97852 C 97.8027 -4.88281 99.8535 -8.20312 99.8535 -11.9629 C 99.8535 -14.2578 99.2676 -16.4551 98.1934 -17.9199 C 100.684 -19.4824 102.246 -22.7539 102.246 -26.2207 C 102.246 -28.7598 101.416 -31.2988 100.146 -32.7148 C 101.855 -34.2773 102.881 -36.8652 102.881 -39.8926 C 102.881 -45.6055 98.3887 -50.1465 92.6758 -50.1465 L 75.6348 -50.1465 C 72.5586 -50.1465 70.6543 -51.6602 70.6543 -53.9062 C 70.6543 -59.8145 78.7109 -71.582 78.7109 -80.5664 C 78.7109 -85.7422 75.1465 -89.4531 70.2148 -89.4531 C 66.4551 -89.4531 64.1113 -87.5 61.5234 -82.4707 C 55.4688 -70.6543 50.7324 -64.9414 37.793 -48.0469 L 28.6621 -48.0469 C 17.8711 -48.0469 8.74023 -35.9863 8.74023 -20.2148 C 8.74023 -4.78516 18.7988 7.37305 30.4199 7.37305 L 45.7031 7.37305 C 51.4648 10.3027 58.4473 12.0605 66.2109 12.0605 Z M 72.7051 8.54492 L 66.2109 8.49609 C 45.8984 8.30078 31.8359 -3.36914 31.8359 -20.1172 C 31.8359 -30.5664 34.2285 -37.3535 40.7715 -46.0938 C 47.9492 -55.6641 57.6172 -66.8945 64.6973 -80.8594 C 66.6992 -84.8145 67.9688 -85.9375 70.2148 -85.9375 C 73.2422 -85.9375 75.1953 -83.8379 75.1953 -80.5664 C 75.1953 -72.5586 67.1387 -60.8887 67.1387 -53.9062 C 67.1387 -49.5117 70.752 -46.6309 75.8789 -46.6309 L 92.6758 -46.6309 C 96.4355 -46.6309 99.3652 -43.6523 99.3652 -39.8926 C 99.3652 -37.5977 98.6328 -35.8398 97.2656 -34.668 C 96.582 -34.0332 96.2402 -33.3984 96.2402 -32.7637 C 96.2402 -32.2266 96.4355 -31.6895 97.0215 -31.1523 C 98.0957 -30.0781 98.7305 -28.2715 98.7305 -26.2207 C 98.7305 -23.7305 97.5586 -21.4355 95.7031 -20.3125 C 94.7754 -19.6777 94.3359 -18.9941 94.3359 -18.1641 C 94.3359 -17.7246 94.4824 -17.2363 94.8242 -16.748 C 95.752 -15.2832 96.3379 -13.8672 96.3379 -11.9629 C 96.3379 -9.13086 94.6777 -6.78711 91.6016 -5.41992 C 90.8203 -5.0293 90.3809 -4.44336 90.3809 -3.75977 C 90.3809 -3.32031 90.5273 -2.88086 90.7715 -2.44141 C 91.5527 -0.927734 91.7969 0.0488281 91.7969 1.31836 C 91.7969 4.29688 89.6484 6.5918 85.6445 7.56836 C 82.8613 8.25195 78.3691 8.59375 72.7051 8.54492 Z M 30.4199 3.85742 C 20.8496 3.85742 12.2559 -6.73828 12.2559 -20.2148 C 12.2559 -34.0332 20.0684 -44.5312 28.6621 -44.5312 L 35.3516 -44.5312 C 30.3223 -36.7676 28.3203 -29.7363 28.3203 -20.166 C 28.3203 -10.1562 32.7637 -1.75781 40.332 3.85742 Z"/>
  </g>
  <g id="Ultralight-M" transform="matrix(1 0 0 1 505.195 1126)">
   <path d="M 64.6973 10.8398 L 71.1426 10.8398 C 76.9531 10.8398 81.6406 10.498 84.6191 9.7168 C 89.6973 8.34961 92.7734 5.22461 92.7734 0.927734 C 92.7734 -0.78125 92.334 -2.29492 91.6016 -3.66211 C 95.166 -5.37109 97.2656 -8.54492 97.2656 -12.207 C 97.2656 -14.6484 96.6309 -16.8945 95.459 -18.3594 C 97.998 -19.6777 99.6582 -22.9492 99.6582 -26.3672 C 99.6582 -29.0039 98.7793 -31.543 97.4121 -32.8613 C 99.2188 -34.2773 100.293 -36.8164 100.293 -39.8926 C 100.293 -45.1172 96.1426 -49.3652 90.8691 -49.3652 L 74.2676 -49.3652 C 70.6055 -49.3652 68.4082 -51.123 68.4082 -53.7598 C 68.4082 -59.8145 76.3672 -71.3867 76.3672 -80.0781 C 76.3672 -84.8633 73.1445 -88.1836 68.6523 -88.1836 C 65.2344 -88.1836 63.1348 -86.4258 60.6934 -81.6895 C 54.5898 -69.7754 50.5371 -65.332 37.2559 -47.6074 L 28.125 -47.6074 C 17.7246 -47.6074 8.74023 -36.0352 8.74023 -20.5078 C 8.74023 -5.37109 18.6523 6.34766 29.8828 6.34766 L 44.873 6.34766 C 50.4883 9.13086 57.1777 10.8398 64.6973 10.8398 Z M 71.1426 8.39844 L 64.6973 8.34961 C 44.3848 8.1543 30.3223 -3.56445 30.3223 -20.3125 C 30.3223 -30.7129 32.666 -37.5 39.209 -46.2402 C 46.3379 -55.7129 55.8594 -66.7969 62.8906 -80.6152 C 64.8926 -84.5215 66.2598 -85.791 68.6523 -85.791 C 71.875 -85.791 73.9746 -83.5449 73.9746 -80.0781 C 73.9746 -72.1191 65.9668 -60.5469 65.9668 -53.7598 C 65.9668 -49.6582 69.3359 -46.9238 74.2188 -46.9238 L 90.8691 -46.9238 C 94.8242 -46.9238 97.8516 -43.7988 97.8516 -39.8926 C 97.8516 -37.5488 97.168 -35.7422 95.9473 -34.7656 C 95.2148 -34.1309 94.8242 -33.4473 94.8242 -32.7637 C 94.8242 -32.2266 95.0684 -31.6406 95.7031 -31.0547 C 96.6309 -30.3711 97.2656 -28.418 97.2656 -26.3672 C 97.2656 -23.7793 96.0449 -21.4355 94.3359 -20.459 C 93.4082 -19.873 92.9688 -19.1895 92.9688 -18.4082 C 92.9688 -17.8711 93.1641 -17.3828 93.5059 -16.7969 C 94.3359 -15.7227 94.873 -14.1602 94.873 -12.207 C 94.873 -9.375 93.2129 -6.93359 90.2832 -5.66406 C 89.4531 -5.32227 89.0137 -4.6875 89.0137 -4.00391 C 89.0137 -3.56445 89.209 -3.07617 89.4531 -2.63672 C 90.1367 -1.51367 90.3809 -0.390625 90.3809 0.927734 C 90.3809 4.05273 88.1348 6.44531 84.0332 7.42188 C 81.2988 8.10547 76.8066 8.49609 71.1426 8.39844 Z M 29.8828 3.95508 C 20.0195 3.95508 11.1328 -6.73828 11.1328 -20.5078 C 11.1328 -34.668 19.1895 -45.2148 28.125 -45.2148 L 35.498 -45.2148 C 30.0293 -37.207 27.8809 -30.1758 27.8809 -20.3125 C 27.8809 -10.0586 32.666 -1.51367 40.7227 3.95508 Z"/>
  </g>
  <g id="Black-S" transform="matrix(1 0 0 1 2879.98 696)">
   <path d="M 63.0371 10.791 L 68.75 10.791 C 74.3164 10.791 79.248 10.4492 82.373 9.66797 C 89.0137 7.91016 93.4082 2.83203 93.4082 -3.07617 C 93.4082 -3.75977 93.2617 -4.44336 93.0176 -5.17578 C 95.8496 -7.56836 97.4121 -10.8887 97.4121 -14.6484 C 97.4121 -16.2598 97.1191 -17.6758 96.5332 -18.8965 C 98.4375 -21.0449 99.4629 -23.877 99.4629 -27.0508 C 99.4629 -29.1016 99.0234 -30.9082 98.1445 -32.4707 C 99.3652 -34.4727 100 -37.0117 100 -39.9414 C 100 -47.2168 94.8242 -52.4414 87.6465 -52.4414 L 72.5586 -52.4414 C 71.8262 -52.4414 71.7285 -53.0762 71.9727 -53.7598 C 73.4863 -58.252 78.4668 -66.7969 78.4668 -74.4141 C 78.4668 -81.4453 73.4375 -86.6699 66.5527 -86.6699 C 61.6211 -86.6699 58.0566 -84.0332 55.0293 -78.1738 C 49.5117 -67.2363 41.9922 -58.2031 35.7422 -50 L 27.5879 -50 C 15.6738 -50 6.83594 -37.5977 6.83594 -21.4355 C 6.83594 -5.46875 16.4551 6.93359 29.1504 6.93359 L 44.6289 6.93359 C 49.9512 9.32617 56.2012 10.791 63.0371 10.791 Z M 68.8477 0.537109 L 63.1348 0.488281 C 46.875 0.341797 35.8398 -8.69141 35.8398 -21.7773 C 35.8398 -30.2246 37.6465 -35.4004 43.0664 -42.7734 C 49.3164 -50.9766 57.8613 -60.9863 64.1113 -73.4863 C 65.2832 -75.7324 65.918 -76.416 66.6504 -76.416 C 67.6758 -76.416 68.2129 -75.7324 68.2129 -74.4141 C 68.2129 -68.2617 61.2305 -58.1543 61.2305 -51.2207 C 61.2305 -45.8984 65.4785 -42.1875 71.5332 -42.1875 L 86.6699 -42.1875 C 88.3789 -42.1875 89.7461 -40.7715 89.7461 -38.9648 C 89.7461 -37.8418 89.0625 -37.207 88.623 -36.7676 C 87.207 -35.3516 86.5723 -34.082 86.5723 -32.7148 C 86.5723 -31.3965 87.1094 -30.1758 88.0859 -29.248 C 88.6719 -28.6133 89.3066 -28.125 89.3066 -27.0508 C 89.3066 -25.9766 88.4766 -25 87.5977 -24.4629 C 85.9375 -23.3398 84.9609 -21.7285 84.9609 -20.0684 C 84.9609 -18.9941 85.498 -17.9199 85.9375 -16.9922 C 86.3281 -16.1621 86.6699 -15.5762 86.6699 -14.4531 C 86.6699 -12.8906 85.8887 -12.4023 84.375 -11.5723 C 82.5195 -10.5957 81.543 -9.08203 81.543 -7.32422 C 81.543 -6.39648 81.9336 -5.46875 82.2754 -4.63867 C 82.5684 -4.00391 82.666 -3.71094 82.666 -3.07617 C 82.666 -1.75781 81.5918 -0.830078 79.3945 -0.292969 C 77.1973 0.292969 73.4863 0.585938 68.8477 0.537109 Z M 30.127 -2.73438 C 22.2168 -2.73438 16.5039 -10.498 16.5039 -21.4355 C 16.5039 -32.5195 21.5332 -40.332 28.5645 -40.332 L 29.541 -40.332 C 26.7578 -34.6191 25.5859 -28.8086 25.5859 -21.7285 C 25.5859 -14.4531 27.9297 -7.95898 32.0312 -2.73438 Z"/>
  </g>
  <g id="Heavy-S" transform="matrix(1 0 0 1 2584.52 696)">
   <path d="M 61.6211 9.66797 L 67.2363 9.66797 C 72.6562 9.66797 77.3926 9.32617 80.4688 8.59375 C 86.8164 6.93359 91.0156 2.09961 91.0156 -3.56445 C 91.0156 -4.29688 90.8691 -5.0293 90.625 -5.76172 C 93.4082 -8.10547 94.9707 -11.3281 94.9707 -14.9902 C 94.9707 -16.5527 94.6777 -17.9688 94.0918 -19.2383 C 95.9473 -21.3379 96.9727 -24.1211 96.9727 -27.1973 C 96.9727 -29.1992 96.5332 -31.0059 95.7031 -32.5684 C 96.875 -34.4727 97.5098 -36.9141 97.5098 -39.6973 C 97.5098 -46.6797 92.4316 -51.8066 85.5469 -51.8066 L 70.5078 -51.8066 C 69.8242 -51.8066 69.6777 -52.3438 69.873 -52.9785 C 71.0449 -57.373 76.3672 -66.2109 76.3672 -73.9258 C 76.3672 -80.6152 71.6309 -85.5469 65.0879 -85.5469 C 60.3516 -85.5469 57.0312 -83.0566 54.1016 -77.3926 C 48.7793 -66.9434 41.6016 -57.959 34.7656 -49.2188 L 26.8066 -49.2188 C 15.4297 -49.2188 6.83594 -37.1582 6.83594 -21.6797 C 6.83594 -6.39648 16.1621 5.71289 28.3203 5.71289 L 43.2129 5.71289 C 48.4863 8.1543 54.7363 9.66797 61.6211 9.66797 Z M 67.334 0.292969 L 61.7188 0.244141 C 45.5078 0.0976562 34.5215 -8.93555 34.5215 -21.9727 C 34.5215 -30.4199 36.3281 -35.5957 41.6992 -42.8711 C 47.8516 -50.9766 56.25 -60.8398 62.4023 -73.0957 C 63.6719 -75.5371 64.3066 -76.1719 65.1367 -76.1719 C 66.3574 -76.1719 66.9922 -75.3906 66.9922 -73.9258 C 66.9922 -67.7246 60.1074 -57.8125 60.1074 -51.0254 C 60.1074 -45.8984 64.2578 -42.4316 69.9707 -42.4316 L 84.8145 -42.4316 C 86.6699 -42.4316 88.1348 -40.918 88.1348 -38.9648 C 88.1348 -37.6465 87.4512 -36.9141 86.7188 -36.1816 C 85.5957 -35.0098 85.0586 -33.9844 85.0586 -32.8613 C 85.0586 -31.7871 85.498 -30.7617 86.2793 -29.9805 C 87.0605 -29.0039 87.6953 -28.3691 87.6953 -27.1973 C 87.6953 -25.9766 86.8164 -24.8535 85.7422 -24.1211 C 84.2773 -23.1445 83.4473 -21.7285 83.4473 -20.3125 C 83.4473 -19.4824 83.8867 -18.6035 84.2285 -17.8223 C 84.8145 -16.6504 85.2051 -16.0156 85.2051 -14.8438 C 85.2051 -13.1348 84.2773 -12.4512 82.4707 -11.4258 C 80.9082 -10.6445 80.0781 -9.375 80.0781 -7.86133 C 80.0781 -7.12891 80.4199 -6.34766 80.6641 -5.66406 C 81.1523 -4.58984 81.25 -4.29688 81.25 -3.56445 C 81.25 -2.14844 80.127 -1.12305 77.832 -0.537109 C 75.5859 0.0488281 71.9238 0.341797 67.334 0.292969 Z M 29.1016 -3.27148 C 21.4844 -3.27148 15.7715 -11.084 15.7715 -21.6797 C 15.7715 -32.4219 20.8496 -40.2832 27.5391 -40.2832 L 29.0039 -40.2832 C 26.2695 -34.668 25.0977 -28.9062 25.0977 -21.9727 C 25.0977 -14.7949 27.4414 -8.34961 31.5918 -3.27148 Z"/>
  </g>
  <g id="Bold-S" transform="matrix(1 0 0 1 2289.2 696)">
   <path d="M 60.0098 8.44727 L 65.5762 8.44727 C 70.752 8.44727 75.3418 8.10547 78.3203 7.37305 C 84.4238 5.81055 88.3301 1.31836 88.3301 -4.10156 C 88.3301 -4.88281 88.1836 -5.66406 87.9883 -6.44531 C 90.6738 -8.69141 92.1875 -11.8164 92.1875 -15.332 C 92.1875 -16.8945 91.9434 -18.3594 91.4062 -19.5801 C 93.2129 -21.6309 94.1895 -24.4141 94.1895 -27.3926 C 94.1895 -29.2969 93.7988 -31.1523 92.9688 -32.666 C 94.0918 -34.4727 94.7266 -36.8164 94.7266 -39.4043 C 94.7266 -46.0938 89.7949 -51.0742 83.2031 -51.0742 L 68.2617 -51.0742 C 67.627 -51.0742 67.3828 -51.5137 67.5293 -52.0996 C 68.2617 -56.3965 74.0723 -65.5762 74.0723 -73.3398 C 74.0723 -79.6387 69.5801 -84.3262 63.4277 -84.3262 C 58.9844 -84.3262 55.8594 -81.9336 53.0273 -76.5625 C 47.9492 -66.6504 41.2109 -57.7148 33.6426 -48.3398 L 25.9277 -48.3398 C 15.1367 -48.3398 6.83594 -36.6699 6.83594 -21.9238 C 6.83594 -7.42188 15.8691 4.29688 27.4414 4.29688 L 41.6016 4.29688 C 46.8262 6.88477 53.125 8.44727 60.0098 8.44727 Z M 65.625 0 L 60.1074 -0.0488281 C 43.9453 -0.195312 33.0078 -9.22852 33.0078 -22.2168 C 33.0078 -30.6152 34.8145 -35.8398 40.1367 -43.0176 C 46.1914 -50.9766 54.4922 -60.6445 60.498 -72.7051 C 61.8652 -75.3418 62.5488 -75.8789 63.4766 -75.8789 C 64.8438 -75.8789 65.625 -75 65.625 -73.3398 C 65.625 -67.1387 58.8379 -57.373 58.8379 -50.8301 C 58.8379 -45.8984 62.8906 -42.6758 68.2617 -42.6758 L 82.7148 -42.6758 C 84.7656 -42.6758 86.3281 -41.0645 86.3281 -38.916 C 86.3281 -37.4512 85.6934 -36.5723 84.6191 -35.5469 C 83.7402 -34.668 83.3496 -33.8867 83.3496 -33.0078 C 83.3496 -32.1777 83.6914 -31.3965 84.2773 -30.8105 C 85.2539 -29.4434 85.8398 -28.6621 85.8398 -27.3926 C 85.8398 -25.9766 85.0098 -24.707 83.6426 -23.7305 C 82.4707 -22.9004 81.7871 -21.7773 81.7871 -20.6055 C 81.7871 -19.9707 82.0801 -19.3359 82.3242 -18.75 C 83.1543 -17.1875 83.5449 -16.5039 83.5449 -15.2344 C 83.5449 -13.4766 82.5195 -12.4512 80.3223 -11.2793 C 79.1016 -10.6445 78.4668 -9.66797 78.4668 -8.49609 C 78.4668 -7.95898 78.6621 -7.37305 78.9062 -6.83594 C 79.5898 -5.17578 79.6875 -4.93164 79.6875 -4.10156 C 79.6875 -2.58789 78.4668 -1.41602 76.0254 -0.78125 C 73.7793 -0.195312 70.1172 0.0488281 65.625 0 Z M 27.9297 -3.80859 C 20.7031 -3.80859 14.9414 -11.7188 14.9414 -21.9238 C 14.9414 -32.3242 20.0684 -40.2344 26.416 -40.2344 L 28.418 -40.2344 C 25.7324 -34.7656 24.6094 -29.0527 24.6094 -22.2656 C 24.6094 -15.1367 26.9531 -8.83789 31.1035 -3.80859 Z"/>
  </g>
  <g id="Semibold-S" transform="matrix(1 0 0 1 1993.44 696)">
   <path d="M 58.9355 7.56836 L 64.4043 7.56836 C 69.4824 7.56836 73.9258 7.27539 76.8066 6.54297 C 82.7148 5.07812 86.4746 0.78125 86.4746 -4.49219 C 86.4746 -5.32227 86.377 -6.10352 86.1328 -6.93359 C 88.8184 -9.08203 90.332 -12.1582 90.332 -15.5762 C 90.332 -17.1387 90.0391 -18.5547 89.502 -19.873 C 91.3086 -21.875 92.2852 -24.6094 92.2852 -27.4902 C 92.2852 -29.3457 91.8945 -31.2012 91.0645 -32.7148 C 92.1875 -34.4727 92.8223 -36.7188 92.8223 -39.2578 C 92.8223 -45.6543 87.9395 -50.5859 81.5918 -50.5859 L 66.6992 -50.5859 C 66.1133 -50.5859 65.8203 -50.9277 65.8691 -51.5137 C 66.3574 -55.6641 72.4609 -65.0879 72.4609 -72.9492 C 72.4609 -79.0039 68.1641 -83.4473 62.2559 -83.4473 C 58.0078 -83.4473 55.0293 -81.2012 52.2949 -75.9766 C 47.3633 -66.4062 40.918 -57.5195 32.9102 -47.7539 L 25.293 -47.7539 C 14.8926 -47.7539 6.83594 -36.3281 6.83594 -22.1191 C 6.83594 -8.10547 15.6738 3.32031 26.8066 3.32031 L 40.4785 3.32031 C 45.7031 5.95703 51.9531 7.56836 58.9355 7.56836 Z M 64.4531 -0.195312 L 58.9844 -0.244141 C 42.8711 -0.390625 31.9824 -9.42383 31.9824 -22.4121 C 31.9824 -30.7617 33.7891 -35.9863 39.1113 -43.1152 C 45.0195 -50.9766 53.2715 -60.5469 59.1797 -72.4121 C 60.5957 -75.1953 61.3281 -75.6836 62.3047 -75.6836 C 63.8184 -75.6836 64.6973 -74.7559 64.6973 -72.9492 C 64.6973 -66.748 58.0078 -57.0801 58.0078 -50.6836 C 58.0078 -45.8984 61.9141 -42.8223 67.041 -42.8223 L 81.25 -42.8223 C 83.4473 -42.8223 85.0586 -41.1621 85.0586 -38.916 C 85.0586 -37.3535 84.4238 -36.377 83.2031 -35.1074 C 82.5195 -34.4238 82.1777 -33.7891 82.1777 -33.1055 C 82.1777 -32.4707 82.4219 -31.8848 82.9102 -31.3477 C 84.0332 -29.7363 84.5703 -28.8574 84.5703 -27.4902 C 84.5703 -25.9766 83.7402 -24.6094 82.2266 -23.4863 C 81.2012 -22.7539 80.6152 -21.7773 80.6152 -20.8496 C 80.6152 -20.3613 80.8105 -19.8242 81.0547 -19.3848 C 81.9824 -17.5293 82.4219 -16.8457 82.4219 -15.5273 C 82.4219 -13.6719 81.25 -12.5 78.8574 -11.1816 C 77.8809 -10.6934 77.3438 -9.86328 77.3438 -8.93555 C 77.3438 -8.49609 77.4902 -8.05664 77.6855 -7.61719 C 78.4668 -5.61523 78.5645 -5.32227 78.5645 -4.49219 C 78.5645 -2.88086 77.3438 -1.61133 74.8047 -0.976562 C 72.5586 -0.390625 68.8965 -0.146484 64.4531 -0.195312 Z M 27.0996 -4.19922 C 20.1172 -4.19922 14.4043 -12.207 14.4043 -22.1191 C 14.4043 -32.2266 19.4824 -40.1855 25.6348 -40.1855 L 28.0273 -40.1855 C 25.3906 -34.8145 24.2188 -29.1504 24.2188 -22.5098 C 24.2188 -15.4297 26.5625 -9.17969 30.8105 -4.19922 Z"/>
  </g>
  <g id="Medium-S" transform="matrix(1 0 0 1 1697.46 696)">
   <path d="M 58.1055 6.93359 L 63.5254 6.93359 C 68.457 6.93359 72.8027 6.5918 75.6836 5.9082 C 81.4453 4.49219 85.1074 0.341797 85.1074 -4.73633 C 85.1074 -5.61523 84.9609 -6.44531 84.7656 -7.27539 C 87.4023 -9.375 88.8672 -12.4512 88.8672 -15.7715 C 88.8672 -17.2852 88.623 -18.75 88.0859 -20.0684 C 89.8438 -22.0215 90.8691 -24.7559 90.8691 -27.5879 C 90.8691 -29.4434 90.4297 -31.25 89.6484 -32.7637 C 90.7227 -34.4727 91.3574 -36.6699 91.3574 -39.1113 C 91.3574 -45.3613 86.5723 -50.1953 80.3223 -50.1953 L 65.4785 -50.1953 C 64.9414 -50.1953 64.5996 -50.4883 64.6484 -51.0254 C 64.9414 -55.1758 71.2402 -64.7461 71.2402 -72.6562 C 71.2402 -78.5156 67.0898 -82.8125 61.4258 -82.8125 C 57.2754 -82.8125 54.4434 -80.6152 51.7578 -75.4883 C 46.9238 -66.2598 40.6738 -57.373 32.3242 -47.2656 L 24.8535 -47.2656 C 14.7461 -47.2656 6.83594 -36.0352 6.83594 -22.2656 C 6.83594 -8.64258 15.4785 2.63672 26.3184 2.63672 L 39.6484 2.63672 C 44.8242 5.32227 51.123 6.93359 58.1055 6.93359 Z M 63.5742 -0.341797 L 58.1543 -0.390625 C 42.0898 -0.537109 31.2012 -9.57031 31.2012 -22.5586 C 31.2012 -30.8594 33.0566 -36.1328 38.2812 -43.1641 C 44.1895 -50.9766 52.3438 -60.4492 58.2031 -72.2168 C 59.668 -75.0977 60.4004 -75.5371 61.4258 -75.5371 C 63.0371 -75.5371 63.9648 -74.5605 63.9648 -72.6562 C 63.9648 -66.4551 57.3242 -56.8848 57.3242 -50.5859 C 57.3242 -45.8984 61.2305 -42.9688 66.1621 -42.9688 L 80.1758 -42.9688 C 82.4219 -42.9688 84.082 -41.2598 84.082 -38.916 C 84.082 -37.2559 83.4961 -36.1816 82.0801 -34.7656 C 81.543 -34.2285 81.2988 -33.7402 81.2988 -33.1543 C 81.2988 -32.666 81.4941 -32.2266 81.8359 -31.7871 C 83.0566 -29.9805 83.6426 -29.0039 83.6426 -27.5879 C 83.6426 -25.9277 82.8125 -24.5605 81.1523 -23.291 C 80.2246 -22.6074 79.7363 -21.8262 79.7363 -20.9961 C 79.7363 -20.6055 79.8828 -20.2148 80.0293 -19.873 C 81.1035 -17.8223 81.543 -17.0898 81.543 -15.7227 C 81.543 -13.8184 80.3223 -12.5 77.7344 -11.084 C 76.9531 -10.6934 76.4648 -10.0586 76.4648 -9.27734 C 76.4648 -8.93555 76.6113 -8.59375 76.7578 -8.25195 C 77.6367 -5.95703 77.7344 -5.66406 77.7344 -4.73633 C 77.7344 -3.07617 76.5137 -1.75781 73.877 -1.12305 C 71.6309 -0.537109 67.9688 -0.292969 63.5742 -0.341797 Z M 26.5137 -4.54102 C 19.6777 -4.54102 13.9648 -12.5488 13.9648 -22.2656 C 13.9648 -32.1777 19.0918 -40.1367 25 -40.1367 L 27.7344 -40.1367 C 25.0977 -34.8633 23.9258 -29.1992 23.9258 -22.6562 C 23.9258 -15.5762 26.3184 -9.42383 30.5664 -4.54102 Z"/>
  </g>
  <g id="Regular-S" transform="matrix(1 0 0 1 1401.7 696)">
   <path d="M 57.0312 6.05469 L 62.4023 6.05469 C 67.1875 6.05469 71.4355 5.76172 74.2188 5.07812 C 79.7852 3.75977 83.252 -0.195312 83.252 -5.12695 C 83.252 -6.00586 83.1543 -6.88477 82.9102 -7.71484 C 85.5469 -9.76562 87.0117 -12.793 87.0117 -16.0156 C 87.0117 -17.5293 86.7676 -18.9941 86.2305 -20.3125 C 87.9395 -22.2656 88.9648 -24.9512 88.9648 -27.7344 C 88.9648 -29.4922 88.5254 -31.3477 87.793 -32.8613 C 88.8672 -34.4727 89.4531 -36.6211 89.4531 -38.916 C 89.4531 -44.9707 84.7168 -49.707 78.7598 -49.707 L 63.9648 -49.707 C 63.4277 -49.707 63.0371 -49.9023 63.0371 -50.4395 C 63.0371 -54.4922 69.6289 -64.3066 69.6289 -72.2656 C 69.6289 -77.8809 65.7227 -81.9336 60.3027 -81.9336 C 56.2988 -81.9336 53.6133 -79.8828 51.0254 -74.9023 C 46.3867 -66.0645 40.3809 -57.2266 31.543 -46.6797 L 24.2676 -46.6797 C 14.5508 -46.6797 6.83594 -35.6934 6.83594 -22.4121 C 6.83594 -9.375 15.2832 1.66016 25.6836 1.66016 L 38.5254 1.66016 C 43.7012 4.44336 50 6.05469 57.0312 6.05469 Z M 62.4023 -0.537109 L 57.0801 -0.585938 C 41.0156 -0.732422 30.1758 -9.76562 30.1758 -22.7051 C 30.1758 -31.0059 32.0312 -36.2793 37.2559 -43.2617 C 43.0176 -50.9766 51.123 -60.3516 56.8848 -71.9238 C 58.3984 -74.9512 59.1797 -75.3418 60.3027 -75.3418 C 62.0605 -75.3418 63.0371 -74.3164 63.0371 -72.2656 C 63.0371 -66.0645 56.4941 -56.5918 56.4941 -50.4395 C 56.4941 -45.8984 60.2539 -43.1152 64.9414 -43.1152 L 78.7598 -43.1152 C 81.1035 -43.1152 82.8613 -41.3574 82.8613 -38.916 C 82.8613 -37.1094 82.2754 -35.9863 80.6641 -34.375 C 80.3223 -33.9844 80.127 -33.6426 80.127 -33.252 C 80.127 -32.959 80.2734 -32.666 80.4688 -32.373 C 81.8359 -30.2734 82.373 -29.1992 82.373 -27.7344 C 82.373 -25.9277 81.543 -24.4629 79.6875 -23.0469 C 78.9551 -22.4609 78.6133 -21.8262 78.6133 -21.1914 C 78.6133 -20.9961 78.6621 -20.752 78.7598 -20.5078 C 79.9316 -18.1641 80.4199 -17.3828 80.4199 -16.0156 C 80.4199 -14.0137 79.1016 -12.5488 76.2695 -10.9863 C 75.7324 -10.6934 75.3906 -10.2539 75.3906 -9.66797 C 75.3906 -9.47266 75.4395 -9.27734 75.5371 -9.0332 C 76.5625 -6.39648 76.6602 -6.10352 76.6602 -5.12695 C 76.6602 -3.36914 75.3906 -2.00195 72.6562 -1.31836 C 70.3613 -0.732422 66.7969 -0.488281 62.4023 -0.537109 Z M 25.6836 -4.93164 C 19.1406 -4.93164 13.4277 -12.9883 13.4277 -22.4121 C 13.4277 -32.0801 18.5547 -40.0879 24.2676 -40.0879 L 27.3438 -40.0879 C 24.7559 -34.9121 23.584 -29.2969 23.584 -22.8516 C 23.584 -15.8691 25.9766 -9.7168 30.2246 -4.93164 Z"/>
  </g>
  <g id="Light-S" transform="matrix(1 0 0 1 1106.7 696)">
   <path d="M 55.0293 4.44336 L 60.3027 4.44336 C 65.0391 4.44336 69.0918 4.15039 71.7285 3.51562 C 76.8066 2.24609 79.9805 -1.2207 79.9805 -5.66406 C 79.9805 -6.73828 79.7852 -7.66602 79.4434 -8.59375 C 82.0801 -10.4492 83.6426 -13.2812 83.6426 -16.4062 C 83.6426 -18.0176 83.3008 -19.5801 82.666 -20.8496 C 84.4727 -22.5098 85.5469 -25.1465 85.5469 -27.8809 C 85.5469 -29.7363 85.0586 -31.6406 84.2285 -33.0078 C 85.3516 -34.4727 86.0352 -36.5723 86.0352 -38.916 C 86.0352 -44.3359 81.7871 -48.6328 76.3672 -48.6328 L 62.1582 -48.6328 C 60.8887 -48.6328 60.1074 -49.2188 60.1074 -50.2441 C 60.1074 -54.4922 66.5527 -64.0625 66.5527 -71.6797 C 66.5527 -76.709 63.0859 -80.3223 58.252 -80.3223 C 54.6875 -80.3223 52.3438 -78.4668 49.9512 -73.877 C 45.2637 -64.8926 40.1367 -57.7148 30.8105 -46.1426 L 23.5352 -46.1426 C 14.3555 -46.1426 6.83594 -35.7422 6.83594 -22.8516 C 6.83594 -10.1562 15.0879 0.341797 25 0.341797 L 37.5 0.341797 C 42.4316 2.88086 48.3887 4.44336 55.0293 4.44336 Z M 60.3516 -0.683594 L 55.0781 -0.732422 C 39.0625 -0.878906 28.1738 -9.96094 28.1738 -22.9492 C 28.1738 -31.2012 30.0293 -36.5234 35.2051 -43.457 C 40.918 -51.0742 48.8281 -60.2051 54.4922 -71.582 C 56.0547 -74.6094 56.8848 -75.1953 58.252 -75.1953 C 60.2539 -75.1953 61.4746 -73.9258 61.4746 -71.6797 C 61.4746 -65.4785 54.9805 -56.1035 54.9805 -50.2441 C 54.9805 -46.0938 58.3984 -43.5547 62.8418 -43.5547 L 76.3672 -43.5547 C 78.9551 -43.5547 80.9082 -41.5527 80.9082 -38.916 C 80.9082 -37.1094 80.3711 -35.8887 78.9551 -34.5215 C 78.5156 -34.1309 78.3203 -33.6914 78.3203 -33.252 C 78.3203 -32.9102 78.4668 -32.5684 78.7598 -32.2266 C 79.9316 -30.6152 80.4199 -29.3945 80.4199 -27.8809 C 80.4199 -26.0254 79.5898 -24.4629 77.8809 -23.2422 C 77.1484 -22.7051 76.8066 -22.0703 76.8066 -21.4355 C 76.8066 -21.1914 76.8555 -20.8984 77.0508 -20.6055 C 78.0273 -18.7012 78.5156 -17.8223 78.5156 -16.4062 C 78.5156 -14.3066 77.1973 -12.6953 74.5117 -11.3281 C 73.9746 -11.0352 73.6328 -10.5957 73.6328 -10.0098 C 73.6328 -9.76562 73.6816 -9.52148 73.8281 -9.22852 C 74.707 -7.12891 74.8535 -6.68945 74.8535 -5.66406 C 74.8535 -3.71094 73.3887 -2.19727 70.5078 -1.46484 C 68.3105 -0.878906 64.6973 -0.634766 60.3516 -0.683594 Z M 25 -4.78516 C 18.0664 -4.78516 11.9629 -12.9395 11.9629 -22.8516 C 11.9629 -32.9102 17.4805 -41.0156 23.5352 -41.0156 L 27.4902 -41.0156 C 24.3652 -35.498 23.0469 -29.9316 23.0469 -23.0469 C 23.0469 -15.7715 25.8301 -9.42383 30.7617 -4.78516 Z"/>
  </g>
  <g id="Thin-S" transform="matrix(1 0 0 1 812.233 696)">
   <path d="M 52.4414 2.29492 L 57.5684 2.29492 C 62.207 2.29492 66.0156 2.05078 68.457 1.36719 C 72.9004 0.244141 75.5859 -2.58789 75.5859 -6.39648 C 75.5859 -7.61719 75.3418 -8.69141 74.8535 -9.7168 C 77.5879 -11.2793 79.1992 -13.916 79.1992 -16.8945 C 79.1992 -18.6523 78.7598 -20.3613 77.9297 -21.5332 C 79.8828 -22.8516 81.0547 -25.3906 81.0547 -28.125 C 81.0547 -30.0781 80.4688 -32.0801 79.4434 -33.2031 C 80.7617 -34.4727 81.543 -36.5234 81.543 -38.8672 C 81.543 -43.5547 77.8809 -47.2168 73.2422 -47.2168 L 59.7656 -47.2168 C 57.5195 -47.2168 56.2012 -48.291 56.2012 -49.9512 C 56.2012 -54.4922 62.5 -63.7695 62.5 -70.8984 C 62.5 -75.1465 59.6191 -78.1738 55.5664 -78.1738 C 52.5391 -78.1738 50.5859 -76.5625 48.5352 -72.5586 C 43.75 -63.3301 39.7949 -58.3496 29.834 -45.4102 L 22.6562 -45.4102 C 14.0625 -45.4102 6.83594 -35.791 6.83594 -23.3398 C 6.83594 -11.1816 14.7949 -1.46484 24.0234 -1.46484 L 36.084 -1.46484 C 40.6738 0.878906 46.2402 2.29492 52.4414 2.29492 Z M 57.5684 -0.878906 L 52.4414 -0.927734 C 36.4746 -1.07422 25.4883 -10.2051 25.4883 -23.291 C 25.4883 -31.4941 27.3438 -36.8164 32.5195 -43.7012 C 38.1348 -51.1719 45.752 -60.0586 51.3672 -71.0938 C 52.9297 -74.1699 53.9062 -75 55.5664 -75 C 57.9102 -75 59.3262 -73.4375 59.3262 -70.8984 C 59.3262 -64.6484 53.0273 -55.4688 53.0273 -49.9512 C 53.0273 -46.3379 55.957 -44.043 60.0098 -44.043 L 73.2422 -44.043 C 76.1719 -44.043 78.3691 -41.7969 78.3691 -38.8672 C 78.3691 -37.0605 77.832 -35.7422 76.6602 -34.7168 C 76.1719 -34.2773 75.8789 -33.7891 75.8789 -33.3008 C 75.8789 -32.9102 76.0742 -32.4707 76.4648 -32.0801 C 77.3926 -31.1035 77.8809 -29.6875 77.8809 -28.125 C 77.8809 -26.1719 77.002 -24.4141 75.4883 -23.4863 C 74.7559 -22.998 74.4141 -22.4121 74.4141 -21.7773 C 74.4141 -21.4355 74.5117 -21.0938 74.7559 -20.7031 C 75.5371 -19.4336 76.0254 -18.3594 76.0254 -16.8945 C 76.0254 -14.6973 74.707 -12.8906 72.2656 -11.7676 C 71.6309 -11.4746 71.2891 -10.9863 71.2891 -10.4492 C 71.2891 -10.1562 71.4355 -9.81445 71.582 -9.47266 C 72.2656 -8.1543 72.4121 -7.42188 72.4121 -6.39648 C 72.4121 -4.15039 70.8008 -2.44141 67.7246 -1.66016 C 65.5273 -1.12305 61.9629 -0.830078 57.5684 -0.878906 Z M 24.0234 -4.63867 C 16.6504 -4.63867 10.0098 -12.9395 10.0098 -23.3398 C 10.0098 -34.0332 16.0156 -42.2363 22.6562 -42.2363 L 27.6367 -42.2363 C 23.877 -36.2793 22.3145 -30.7129 22.3145 -23.3398 C 22.3145 -15.625 25.6836 -9.08203 31.4453 -4.63867 Z"/>
  </g>
  <g id="Ultralight-S" transform="matrix(1 0 0 1 516.669 696)">
   <path d="M 51.0742 1.17188 L 56.1523 1.17188 C 60.7422 1.17188 64.4043 0.927734 66.7969 0.292969 C 70.8496 -0.78125 73.3887 -3.32031 73.3887 -6.78711 C 73.3887 -8.10547 73.0469 -9.22852 72.4609 -10.3027 C 75.2441 -11.7188 76.9043 -14.209 76.9043 -17.1387 C 76.9043 -18.9941 76.416 -20.752 75.4883 -21.875 C 77.4902 -22.998 78.7598 -25.5371 78.7598 -28.2227 C 78.7598 -30.2734 78.0762 -32.2754 77.002 -33.3008 C 78.418 -34.4727 79.248 -36.4746 79.248 -38.8672 C 79.248 -43.1152 75.8789 -46.4844 71.6797 -46.4844 L 58.5449 -46.4844 C 55.8105 -46.4844 54.1504 -47.8027 54.1504 -49.8047 C 54.1504 -54.4922 60.4492 -63.623 60.4492 -70.5078 C 60.4492 -74.3652 57.8125 -77.0508 54.1504 -77.0508 C 51.416 -77.0508 49.707 -75.6348 47.7539 -71.8262 C 43.0176 -62.5488 39.6484 -58.6914 29.2969 -45.0684 L 22.168 -45.0684 C 13.916 -45.0684 6.83594 -35.8398 6.83594 -23.6328 C 6.83594 -11.7188 14.6484 -2.39258 23.5352 -2.39258 L 35.3516 -2.39258 C 39.7949 -0.146484 45.1172 1.17188 51.0742 1.17188 Z M 56.1523 -0.976562 L 51.0742 -1.02539 C 35.1562 -1.17188 24.1211 -10.3516 24.1211 -23.4863 C 24.1211 -31.6406 25.9766 -36.9629 31.1035 -43.7988 C 36.7188 -51.2695 44.1895 -59.9609 49.7559 -70.8496 C 51.3184 -73.9258 52.3438 -74.9023 54.1504 -74.9023 C 56.6895 -74.9023 58.252 -73.1445 58.252 -70.5078 C 58.252 -64.2578 52.002 -55.1758 52.002 -49.8047 C 52.002 -46.4844 54.6875 -44.3359 58.5938 -44.3359 L 71.6797 -44.3359 C 74.707 -44.3359 77.0508 -41.8945 77.0508 -38.8672 C 77.0508 -37.0605 76.5137 -35.6445 75.4883 -34.8145 C 74.9512 -34.375 74.6582 -33.8379 74.6582 -33.3008 C 74.6582 -32.8613 74.8535 -32.4219 75.293 -31.9824 C 76.0742 -31.3477 76.5625 -29.834 76.5625 -28.2227 C 76.5625 -26.2695 75.6348 -24.4141 74.2676 -23.584 C 73.5352 -23.1445 73.1934 -22.6074 73.1934 -21.9727 C 73.1934 -21.582 73.3398 -21.1914 73.584 -20.8008 C 74.2676 -19.8242 74.707 -18.6523 74.707 -17.1387 C 74.707 -14.8926 73.3887 -12.9883 71.0938 -12.0117 C 70.459 -11.7188 70.1172 -11.2305 70.1172 -10.6934 C 70.1172 -10.3516 70.2637 -9.96094 70.4102 -9.61914 C 70.9961 -8.69141 71.1914 -7.8125 71.1914 -6.78711 C 71.1914 -4.39453 69.4336 -2.53906 66.2598 -1.75781 C 64.1113 -1.2207 60.5957 -0.927734 56.1523 -0.976562 Z M 23.5352 -4.54102 C 15.8691 -4.54102 9.0332 -12.8906 9.0332 -23.6328 C 9.0332 -34.6191 15.2832 -42.8711 22.168 -42.8711 L 27.7832 -42.8711 C 23.584 -36.6699 21.9727 -31.1523 21.9727 -23.4863 C 21.9727 -15.5273 25.5859 -8.88672 31.7871 -4.54102 Z"/>
  </g>
 </g>
</svg>
