<?xml version="1.0" encoding="UTF-8"?>
<!--Generator: Apple Native CoreSVG 123-->
<!DOCTYPE svg
PUBLIC "-//W3C//DTD SVG 1.1//EN"
       "http://www.w3.org/Graphics/SVG/1.1/DTD/svg11.dtd">
<svg version="1.1" xmlns="http://www.w3.org/2000/svg" xmlns:xlink="http://www.w3.org/1999/xlink" width="3300" height="2200">
 <!--glyph: "uni100280.medium", point size: 100.000000, font version: "Version 15.0d7e11", template writer version: "5"-->
 <g id="Notes">
  <rect height="2200" id="artboard" style="fill:white;opacity:1" width="3300" x="0" y="0"/>
  <line id="" style="fill:none;stroke:black;opacity:1;stroke-width:0.5;" x1="263" x2="3036" y1="292" y2="292"/>
  <text style="stroke:none;fill:black;font-family:-apple-system,&quot;SF Pro Display&quot;,&quot;SF Pro Text&quot;,Helvetica,sans-serif;font-weight:bold;" transform="matrix(1 0 0 1 263 322)">Weight/Scale Variations</text>
  <text style="stroke:none;fill:black;font-family:-apple-system,&quot;SF Pro Display&quot;,&quot;SF Pro Text&quot;,Helvetica,sans-serif;text-anchor:middle;" transform="matrix(1 0 0 1 559.711 322)">Ultralight</text>
  <text style="stroke:none;fill:black;font-family:-apple-system,&quot;SF Pro Display&quot;,&quot;SF Pro Text&quot;,Helvetica,sans-serif;text-anchor:middle;" transform="matrix(1 0 0 1 856.422 322)">Thin</text>
  <text style="stroke:none;fill:black;font-family:-apple-system,&quot;SF Pro Display&quot;,&quot;SF Pro Text&quot;,Helvetica,sans-serif;text-anchor:middle;" transform="matrix(1 0 0 1 1153.13 322)">Light</text>
  <text style="stroke:none;fill:black;font-family:-apple-system,&quot;SF Pro Display&quot;,&quot;SF Pro Text&quot;,Helvetica,sans-serif;text-anchor:middle;" transform="matrix(1 0 0 1 1449.84 322)">Regular</text>
  <text style="stroke:none;fill:black;font-family:-apple-system,&quot;SF Pro Display&quot;,&quot;SF Pro Text&quot;,Helvetica,sans-serif;text-anchor:middle;" transform="matrix(1 0 0 1 1746.56 322)">Medium</text>
  <text style="stroke:none;fill:black;font-family:-apple-system,&quot;SF Pro Display&quot;,&quot;SF Pro Text&quot;,Helvetica,sans-serif;text-anchor:middle;" transform="matrix(1 0 0 1 2043.27 322)">Semibold</text>
  <text style="stroke:none;fill:black;font-family:-apple-system,&quot;SF Pro Display&quot;,&quot;SF Pro Text&quot;,Helvetica,sans-serif;text-anchor:middle;" transform="matrix(1 0 0 1 2339.98 322)">Bold</text>
  <text style="stroke:none;fill:black;font-family:-apple-system,&quot;SF Pro Display&quot;,&quot;SF Pro Text&quot;,Helvetica,sans-serif;text-anchor:middle;" transform="matrix(1 0 0 1 2636.69 322)">Heavy</text>
  <text style="stroke:none;fill:black;font-family:-apple-system,&quot;SF Pro Display&quot;,&quot;SF Pro Text&quot;,Helvetica,sans-serif;text-anchor:middle;" transform="matrix(1 0 0 1 2933.4 322)">Black</text>
  <line id="" style="fill:none;stroke:black;opacity:1;stroke-width:0.5;" x1="263" x2="3036" y1="1903" y2="1903"/>
  <g id="" transform="matrix(1 0 0 1 263 1933)">
   <path d="M 9.24805 0.830078 C 13.5547 0.830078 17.1387 -2.74414 17.1387 -7.05078 C 17.1387 -11.3574 13.5449 -14.9316 9.23828 -14.9316 C 4.94141 -14.9316 1.36719 -11.3574 1.36719 -7.05078 C 1.36719 -2.74414 4.95117 0.830078 9.24805 0.830078 Z M 9.24805 -0.654297 C 5.70312 -0.654297 2.87109 -3.49609 2.87109 -7.05078 C 2.87109 -10.6055 5.69336 -13.4473 9.23828 -13.4473 C 12.793 -13.4473 15.6348 -10.6055 15.6445 -7.05078 C 15.6543 -3.49609 12.8027 -0.654297 9.24805 -0.654297 Z M 9.22852 -3.42773 C 9.69727 -3.42773 9.9707 -3.74023 9.9707 -4.25781 L 9.9707 -6.31836 L 12.1973 -6.31836 C 12.6953 -6.31836 13.0371 -6.57227 13.0371 -7.04102 C 13.0371 -7.51953 12.7148 -7.7832 12.1973 -7.7832 L 9.9707 -7.7832 L 9.9707 -10.0098 C 9.9707 -10.5273 9.69727 -10.8496 9.22852 -10.8496 C 8.75977 -10.8496 8.50586 -10.5078 8.50586 -10.0098 L 8.50586 -7.7832 L 6.29883 -7.7832 C 5.78125 -7.7832 5.44922 -7.51953 5.44922 -7.04102 C 5.44922 -6.57227 5.80078 -6.31836 6.29883 -6.31836 L 8.50586 -6.31836 L 8.50586 -4.25781 C 8.50586 -3.75977 8.75977 -3.42773 9.22852 -3.42773 Z"/>
  </g>
  <g id="" transform="matrix(1 0 0 1 281.506 1933)">
   <path d="M 11.709 2.91016 C 17.1582 2.91016 21.6699 -1.60156 21.6699 -7.05078 C 21.6699 -12.4902 17.1484 -17.0117 11.6992 -17.0117 C 6.25977 -17.0117 1.74805 -12.4902 1.74805 -7.05078 C 1.74805 -1.60156 6.26953 2.91016 11.709 2.91016 Z M 11.709 1.25 C 7.09961 1.25 3.41797 -2.44141 3.41797 -7.05078 C 3.41797 -11.6504 7.08984 -15.3516 11.6992 -15.3516 C 16.3086 -15.3516 20 -11.6504 20.0098 -7.05078 C 20.0195 -2.44141 16.3184 1.25 11.709 1.25 Z M 11.6895 -2.41211 C 12.207 -2.41211 12.5195 -2.77344 12.5195 -3.33984 L 12.5195 -6.23047 L 15.5762 -6.23047 C 16.123 -6.23047 16.5039 -6.51367 16.5039 -7.03125 C 16.5039 -7.55859 16.1426 -7.86133 15.5762 -7.86133 L 12.5195 -7.86133 L 12.5195 -10.9277 C 12.5195 -11.5039 12.207 -11.8555 11.6895 -11.8555 C 11.1719 -11.8555 10.8789 -11.4844 10.8789 -10.9277 L 10.8789 -7.86133 L 7.83203 -7.86133 C 7.26562 -7.86133 6.89453 -7.55859 6.89453 -7.03125 C 6.89453 -6.51367 7.28516 -6.23047 7.83203 -6.23047 L 10.8789 -6.23047 L 10.8789 -3.33984 C 10.8789 -2.79297 11.1719 -2.41211 11.6895 -2.41211 Z"/>
  </g>
  <g id="" transform="matrix(1 0 0 1 304.924 1933)">
   <path d="M 14.9707 5.67383 C 21.9336 5.67383 27.6953 -0.078125 27.6953 -7.04102 C 27.6953 -14.0039 21.9238 -19.7559 14.9609 -19.7559 C 8.00781 -19.7559 2.25586 -14.0039 2.25586 -7.04102 C 2.25586 -0.078125 8.01758 5.67383 14.9707 5.67383 Z M 14.9707 3.85742 C 8.93555 3.85742 4.08203 -1.00586 4.08203 -7.04102 C 4.08203 -13.0762 8.92578 -17.9395 14.9609 -17.9395 C 21.0059 -17.9395 25.8594 -13.0762 25.8691 -7.04102 C 25.8789 -1.00586 21.0156 3.85742 14.9707 3.85742 Z M 14.9512 -1.06445 C 15.5176 -1.06445 15.8691 -1.45508 15.8691 -2.06055 L 15.8691 -6.13281 L 20.1074 -6.13281 C 20.6934 -6.13281 21.1133 -6.46484 21.1133 -7.02148 C 21.1133 -7.59766 20.7227 -7.93945 20.1074 -7.93945 L 15.8691 -7.93945 L 15.8691 -12.1875 C 15.8691 -12.8027 15.5176 -13.1934 14.9512 -13.1934 C 14.3848 -13.1934 14.0625 -12.7832 14.0625 -12.1875 L 14.0625 -7.93945 L 9.83398 -7.93945 C 9.21875 -7.93945 8.80859 -7.59766 8.80859 -7.02148 C 8.80859 -6.46484 9.23828 -6.13281 9.83398 -6.13281 L 14.0625 -6.13281 L 14.0625 -2.06055 C 14.0625 -1.47461 14.3848 -1.06445 14.9512 -1.06445 Z"/>
  </g>
  <text style="stroke:none;fill:black;font-family:-apple-system,&quot;SF Pro Display&quot;,&quot;SF Pro Text&quot;,Helvetica,sans-serif;font-weight:bold;" transform="matrix(1 0 0 1 263 1953)">Design Variations</text>
  <text style="stroke:none;fill:black;font-family:-apple-system,&quot;SF Pro Display&quot;,&quot;SF Pro Text&quot;,Helvetica,sans-serif;" transform="matrix(1 0 0 1 263 1971)">Symbols are supported in up to nine weights and three scales.</text>
  <text style="stroke:none;fill:black;font-family:-apple-system,&quot;SF Pro Display&quot;,&quot;SF Pro Text&quot;,Helvetica,sans-serif;" transform="matrix(1 0 0 1 263 1989)">For optimal layout with text and other symbols, vertically align</text>
  <text style="stroke:none;fill:black;font-family:-apple-system,&quot;SF Pro Display&quot;,&quot;SF Pro Text&quot;,Helvetica,sans-serif;" transform="matrix(1 0 0 1 263 2007)">symbols with the adjacent text.</text>
  <rect height="14" id="" style="fill:#00AEEF;stroke:none;opacity:0.4;" width="3" x="776" y="1919"/>
  <g id="" transform="matrix(1 0 0 1 779 1933)">
   <path d="M 10.5273 0 L 12.373 0 L 7.17773 -14.0918 L 5.43945 -14.0918 L 0.244141 0 L 2.08984 0 L 3.50586 -4.0332 L 9.11133 -4.0332 Z M 6.2793 -11.9531 L 6.33789 -11.9531 L 8.59375 -5.52734 L 4.02344 -5.52734 Z"/>
  </g>
  <rect height="14" id="" style="fill:#00AEEF;stroke:none;opacity:0.4;" width="3" x="791.617" y="1919"/>
  <text style="stroke:none;fill:black;font-family:-apple-system,&quot;SF Pro Display&quot;,&quot;SF Pro Text&quot;,Helvetica,sans-serif;font-weight:bold;" transform="matrix(1 0 0 1 776 1953)">Margins</text>
  <text style="stroke:none;fill:black;font-family:-apple-system,&quot;SF Pro Display&quot;,&quot;SF Pro Text&quot;,Helvetica,sans-serif;" transform="matrix(1 0 0 1 776 1971)">Leading and trailing margins on the left and right side of each symbol</text>
  <text style="stroke:none;fill:black;font-family:-apple-system,&quot;SF Pro Display&quot;,&quot;SF Pro Text&quot;,Helvetica,sans-serif;" transform="matrix(1 0 0 1 776 1989)">can be adjusted by modifying the width of the blue rectangles.</text>
  <text style="stroke:none;fill:black;font-family:-apple-system,&quot;SF Pro Display&quot;,&quot;SF Pro Text&quot;,Helvetica,sans-serif;" transform="matrix(1 0 0 1 776 2007)">Modifications are automatically applied proportionally to all</text>
  <text style="stroke:none;fill:black;font-family:-apple-system,&quot;SF Pro Display&quot;,&quot;SF Pro Text&quot;,Helvetica,sans-serif;" transform="matrix(1 0 0 1 776 2025)">scales and weights.</text>
  <g id="" transform="matrix(1 0 0 1 1289 1933)">
   <path d="M 2.83203 3.11523 L 4.375 4.6582 C 5.22461 5.48828 6.19141 5.41992 7.06055 4.46289 L 17.2754 -6.66016 C 17.7051 -6.36719 18.0957 -6.37695 18.5645 -6.47461 L 19.6094 -6.68945 L 20.3027 -5.99609 L 20.2539 -5.47852 C 20.1855 -4.95117 20.3516 -4.53125 20.8496 -4.0332 L 21.6602 -3.22266 C 22.168 -2.71484 22.8223 -2.68555 23.3008 -3.16406 L 26.5527 -6.41602 C 27.0312 -6.89453 27.0117 -7.54883 26.5039 -8.05664 L 25.6836 -8.87695 C 25.1855 -9.375 24.7754 -9.55078 24.2383 -9.47266 L 23.7109 -9.41406 L 23.0566 -10.0781 L 23.3398 -11.2207 C 23.4863 -11.7871 23.3398 -12.2559 22.7148 -12.8613 L 20.3027 -15.2539 C 16.7578 -18.7793 12.2266 -18.6719 9.11133 -15.5371 C 8.69141 -15.1074 8.64258 -14.5215 8.91602 -14.0918 C 9.15039 -13.7207 9.62891 -13.4961 10.2734 -13.6621 C 11.7871 -14.043 13.3008 -13.9258 14.7852 -12.9199 L 14.1602 -11.3379 C 13.9258 -10.752 13.9453 -10.2734 14.1797 -9.83398 L 3.01758 0.439453 C 2.08008 1.30859 1.97266 2.25586 2.83203 3.11523 Z M 10.6738 -15.1465 C 13.3398 -17.1387 16.6504 -16.8262 19.0527 -14.4141 L 21.6797 -11.8066 C 21.9141 -11.5723 21.9434 -11.3867 21.8848 -11.0938 L 21.5039 -9.53125 L 23.0762 -7.95898 L 24.043 -8.04688 C 24.3262 -8.07617 24.4141 -8.05664 24.6387 -7.83203 L 25.2637 -7.20703 L 22.5098 -4.46289 L 21.8848 -5.07812 C 21.6602 -5.30273 21.6406 -5.40039 21.6699 -5.68359 L 21.7578 -6.64062 L 20.1953 -8.20312 L 18.5742 -7.89062 C 18.291 -7.83203 18.1445 -7.83203 17.9102 -8.07617 L 15.7324 -10.2539 C 15.5078 -10.4883 15.4785 -10.625 15.6055 -10.9473 L 16.5527 -13.2227 C 14.9512 -14.7559 12.8418 -15.6055 10.8008 -14.9512 C 10.7129 -14.9219 10.6445 -14.9414 10.6152 -14.9805 C 10.5859 -15.0293 10.5859 -15.0781 10.6738 -15.1465 Z M 4.10156 2.41211 C 3.61328 1.91406 3.78906 1.61133 4.12109 1.30859 L 15.0781 -8.80859 L 16.3086 -7.57812 L 6.15234 3.34961 C 5.84961 3.68164 5.46875 3.7793 5.06836 3.37891 Z"/>
  </g>
  <text style="stroke:none;fill:black;font-family:-apple-system,&quot;SF Pro Display&quot;,&quot;SF Pro Text&quot;,Helvetica,sans-serif;font-weight:bold;" transform="matrix(1 0 0 1 1289 1953)">Exporting</text>
  <text style="stroke:none;fill:black;font-family:-apple-system,&quot;SF Pro Display&quot;,&quot;SF Pro Text&quot;,Helvetica,sans-serif;" transform="matrix(1 0 0 1 1289 1971)">Symbols should be outlined when exporting to ensure the</text>
  <text style="stroke:none;fill:black;font-family:-apple-system,&quot;SF Pro Display&quot;,&quot;SF Pro Text&quot;,Helvetica,sans-serif;" transform="matrix(1 0 0 1 1289 1989)">design is preserved when submitting to Xcode.</text>
  <text id="template-version" style="stroke:none;fill:black;font-family:-apple-system,&quot;SF Pro Display&quot;,&quot;SF Pro Text&quot;,Helvetica,sans-serif;text-anchor:end;" transform="matrix(1 0 0 1 3036 1933)">Template v.1.0</text>
  <text style="stroke:none;fill:black;font-family:-apple-system,&quot;SF Pro Display&quot;,&quot;SF Pro Text&quot;,Helvetica,sans-serif;text-anchor:end;" transform="matrix(1 0 0 1 3036 1951)">Generated from hand.thumbsup.fill</text>
  <text style="stroke:none;fill:black;font-family:-apple-system,&quot;SF Pro Display&quot;,&quot;SF Pro Text&quot;,Helvetica,sans-serif;text-anchor:end;" transform="matrix(1 0 0 1 3036 1969)">Typeset at 100 points</text>
  <text style="stroke:none;fill:black;font-family:-apple-system,&quot;SF Pro Display&quot;,&quot;SF Pro Text&quot;,Helvetica,sans-serif;" transform="matrix(1 0 0 1 263 726)">Small</text>
  <text style="stroke:none;fill:black;font-family:-apple-system,&quot;SF Pro Display&quot;,&quot;SF Pro Text&quot;,Helvetica,sans-serif;" transform="matrix(1 0 0 1 263 1156)">Medium</text>
  <text style="stroke:none;fill:black;font-family:-apple-system,&quot;SF Pro Display&quot;,&quot;SF Pro Text&quot;,Helvetica,sans-serif;" transform="matrix(1 0 0 1 263 1586)">Large</text>
 </g>
 <g id="Guides">
  <g id="H-reference" style="fill:#27AAE1;stroke:none;" transform="matrix(1 0 0 1 339 696)">
   <path d="M 54.9316 0 L 57.666 0 L 30.5664 -70.459 L 28.0762 -70.459 L 0.976562 0 L 3.66211 0 L 12.9395 -24.4629 L 45.7031 -24.4629 Z M 29.1992 -67.0898 L 29.4434 -67.0898 L 44.8242 -26.709 L 13.8184 -26.709 Z"/>
  </g>
  <line id="Baseline-S" style="fill:none;stroke:#27AAE1;opacity:1;stroke-width:0.577;" x1="263" x2="3036" y1="696" y2="696"/>
  <line id="Capline-S" style="fill:none;stroke:#27AAE1;opacity:1;stroke-width:0.577;" x1="263" x2="3036" y1="625.541" y2="625.541"/>
  <g id="H-reference" style="fill:#27AAE1;stroke:none;" transform="matrix(1 0 0 1 339 1126)">
   <path d="M 54.9316 0 L 57.666 0 L 30.5664 -70.459 L 28.0762 -70.459 L 0.976562 0 L 3.66211 0 L 12.9395 -24.4629 L 45.7031 -24.4629 Z M 29.1992 -67.0898 L 29.4434 -67.0898 L 44.8242 -26.709 L 13.8184 -26.709 Z"/>
  </g>
  <line id="Baseline-M" style="fill:none;stroke:#27AAE1;opacity:1;stroke-width:0.577;" x1="263" x2="3036" y1="1126" y2="1126"/>
  <line id="Capline-M" style="fill:none;stroke:#27AAE1;opacity:1;stroke-width:0.577;" x1="263" x2="3036" y1="1055.54" y2="1055.54"/>
  <g id="H-reference" style="fill:#27AAE1;stroke:none;" transform="matrix(1 0 0 1 339 1556)">
   <path d="M 54.9316 0 L 57.666 0 L 30.5664 -70.459 L 28.0762 -70.459 L 0.976562 0 L 3.66211 0 L 12.9395 -24.4629 L 45.7031 -24.4629 Z M 29.1992 -67.0898 L 29.4434 -67.0898 L 44.8242 -26.709 L 13.8184 -26.709 Z"/>
  </g>
  <line id="Baseline-L" style="fill:none;stroke:#27AAE1;opacity:1;stroke-width:0.577;" x1="263" x2="3036" y1="1556" y2="1556"/>
  <line id="Capline-L" style="fill:none;stroke:#27AAE1;opacity:1;stroke-width:0.577;" x1="263" x2="3036" y1="1485.54" y2="1485.54"/>
  <rect height="119.336" id="left-margin" style="fill:#00AEEF;stroke:none;opacity:0.4;" width="8.74023" x="1392.42" y="1030.79"/>
  <rect height="119.336" id="right-margin" style="fill:#00AEEF;stroke:none;opacity:0.4;" width="8.74023" x="1498.53" y="1030.79"/>
 </g>
 <g id="Symbols">
  <g id="Black-L" transform="matrix(1 0 0 1 2852.52 1556)">
   <path d="M 128.467 30.8105 C 133.936 29.541 139.307 26.0742 139.307 19.3359 C 139.307 16.6504 138.623 14.7461 137.695 13.1836 C 137.158 12.2559 137.207 11.5723 137.988 11.2305 C 142.432 9.27734 146.094 5.37109 146.094 -0.244141 C 146.094 -3.41797 145.264 -6.25 143.604 -8.25195 C 142.822 -9.27734 143.066 -10.1562 144.238 -10.8398 C 147.51 -12.6953 149.609 -16.748 149.609 -21.2891 C 149.609 -24.5605 148.535 -28.0762 146.631 -29.7852 C 145.557 -30.7129 145.703 -31.4453 146.973 -32.4219 C 149.219 -34.1797 150.488 -37.5 150.488 -41.4062 C 150.488 -48.291 145.264 -53.8086 138.33 -53.8086 L 113.525 -53.8086 C 107.178 -53.8086 102.979 -57.0312 102.979 -62.207 C 102.979 -71.7773 114.844 -89.0625 114.844 -101.465 C 114.844 -107.959 110.596 -111.816 105.078 -111.816 C 100.098 -111.816 97.5098 -108.35 94.873 -103.027 C 84.4727 -82.666 70.459 -66.1621 59.7656 -52.002 C 50.7324 -39.9414 46.3379 -29.7852 46.0938 -13.1836 C 45.6543 12.5488 66.5527 32.0801 99.2188 32.373 L 108.838 32.4707 C 117.969 32.5195 124.658 31.8359 128.467 30.8105 Z M 11.2793 -12.6465 C 11.2793 8.25195 23.7305 25.6836 41.2109 25.6836 L 53.125 25.6836 C 40.9668 16.3086 35.3516 2.34375 35.5957 -13.3301 C 35.8398 -30.5664 42.6758 -43.5059 49.0723 -51.1719 L 38.5742 -51.1719 C 22.9004 -51.1719 11.2793 -34.2285 11.2793 -12.6465 Z"/>
  </g>
  <g id="Heavy-L" transform="matrix(1 0 0 1 2557.61 1556)">
   <path d="M 125.391 29.1504 C 130.713 27.8809 135.986 24.4629 135.986 17.9199 C 135.986 15.2832 135.303 13.4277 134.375 11.9141 C 133.838 10.9863 133.936 10.3027 134.717 10.0098 C 139.014 8.10547 142.578 4.29688 142.578 -1.17188 C 142.578 -4.29688 141.748 -7.03125 140.186 -8.98438 C 139.404 -10.0098 139.6 -10.8398 140.771 -11.5234 C 143.945 -13.3301 145.996 -17.2852 145.996 -21.7285 C 145.996 -24.9023 144.971 -28.3203 143.115 -30.0293 C 142.09 -30.957 142.236 -31.6406 143.457 -32.6172 C 145.654 -34.2773 146.875 -37.5488 146.875 -41.4062 C 146.875 -48.0469 141.748 -53.4668 134.961 -53.4668 L 110.791 -53.4668 C 104.639 -53.4668 100.488 -56.5918 100.488 -61.6699 C 100.488 -70.9961 112.061 -87.8418 112.061 -100 C 112.061 -106.299 107.959 -110.107 102.588 -110.107 C 97.7051 -110.107 95.2148 -106.689 92.5781 -101.514 C 82.4707 -81.5918 68.75 -65.5273 58.3496 -51.709 C 49.5117 -39.9414 45.2148 -30.0293 45.0195 -13.8184 C 44.6289 11.2793 64.9414 30.3223 96.8262 30.6152 L 106.201 30.7129 C 115.137 30.7617 121.631 30.0781 125.391 29.1504 Z M 11.2793 -13.2812 C 11.2793 7.08008 23.5352 24.1211 40.5762 24.1211 L 52.4902 24.1211 C 40.4297 15.0391 34.9121 1.41602 35.1562 -13.9648 C 35.4004 -30.957 42.0898 -43.457 48.1934 -50.8789 L 37.9883 -50.8789 C 22.7051 -50.8789 11.2793 -34.375 11.2793 -13.2812 Z"/>
  </g>
  <g id="Bold-L" transform="matrix(1 0 0 1 2262.93 1556)">
   <path d="M 121.973 27.2461 C 127.1 26.0254 132.275 22.7051 132.275 16.3574 C 132.275 13.7695 131.592 11.9629 130.664 10.4492 C 130.176 9.61914 130.273 8.93555 131.006 8.64258 C 135.205 6.78711 138.672 3.07617 138.672 -2.24609 C 138.672 -5.27344 137.842 -7.95898 136.328 -9.86328 C 135.596 -10.8398 135.742 -11.6699 136.914 -12.3535 C 139.99 -14.0625 141.992 -17.9199 141.992 -22.2168 C 141.992 -25.3418 140.967 -28.6621 139.16 -30.2734 C 138.184 -31.2012 138.33 -31.8848 139.502 -32.8125 C 141.65 -34.4727 142.822 -37.5977 142.822 -41.3574 C 142.822 -47.8516 137.842 -53.0762 131.25 -53.0762 L 107.715 -53.0762 C 101.758 -53.0762 97.7539 -56.1523 97.7539 -61.084 C 97.7539 -70.1172 108.984 -86.5234 108.984 -98.291 C 108.984 -104.443 104.98 -108.105 99.7559 -108.105 C 95.0195 -108.105 92.5781 -104.834 90.0391 -99.8047 C 80.2246 -80.4688 66.8945 -64.7949 56.7383 -51.416 C 48.1934 -39.9414 43.9941 -30.2734 43.7988 -14.502 C 43.457 9.86328 63.1836 28.418 94.1895 28.6621 L 103.32 28.7598 C 111.963 28.8086 118.311 28.1738 121.973 27.2461 Z M 11.2793 -14.0137 C 11.2793 5.81055 23.291 22.3145 39.8438 22.3145 L 51.709 22.3145 C 39.8438 13.5742 34.375 0.390625 34.6191 -14.6484 C 34.8633 -31.3477 41.4062 -43.3594 47.2656 -50.5859 L 37.3535 -50.5859 C 22.4609 -50.5859 11.2793 -34.5215 11.2793 -14.0137 Z"/>
  </g>
  <g id="Semibold-L" transform="matrix(1 0 0 1 1967.61 1556)">
   <path d="M 119.58 25.9277 C 124.609 24.707 129.688 21.4844 129.688 15.2344 C 129.688 12.7441 129.004 10.9375 128.125 9.47266 C 127.637 8.64258 127.734 8.00781 128.467 7.66602 C 132.568 5.85938 135.938 2.19727 135.938 -2.97852 C 135.938 -5.95703 135.156 -8.54492 133.691 -10.4492 C 132.91 -11.4258 133.105 -12.207 134.229 -12.8906 C 137.256 -14.5996 139.209 -18.3594 139.209 -22.5586 C 139.209 -25.5859 138.232 -28.8574 136.475 -30.4688 C 135.449 -31.3965 135.645 -32.0312 136.768 -32.959 C 138.867 -34.5703 140.039 -37.6465 140.039 -41.3086 C 140.039 -47.6562 135.156 -52.832 128.711 -52.832 L 105.615 -52.832 C 99.7559 -52.832 95.8496 -55.8105 95.8496 -60.6445 C 95.8496 -69.5312 106.885 -85.5957 106.885 -97.168 C 106.885 -103.174 102.93 -106.787 97.8027 -106.787 C 93.1641 -106.787 90.7715 -103.516 88.2812 -98.6328 C 78.6621 -79.6387 65.5762 -64.3066 55.6641 -51.1719 C 47.2656 -39.9414 43.1152 -30.4688 42.9688 -14.9902 C 42.627 8.88672 61.9629 27.0508 92.334 27.2949 L 101.318 27.3926 C 109.814 27.4902 115.967 26.8555 119.58 25.9277 Z M 11.2793 -14.502 C 11.2793 4.88281 23.0957 21.1426 39.3066 21.1426 L 51.2207 21.1426 C 39.4531 12.5977 34.0332 -0.341797 34.2773 -15.1367 C 34.5215 -31.6406 40.918 -43.2617 46.582 -50.3906 L 36.8652 -50.3906 C 22.2656 -50.3906 11.2793 -34.6191 11.2793 -14.502 Z"/>
  </g>
  <g id="Medium-L" transform="matrix(1 0 0 1 1671.95 1556)">
   <path d="M 117.773 24.9023 C 122.754 23.7305 127.734 20.5078 127.734 14.4043 C 127.734 11.9141 127.051 10.1562 126.221 8.74023 C 125.732 7.91016 125.781 7.27539 126.514 6.93359 C 130.566 5.17578 133.887 1.5625 133.887 -3.56445 C 133.887 -6.44531 133.105 -9.0332 131.641 -10.8887 C 130.908 -11.8652 131.104 -12.6465 132.227 -13.2812 C 135.156 -14.9414 137.109 -18.6523 137.109 -22.8516 C 137.109 -25.8301 136.133 -29.0527 134.375 -30.6152 C 133.447 -31.4941 133.594 -32.1289 134.717 -33.0566 C 136.768 -34.668 137.939 -37.6953 137.939 -41.3086 C 137.939 -47.5586 133.105 -52.6367 126.758 -52.6367 L 104.053 -52.6367 C 98.291 -52.6367 94.3848 -55.5664 94.3848 -60.3027 C 94.3848 -69.043 105.273 -84.9121 105.273 -96.2891 C 105.273 -102.246 101.367 -105.762 96.3379 -105.762 C 91.748 -105.762 89.4531 -102.539 86.9629 -97.7051 C 77.4414 -79.0039 64.5996 -63.916 54.834 -51.0254 C 46.582 -39.9414 42.4805 -30.6152 42.2852 -15.3809 C 42.041 8.1543 61.0352 26.0742 90.9668 26.2695 L 99.7559 26.3672 C 108.154 26.4648 114.258 25.8301 117.773 24.9023 Z M 11.2793 -14.8926 C 11.2793 4.19922 22.998 20.2148 38.9648 20.2148 L 50.8301 20.2148 C 39.1602 11.8164 33.7891 -0.927734 34.0332 -15.5273 C 34.2773 -31.8359 40.5762 -43.2129 46.0938 -50.1953 L 36.5234 -50.1953 C 22.168 -50.1953 11.2793 -34.7168 11.2793 -14.8926 Z"/>
  </g>
  <g id="Regular-L" transform="matrix(1 0 0 1 1376.63 1556)">
   <path d="M 115.43 23.6328 C 120.264 22.4609 125.195 19.3359 125.195 13.3301 C 125.195 10.8887 124.561 9.17969 123.682 7.76367 C 123.193 6.93359 123.291 6.34766 124.023 6.00586 C 127.93 4.24805 131.201 0.732422 131.201 -4.29688 C 131.201 -7.12891 130.469 -9.66797 129.004 -11.4258 C 128.32 -12.4023 128.467 -13.1836 129.59 -13.8184 C 132.471 -15.4297 134.375 -19.0918 134.375 -23.1934 C 134.375 -26.0742 133.447 -29.248 131.689 -30.8105 C 130.762 -31.6895 130.908 -32.2754 132.031 -33.1543 C 134.033 -34.7656 135.156 -37.6953 135.156 -41.2598 C 135.156 -47.4121 130.469 -52.3438 124.219 -52.3438 L 101.953 -52.3438 C 96.3379 -52.3438 92.5293 -55.2734 92.5293 -59.9121 C 92.5293 -68.457 103.174 -83.9844 103.174 -95.166 C 103.174 -100.977 99.3652 -104.443 94.4336 -104.443 C 89.9414 -104.443 87.6465 -101.318 85.2051 -96.582 C 75.9277 -78.2227 63.3301 -63.4766 53.7598 -50.7812 C 45.6543 -39.9414 41.6016 -30.8105 41.4551 -15.8691 C 41.2109 7.17773 59.8145 24.7559 89.1602 24.9512 L 97.8027 25.0488 C 106.006 25.0977 111.963 24.5117 115.43 23.6328 Z M 11.2793 -15.3809 C 11.2793 3.32031 22.8027 18.9941 38.4277 18.9941 L 50.3418 18.9941 C 38.7695 10.8398 33.4473 -1.61133 33.6914 -16.0156 C 33.9355 -32.1289 40.0879 -43.1641 45.4102 -50 L 36.084 -50 C 22.0215 -50 11.2793 -34.8145 11.2793 -15.3809 Z"/>
  </g>
  <g id="Light-L" transform="matrix(1 0 0 1 1081.09 1556)">
   <path d="M 113.33 22.7539 C 118.115 21.6309 122.949 18.5547 122.949 12.6465 C 122.949 10.2539 122.314 8.49609 121.484 7.12891 C 120.996 6.29883 121.045 5.71289 121.777 5.41992 C 125.684 3.66211 128.906 0.195312 128.906 -4.73633 C 128.906 -7.51953 128.125 -10.0586 126.758 -11.8164 C 126.025 -12.793 126.172 -13.5254 127.295 -14.1602 C 130.127 -15.7715 132.031 -19.3848 132.031 -23.3887 C 132.031 -26.2695 131.104 -29.3945 129.395 -30.9082 C 128.467 -31.7871 128.613 -32.373 129.688 -33.252 C 131.689 -34.8145 132.812 -37.7441 132.812 -41.2598 C 132.812 -47.2656 128.125 -52.1973 121.973 -52.1973 L 100 -52.1973 C 94.4824 -52.1973 90.7227 -55.0781 90.7227 -59.6191 C 90.7227 -68.0664 101.221 -83.3984 101.221 -94.3848 C 101.221 -100.146 97.4609 -103.564 92.5781 -103.564 C 88.1348 -103.564 85.9375 -100.488 83.5449 -95.8008 C 74.3164 -77.7344 61.9141 -63.1348 52.4414 -50.6348 C 44.4824 -39.9414 40.4297 -30.9082 40.332 -16.1621 C 40.1855 6.54297 58.4473 23.877 87.4023 24.0723 L 95.8984 24.1699 C 104.004 24.2676 109.863 23.6328 113.33 22.7539 Z M 11.2793 -15.6738 C 11.2793 2.7832 22.5098 18.2129 37.8906 18.2129 L 50.6348 18.2129 C 38.8672 10.3516 33.4473 -1.95312 33.6426 -16.3086 C 33.8867 -32.6172 40.0391 -43.1152 45.0195 -49.9023 L 35.5957 -49.9023 C 21.6797 -49.9023 11.2793 -34.9121 11.2793 -15.6738 Z"/>
  </g>
  <g id="Thin-L" transform="matrix(1 0 0 1 785.939 1556)">
   <path d="M 110.547 21.6309 C 115.234 20.5078 119.971 17.5293 119.971 11.7188 C 119.971 9.375 119.336 7.66602 118.555 6.29883 C 118.066 5.46875 118.115 4.93164 118.848 4.58984 C 122.656 2.88086 125.83 -0.488281 125.83 -5.37109 C 125.83 -8.10547 125.098 -10.5957 123.682 -12.3047 C 122.998 -13.2812 123.145 -14.0137 124.268 -14.6484 C 127.002 -16.1621 128.857 -19.7266 128.857 -23.6816 C 128.857 -26.5137 127.979 -29.5898 126.27 -31.0547 C 125.391 -31.9336 125.537 -32.5195 126.611 -33.3984 C 128.564 -34.9121 129.688 -37.7441 129.688 -41.2109 C 129.688 -47.1191 125.098 -51.9531 119.043 -51.9531 L 97.4609 -51.9531 C 92.041 -51.9531 88.3301 -54.7852 88.3301 -59.2285 C 88.3301 -67.5781 98.6328 -82.6172 98.6328 -93.4082 C 98.6328 -99.0723 94.9219 -102.393 90.1855 -102.393 C 85.791 -102.393 83.6426 -99.4141 81.2988 -94.8242 C 72.2168 -77.0508 60.0098 -62.7441 50.7324 -50.4395 C 42.9199 -39.9414 38.8672 -31.0547 38.8672 -16.6016 C 38.8184 5.71289 56.6406 22.7539 85.0586 22.9492 L 93.4082 22.998 C 101.416 23.0957 107.129 22.5098 110.547 21.6309 Z M 11.2793 -16.1133 C 11.2793 2.00195 22.0703 17.1875 37.207 17.1875 L 51.0742 17.1875 C 39.0137 9.7168 33.3984 -2.34375 33.6426 -16.748 C 33.8867 -33.252 39.9414 -43.0664 44.4824 -49.707 L 34.9609 -49.707 C 21.2891 -49.707 11.2793 -35.0098 11.2793 -16.1133 Z"/>
  </g>
  <g id="Ultralight-L" transform="matrix(1 0 0 1 490.033 1556)">
   <path d="M 109.082 21.0449 C 113.721 19.9707 118.457 16.9922 118.457 11.2305 C 118.457 8.88672 117.822 7.22656 117.041 5.85938 C 116.553 5.07812 116.65 4.49219 117.334 4.19922 C 121.094 2.49023 124.219 -0.878906 124.219 -5.66406 C 124.219 -8.39844 123.535 -10.8887 122.168 -12.5488 C 121.436 -13.5254 121.582 -14.2578 122.705 -14.8926 C 125.439 -16.4062 127.295 -19.9219 127.295 -23.8281 C 127.295 -26.6602 126.416 -29.6875 124.707 -31.1035 C 123.828 -32.0312 123.975 -32.5684 125.049 -33.4473 C 126.953 -34.9609 128.076 -37.793 128.076 -41.2109 C 128.076 -47.0703 123.535 -51.8555 117.529 -51.8555 L 96.1426 -51.8555 C 90.7715 -51.8555 87.1094 -54.6875 87.1094 -59.082 C 87.1094 -67.334 97.3145 -82.2266 97.3145 -92.9199 C 97.3145 -98.5352 93.6523 -101.807 88.916 -101.807 C 84.6191 -101.807 82.4219 -98.877 80.127 -94.2871 C 71.1426 -76.6602 59.082 -62.5 49.8535 -50.3418 C 42.0898 -39.9414 38.0859 -31.1035 38.0859 -16.7969 C 38.1348 5.27344 55.7129 22.2168 83.8867 22.3633 L 92.1387 22.4121 C 100.049 22.5098 105.762 21.9727 109.082 21.0449 Z M 11.2793 -16.3086 C 11.2793 1.61133 21.875 16.6504 36.8164 16.6504 L 51.2695 16.6504 C 39.0625 9.375 33.3984 -2.53906 33.6426 -16.9434 C 33.8867 -33.5938 39.8926 -43.0664 44.1895 -49.6094 L 34.6191 -49.6094 C 21.0449 -49.6094 11.2793 -35.0586 11.2793 -16.3086 Z"/>
  </g>
  <g id="Black-M" transform="matrix(1 0 0 1 2868.92 1126)">
   <path d="M 102.588 17.8223 C 106.982 16.7969 111.279 14.0137 111.279 8.59375 C 111.279 6.44531 110.742 4.93164 109.961 3.66211 C 109.521 2.92969 109.619 2.39258 110.205 2.09961 C 113.77 0.537109 116.699 -2.58789 116.699 -7.08008 C 116.699 -9.61914 116.016 -11.8652 114.746 -13.5254 C 114.111 -14.3066 114.307 -14.9902 115.234 -15.5762 C 117.871 -17.0898 119.531 -20.3125 119.531 -23.9258 C 119.531 -26.5625 118.652 -29.3945 117.139 -30.7617 C 116.309 -31.4941 116.406 -32.0801 117.432 -32.8613 C 119.238 -34.2285 120.215 -36.9629 120.215 -40.0391 C 120.215 -45.5566 116.016 -50 110.498 -50 L 90.625 -50 C 85.5469 -50 82.1777 -52.5391 82.1777 -56.7383 C 82.1777 -64.3555 91.6504 -78.2227 91.6504 -88.1836 C 91.6504 -93.3594 88.2812 -96.4844 83.8379 -96.4844 C 79.834 -96.4844 77.7832 -93.7012 75.6836 -89.4531 C 67.334 -73.1445 56.1035 -59.8633 47.5586 -48.584 C 40.2832 -38.8672 36.8164 -30.7617 36.6211 -17.4316 C 36.2305 3.17383 52.9785 18.7988 79.1504 19.043 L 86.8652 19.1406 C 94.1406 19.1895 99.5605 18.6035 102.588 17.8223 Z M 8.74023 -16.9922 C 8.74023 -0.244141 18.5547 13.6719 32.5195 13.6719 L 42.2363 13.6719 C 32.4707 6.20117 27.9785 -5.0293 28.1738 -17.5781 C 28.3691 -31.3965 33.8379 -41.748 38.9648 -47.8516 L 30.4199 -47.8516 C 17.8711 -47.8516 8.74023 -34.3262 8.74023 -16.9922 Z"/>
  </g>
  <g id="Heavy-M" transform="matrix(1 0 0 1 2573.87 1126)">
   <path d="M 99.7559 16.1621 C 104.004 15.1855 108.203 12.4512 108.203 7.22656 C 108.203 5.12695 107.666 3.66211 106.934 2.44141 C 106.494 1.70898 106.592 1.17188 107.178 0.927734 C 110.645 -0.585938 113.477 -3.61328 113.477 -8.00781 C 113.477 -10.4492 112.842 -12.6465 111.572 -14.209 C 110.938 -15.0391 111.133 -15.6738 112.061 -16.2598 C 114.6 -17.6758 116.211 -20.8496 116.211 -24.3652 C 116.211 -26.9043 115.381 -29.6387 113.916 -31.0059 C 113.086 -31.7383 113.184 -32.2754 114.16 -33.0566 C 115.918 -34.375 116.895 -36.9629 116.895 -40.0391 C 116.895 -45.3613 112.842 -49.6582 107.422 -49.6582 L 88.1348 -49.6582 C 83.2031 -49.6582 79.9316 -52.1484 79.9316 -56.2012 C 79.9316 -63.623 89.1602 -77.0996 89.1602 -86.7676 C 89.1602 -91.7969 85.8887 -94.8242 81.5918 -94.8242 C 77.6855 -94.8242 75.6836 -92.0898 73.6328 -87.9395 C 65.5762 -72.1191 54.6387 -59.2773 46.3379 -48.291 C 39.3066 -38.8672 35.8887 -31.0059 35.6934 -18.0664 C 35.3516 1.95312 51.6113 17.1387 77.002 17.3828 L 84.4727 17.4316 C 91.6016 17.4805 96.7773 16.9434 99.7559 16.1621 Z M 8.74023 -17.627 C 8.74023 -1.36719 18.3594 12.1582 31.9824 12.1582 L 41.4062 12.1582 C 31.8848 4.88281 27.4902 -5.95703 27.6855 -18.1641 C 27.8809 -31.6406 33.2031 -41.6504 38.1348 -47.6074 L 29.8828 -47.6074 C 17.7246 -47.6074 8.74023 -34.4238 8.74023 -17.627 Z"/>
  </g>
  <g id="Bold-M" transform="matrix(1 0 0 1 2279.02 1126)">
   <path d="M 96.6309 14.3555 C 100.732 13.3789 104.785 10.7422 104.785 5.71289 C 104.785 3.66211 104.248 2.24609 103.564 1.07422 C 103.125 0.390625 103.223 -0.146484 103.809 -0.390625 C 107.129 -1.85547 109.863 -4.78516 109.863 -9.0332 C 109.863 -11.4258 109.229 -13.5254 108.008 -15.0391 C 107.422 -15.8203 107.568 -16.4551 108.496 -16.9922 C 110.938 -18.4082 112.5 -21.4355 112.5 -24.8535 C 112.5 -27.2949 111.719 -29.9316 110.254 -31.25 C 109.473 -31.9336 109.619 -32.4707 110.547 -33.252 C 112.207 -34.5215 113.184 -37.0605 113.184 -39.9902 C 113.184 -45.1172 109.229 -49.3164 104.004 -49.3164 L 85.3516 -49.3164 C 80.6152 -49.3164 77.4414 -51.709 77.4414 -55.6152 C 77.4414 -62.793 86.377 -75.7812 86.377 -85.1562 C 86.377 -89.9902 83.2031 -92.9199 79.0527 -92.9199 C 75.293 -92.9199 73.3398 -90.2832 71.3379 -86.3281 C 63.5254 -70.9961 52.9785 -58.5938 44.9707 -47.9492 C 38.1836 -38.8672 34.8633 -31.25 34.7168 -18.75 C 34.375 0.585938 50.0488 15.2832 74.6094 15.4785 L 81.8359 15.5273 C 88.7207 15.625 93.75 15.0879 96.6309 14.3555 Z M 8.74023 -18.3105 C 8.74023 -2.63672 18.2129 10.4492 31.2988 10.4492 L 40.5273 10.4492 C 31.25 3.4668 26.9531 -6.98242 27.1484 -18.8477 C 27.3438 -31.9824 32.4707 -41.5527 37.207 -47.3145 L 29.3457 -47.3145 C 17.5293 -47.3145 8.74023 -34.6191 8.74023 -18.3105 Z"/>
  </g>
  <g id="Semibold-M" transform="matrix(1 0 0 1 1983.6 1126)">
   <path d="M 94.4336 13.0859 C 98.4375 12.1094 102.441 9.57031 102.441 4.63867 C 102.441 2.63672 101.904 1.26953 101.221 0.0976562 C 100.83 -0.585938 100.879 -1.07422 101.465 -1.31836 C 104.688 -2.73438 107.373 -5.61523 107.373 -9.7168 C 107.373 -12.0605 106.738 -14.1113 105.566 -15.625 C 104.98 -16.3574 105.127 -16.9922 106.006 -17.5293 C 108.398 -18.8965 109.961 -21.8262 109.961 -25.1953 C 109.961 -27.5879 109.18 -30.127 107.764 -31.3965 C 106.982 -32.1289 107.129 -32.6172 108.008 -33.3496 C 109.668 -34.6191 110.596 -37.0605 110.596 -39.9902 C 110.596 -44.9707 106.738 -49.0234 101.66 -49.0234 L 83.4473 -49.0234 C 78.8086 -49.0234 75.7324 -51.416 75.7324 -55.2246 C 75.7324 -62.207 84.4238 -74.9023 84.4238 -84.0332 C 84.4238 -88.7695 81.3477 -91.6016 77.2949 -91.6016 C 73.6328 -91.6016 71.7285 -89.0625 69.7754 -85.1562 C 62.1582 -70.2148 51.8555 -58.1055 44.043 -47.7539 C 37.4023 -38.8672 34.1797 -31.3965 33.9844 -19.1895 C 33.6914 -0.341797 48.9746 13.9648 72.998 14.1602 L 80.0293 14.2578 C 86.7188 14.3066 91.6016 13.8184 94.4336 13.0859 Z M 8.74023 -18.7988 C 8.74023 -3.51562 18.0664 9.27734 30.8594 9.27734 L 39.8926 9.27734 C 30.8105 2.49023 26.5625 -7.71484 26.7578 -19.3359 C 26.9531 -32.1777 31.9824 -41.5039 36.5723 -47.1191 L 28.9551 -47.1191 C 17.4316 -47.1191 8.74023 -34.7168 8.74023 -18.7988 Z"/>
  </g>
  <g id="Medium-M" transform="matrix(1 0 0 1 1687.86 1126)">
   <path d="M 92.8223 12.1094 C 96.7285 11.1816 100.635 8.64258 100.635 3.85742 C 100.635 1.9043 100.098 0.488281 99.4141 -0.634766 C 99.0234 -1.26953 99.1211 -1.75781 99.6582 -2.00195 C 102.832 -3.41797 105.469 -6.25 105.469 -10.2539 C 105.469 -12.5488 104.883 -14.5996 103.711 -16.0156 C 103.125 -16.7969 103.271 -17.4316 104.15 -17.9199 C 106.494 -19.2383 108.008 -22.168 108.008 -25.4395 C 108.008 -27.7832 107.275 -30.3223 105.859 -31.543 C 105.127 -32.2266 105.225 -32.7637 106.104 -33.4473 C 107.764 -34.7168 108.643 -37.1094 108.643 -39.9414 C 108.643 -44.873 104.883 -48.877 99.8535 -48.877 L 81.9824 -48.877 C 77.4902 -48.877 74.4141 -51.1719 74.4141 -54.8828 C 74.4141 -61.7676 82.959 -74.2188 82.959 -83.2031 C 82.959 -87.8418 79.9316 -90.625 75.9277 -90.625 C 72.3633 -90.625 70.5078 -88.1348 68.5547 -84.3262 C 61.1328 -69.6289 51.0254 -57.7637 43.3105 -47.5586 C 36.8164 -38.8672 33.6426 -31.543 33.4473 -19.5801 C 33.2031 -1.07422 48.1934 12.9883 71.7285 13.1836 L 78.6621 13.2324 C 85.2051 13.3301 90.0391 12.8418 92.8223 12.1094 Z M 8.74023 -19.1895 C 8.74023 -4.15039 17.9688 8.39844 30.5176 8.39844 L 39.4531 8.39844 C 30.4688 1.75781 26.3184 -8.30078 26.4648 -19.6777 C 26.6602 -32.3242 31.5918 -41.4551 36.084 -46.9727 L 28.6621 -46.9727 C 17.334 -46.9727 8.74023 -34.7656 8.74023 -19.1895 Z"/>
  </g>
  <g id="Regular-M" transform="matrix(1 0 0 1 1392.42 1126)">
   <path d="M 90.6738 10.8398 C 94.4824 9.96094 98.291 7.4707 98.291 2.7832 C 98.291 0.878906 97.8027 -0.439453 97.1191 -1.5625 C 96.7285 -2.19727 96.8262 -2.68555 97.3633 -2.92969 C 100.439 -4.29688 103.027 -7.03125 103.027 -10.9863 C 103.027 -13.1836 102.393 -15.1855 101.318 -16.6016 C 100.732 -17.334 100.879 -17.9199 101.758 -18.457 C 104.004 -19.7266 105.469 -22.5586 105.469 -25.7812 C 105.469 -28.0273 104.736 -30.5176 103.369 -31.7383 C 102.637 -32.4219 102.783 -32.9102 103.662 -33.5938 C 105.225 -34.8145 106.104 -37.1582 106.104 -39.9414 C 106.104 -44.7266 102.393 -48.584 97.5586 -48.584 L 80.127 -48.584 C 75.6836 -48.584 72.7539 -50.8789 72.7539 -54.4922 C 72.7539 -61.2305 81.0547 -73.3398 81.0547 -82.0801 C 81.0547 -86.6211 78.0762 -89.3555 74.2188 -89.3555 C 70.7031 -89.3555 68.8965 -86.9141 66.9922 -83.2031 C 59.7656 -68.8477 49.9023 -57.2754 42.3828 -47.3633 C 36.0352 -38.8672 32.9102 -31.7383 32.7637 -20.0195 C 32.5195 -2.00195 47.1191 11.7188 70.0684 11.9141 L 76.8555 11.9629 C 83.252 12.0117 87.9395 11.5234 90.6738 10.8398 Z M 8.74023 -19.6777 C 8.74023 -5.0293 17.8711 7.22656 30.0781 7.22656 L 38.8184 7.22656 C 29.9805 0.78125 25.9277 -8.98438 26.123 -20.166 C 26.3184 -32.5684 31.1035 -41.4062 35.4492 -46.7773 L 28.2715 -46.7773 C 17.2363 -46.7773 8.74023 -34.8633 8.74023 -19.6777 Z"/>
  </g>
  <g id="Light-M" transform="matrix(1 0 0 1 1096.76 1126)">
   <path d="M 88.7695 10.1074 C 92.5293 9.17969 96.2891 6.78711 96.2891 2.19727 C 96.2891 0.292969 95.8008 -1.02539 95.1172 -2.14844 C 94.7754 -2.73438 94.8242 -3.22266 95.3613 -3.4668 C 98.3887 -4.83398 100.928 -7.51953 100.928 -11.377 C 100.928 -13.5742 100.342 -15.5273 99.2188 -16.8945 C 98.6816 -17.6758 98.8281 -18.2617 99.6582 -18.75 C 101.904 -20.0195 103.369 -22.8027 103.369 -25.9766 C 103.369 -28.2227 102.637 -30.6641 101.318 -31.8359 C 100.586 -32.5195 100.732 -32.959 101.562 -33.6426 C 103.125 -34.8633 104.004 -37.1582 104.004 -39.8926 C 104.004 -44.6289 100.342 -48.4375 95.5078 -48.4375 L 78.3691 -48.4375 C 74.0234 -48.4375 71.0938 -50.6836 71.0938 -54.248 C 71.0938 -60.8887 79.2969 -72.8027 79.2969 -81.4453 C 79.2969 -85.9375 76.3672 -88.5742 72.5586 -88.5742 C 69.0918 -88.5742 67.3828 -86.1816 65.4785 -82.5195 C 58.3008 -68.4082 48.6328 -56.9824 41.2109 -47.2168 C 34.9609 -38.8672 31.8848 -31.8359 31.7871 -20.3125 C 31.5918 -2.58789 45.8984 10.9863 68.5059 11.1328 L 75.1465 11.1816 C 81.4941 11.2305 86.084 10.791 88.7695 10.1074 Z M 8.74023 -19.9219 C 8.74023 -5.51758 17.5781 6.54297 29.6387 6.54297 L 39.1113 6.54297 C 30.0781 0.341797 25.9277 -9.27734 26.0742 -20.459 C 26.2695 -33.0078 31.0547 -41.3574 35.0586 -46.6309 L 27.832 -46.6309 C 16.9434 -46.6309 8.74023 -34.9609 8.74023 -19.9219 Z"/>
  </g>
  <g id="Thin-M" transform="matrix(1 0 0 1 801.466 1126)">
   <path d="M 86.2793 9.08203 C 89.9414 8.20312 93.6035 5.85938 93.6035 1.31836 C 93.6035 -0.488281 93.1152 -1.80664 92.4805 -2.88086 C 92.1387 -3.51562 92.1875 -3.95508 92.7246 -4.19922 C 95.7031 -5.51758 98.1445 -8.1543 98.1445 -11.9629 C 98.1445 -14.0625 97.6074 -16.0156 96.5332 -17.334 C 95.9473 -18.1152 96.0938 -18.6523 96.9727 -19.1895 C 99.1211 -20.3613 100.537 -23.1445 100.537 -26.2207 C 100.537 -28.418 99.8535 -30.8105 98.5352 -31.9336 C 97.8516 -32.666 97.9492 -33.1055 98.7793 -33.7891 C 100.293 -34.9609 101.172 -37.1582 101.172 -39.8926 C 101.172 -44.4824 97.6074 -48.2422 92.8711 -48.2422 L 76.0742 -48.2422 C 71.8262 -48.2422 68.9453 -50.4395 68.9453 -53.9062 C 68.9453 -60.4004 77.002 -72.1191 77.002 -80.5664 C 77.002 -84.9609 74.1211 -87.5488 70.4102 -87.5488 C 66.9922 -87.5488 65.2832 -85.2051 63.4766 -81.6406 C 56.4453 -67.7734 46.9238 -56.6406 39.6973 -47.0703 C 33.5938 -38.8672 30.4688 -31.9336 30.4199 -20.7031 C 30.3711 -3.32031 44.2871 9.96094 66.4551 10.1074 L 72.9492 10.1562 C 79.1504 10.2051 83.6426 9.76562 86.2793 9.08203 Z M 8.74023 -20.3125 C 8.74023 -6.20117 17.1875 5.61523 29.0039 5.61523 L 39.502 5.61523 C 30.1758 -0.244141 25.8789 -9.66797 26.0742 -20.8008 C 26.2695 -33.5449 30.957 -41.3086 34.5703 -46.4844 L 27.1973 -46.4844 C 16.6016 -46.4844 8.74023 -35.0098 8.74023 -20.3125 Z"/>
  </g>
  <g id="Ultralight-M" transform="matrix(1 0 0 1 505.463 1126)">
   <path d="M 84.9609 8.59375 C 88.5742 7.71484 92.2852 5.41992 92.2852 0.927734 C 92.2852 -0.878906 91.748 -2.19727 91.1621 -3.27148 C 90.7715 -3.85742 90.8203 -4.29688 91.4062 -4.54102 C 94.3359 -5.85938 96.7285 -8.49609 96.7285 -12.207 C 96.7285 -14.3555 96.1914 -16.2598 95.1172 -17.5781 C 94.5801 -18.3105 94.6777 -18.8965 95.5566 -19.3848 C 97.7051 -20.5566 99.1211 -23.291 99.1211 -26.3672 C 99.1211 -28.5156 98.4375 -30.9082 97.1191 -32.0312 C 96.4355 -32.7148 96.582 -33.1543 97.3633 -33.8379 C 98.877 -35.0098 99.7559 -37.207 99.7559 -39.8926 C 99.7559 -44.4336 96.1914 -48.1445 91.5039 -48.1445 L 74.9023 -48.1445 C 70.7031 -48.1445 67.8711 -50.3418 67.8711 -53.7598 C 67.8711 -60.1562 75.8301 -71.7773 75.8301 -80.0781 C 75.8301 -84.4727 72.9492 -87.0117 69.2871 -87.0117 C 65.918 -87.0117 64.2578 -84.7168 62.4512 -81.1523 C 55.4688 -67.4805 46.0449 -56.4453 38.916 -46.9727 C 32.8613 -38.8672 29.7363 -32.0312 29.7363 -20.8984 C 29.7363 -3.71094 43.457 9.42383 65.3809 9.57031 L 71.7773 9.61914 C 77.9297 9.7168 82.373 9.27734 84.9609 8.59375 Z M 8.74023 -20.5078 C 8.74023 -6.54297 16.9922 5.12695 28.6621 5.12695 L 39.6484 5.12695 C 30.2246 -0.585938 25.8789 -9.86328 26.0742 -20.9961 C 26.2695 -33.8379 30.9082 -41.3086 34.3262 -46.3867 L 26.9043 -46.3867 C 16.4062 -46.3867 8.74023 -35.0586 8.74023 -20.5078 Z"/>
  </g>
  <g id="Black-S" transform="matrix(1 0 0 1 2883.01 696)">
   <path d="M 80.1758 6.20117 C 83.5938 5.41992 86.9629 3.22266 86.9629 -0.976562 C 86.9629 -2.68555 86.5234 -3.85742 85.9375 -4.83398 C 85.5957 -5.41992 85.6445 -5.85938 86.1328 -6.05469 C 88.916 -7.27539 91.2109 -9.7168 91.2109 -13.2324 C 91.2109 -15.2344 90.6738 -16.9922 89.6484 -18.2617 C 89.1602 -18.8965 89.3066 -19.4336 90.0391 -19.873 C 92.0898 -21.0449 93.4082 -23.584 93.4082 -26.416 C 93.4082 -28.4668 92.7246 -30.6641 91.5527 -31.7383 C 90.8691 -32.3242 90.9668 -32.7637 91.748 -33.3984 C 93.1641 -34.4727 93.9453 -36.5723 93.9453 -39.0137 C 93.9453 -43.3105 90.6738 -46.7773 86.3281 -46.7773 L 70.8008 -46.7773 C 66.8457 -46.7773 64.209 -48.7793 64.209 -52.0508 C 64.209 -58.0078 71.6309 -68.8477 71.6309 -76.6113 C 71.6309 -80.6641 68.9941 -83.1055 65.5273 -83.1055 C 62.4023 -83.1055 60.791 -80.9082 59.1309 -77.5879 C 52.6367 -64.8438 43.8477 -54.4922 37.1582 -45.6543 C 31.4941 -38.0859 28.7598 -31.7383 28.6133 -21.3379 C 28.3203 -5.22461 41.4062 6.98242 61.8652 7.17773 L 67.8711 7.22656 C 73.584 7.27539 77.7832 6.83594 80.1758 6.20117 Z M 6.83594 -20.9961 C 6.83594 -7.91016 14.502 2.97852 25.4395 2.97852 L 33.0078 2.97852 C 25.3906 -2.88086 21.875 -11.6211 22.0215 -21.4355 C 22.168 -32.2266 26.4648 -40.332 30.4688 -45.1172 L 23.7793 -45.1172 C 13.9648 -45.1172 6.83594 -34.5215 6.83594 -20.9961 Z"/>
  </g>
  <g id="Heavy-S" transform="matrix(1 0 0 1 2587.45 696)">
   <path d="M 78.2227 5.0293 C 81.543 4.24805 84.8145 2.14844 84.8145 -1.95312 C 84.8145 -3.61328 84.4238 -4.78516 83.8379 -5.71289 C 83.4961 -6.29883 83.5449 -6.68945 84.0332 -6.88477 C 86.7188 -8.10547 88.9648 -10.4492 88.9648 -13.916 C 88.9648 -15.8203 88.4277 -17.5293 87.4512 -18.7988 C 86.9629 -19.3848 87.1094 -19.9219 87.8418 -20.3613 C 89.8438 -21.4844 91.1133 -23.9746 91.1133 -26.709 C 91.1133 -28.7109 90.4297 -30.8594 89.3066 -31.8848 C 88.623 -32.4707 88.7207 -32.9102 89.502 -33.4961 C 90.8691 -34.5703 91.6504 -36.6211 91.6504 -39.0137 C 91.6504 -43.1641 88.4277 -46.5332 84.2285 -46.5332 L 69.0918 -46.5332 C 65.2344 -46.5332 62.6953 -48.4863 62.6953 -51.6602 C 62.6953 -57.4707 69.9219 -68.0176 69.9219 -75.5859 C 69.9219 -79.541 67.334 -81.8848 63.9648 -81.8848 C 60.9375 -81.8848 59.375 -79.7852 57.7148 -76.5137 C 51.416 -64.1113 42.8711 -54.0527 36.377 -45.459 C 30.8594 -38.0859 28.1738 -31.8848 28.0273 -21.7773 C 27.7344 -6.10352 40.4785 5.81055 60.4004 5.95703 L 66.2598 6.00586 C 71.8262 6.05469 75.8789 5.66406 78.2227 5.0293 Z M 6.83594 -21.4355 C 6.83594 -8.69141 14.4043 1.9043 25.0488 1.9043 L 32.373 1.9043 C 24.9512 -3.80859 21.4844 -12.3047 21.6309 -21.875 C 21.7773 -32.373 25.9766 -40.2832 29.8828 -44.9219 L 23.4375 -44.9219 C 13.8672 -44.9219 6.83594 -34.6191 6.83594 -21.4355 Z"/>
  </g>
  <g id="Bold-S" transform="matrix(1 0 0 1 2292.03 696)">
   <path d="M 76.0742 3.71094 C 79.248 2.97852 82.4707 0.878906 82.4707 -3.07617 C 82.4707 -4.63867 82.0312 -5.76172 81.4941 -6.68945 C 81.1523 -7.22656 81.2012 -7.66602 81.6895 -7.86133 C 84.2773 -8.98438 86.4746 -11.3281 86.4746 -14.6484 C 86.4746 -16.5039 85.9375 -18.1641 85.0098 -19.3848 C 84.5215 -19.9707 84.668 -20.5078 85.3516 -20.8984 C 87.3047 -21.9727 88.5254 -24.3652 88.5254 -27.0508 C 88.5254 -29.0039 87.8906 -31.0547 86.7676 -32.0801 C 86.1328 -32.666 86.2305 -33.0566 86.9629 -33.6426 C 88.3301 -34.668 89.0625 -36.6699 89.0625 -38.9648 C 89.0625 -43.0176 85.9375 -46.2891 81.8359 -46.2891 L 67.1875 -46.2891 C 63.4766 -46.2891 60.9863 -48.1934 60.9863 -51.2695 C 60.9863 -56.8848 67.9688 -67.0898 67.9688 -74.4141 C 67.9688 -78.2715 65.4785 -80.5664 62.207 -80.5664 C 59.2773 -80.5664 57.7637 -78.4668 56.2012 -75.3418 C 50.0488 -63.3301 41.748 -53.5645 35.4492 -45.2148 C 30.127 -38.0859 27.5391 -32.0801 27.3926 -22.2656 C 27.1484 -7.08008 39.4531 4.44336 58.7891 4.63867 L 64.4531 4.6875 C 69.8242 4.73633 73.7793 4.29688 76.0742 3.71094 Z M 6.83594 -21.9238 C 6.83594 -9.61914 14.3066 0.683594 24.6094 0.683594 L 31.6406 0.683594 C 24.4141 -4.83398 21.0938 -13.0859 21.2402 -22.3633 C 21.3867 -32.5684 25.4395 -40.1855 29.1992 -44.7266 L 23.0469 -44.7266 C 13.8184 -44.7266 6.83594 -34.7168 6.83594 -21.9238 Z"/>
  </g>
  <g id="Semibold-S" transform="matrix(1 0 0 1 1996.22 696)">
   <path d="M 74.5605 2.83203 C 77.6855 2.09961 80.8105 0.0488281 80.8105 -3.80859 C 80.8105 -5.37109 80.4199 -6.49414 79.8828 -7.37305 C 79.541 -7.91016 79.5898 -8.30078 80.0781 -8.49609 C 82.6172 -9.61914 84.7168 -11.9141 84.7168 -15.1367 C 84.7168 -16.9922 84.2285 -18.6035 83.3008 -19.7754 C 82.8613 -20.3613 82.959 -20.8496 83.6426 -21.2891 C 85.5469 -22.3633 86.7676 -24.6582 86.7676 -27.2949 C 86.7676 -29.1992 86.1328 -31.2012 85.0586 -32.2266 C 84.4238 -32.7637 84.5215 -33.1543 85.2539 -33.7402 C 86.5234 -34.7656 87.2559 -36.6699 87.2559 -38.9648 C 87.2559 -42.9199 84.2285 -46.0938 80.2246 -46.0938 L 65.8691 -46.0938 C 62.2559 -46.0938 59.8145 -47.9492 59.8145 -50.9766 C 59.8145 -56.4941 66.6504 -66.4551 66.6504 -73.6328 C 66.6504 -77.3926 64.209 -79.6387 61.0352 -79.6387 C 58.1543 -79.6387 56.6406 -77.5879 55.127 -74.5605 C 49.1211 -62.7441 41.0156 -53.2227 34.8145 -45.0684 C 29.6387 -38.0859 27.0996 -32.2266 26.9531 -22.6074 C 26.709 -7.76367 38.7695 3.51562 57.6172 3.71094 L 63.1836 3.75977 C 68.457 3.80859 72.3145 3.36914 74.5605 2.83203 Z M 6.83594 -22.3145 C 6.83594 -10.2051 14.2578 -0.146484 24.3164 -0.146484 L 31.1523 -0.146484 C 24.0723 -5.56641 20.8008 -13.623 20.9473 -22.7051 C 21.0938 -32.7148 25.0488 -40.1855 28.7109 -44.5801 L 22.8027 -44.5801 C 13.7207 -44.5801 6.83594 -34.8145 6.83594 -22.3145 Z"/>
  </g>
  <g id="Medium-S" transform="matrix(1 0 0 1 1700.19 696)">
   <path d="M 73.3887 2.14844 C 76.5137 1.41602 79.5898 -0.585938 79.5898 -4.39453 C 79.5898 -5.9082 79.1992 -7.03125 78.6621 -7.91016 C 78.3203 -8.39844 78.3691 -8.78906 78.8574 -8.98438 C 81.3477 -10.1074 83.3984 -12.3535 83.3984 -15.5273 C 83.3984 -17.334 82.9102 -18.8965 82.0312 -20.0684 C 81.5918 -20.6543 81.6895 -21.1426 82.373 -21.5332 C 84.2285 -22.6074 85.4004 -24.9023 85.4004 -27.4902 C 85.4004 -29.3457 84.8145 -31.2988 83.7402 -32.3242 C 83.1055 -32.8613 83.2031 -33.252 83.9355 -33.7891 C 85.2051 -34.8145 85.8887 -36.7188 85.8887 -38.916 C 85.8887 -42.8223 82.9102 -45.9473 79.0039 -45.9473 L 64.8926 -45.9473 C 61.3281 -45.9473 58.9355 -47.8027 58.9355 -50.7324 C 58.9355 -56.1523 65.625 -65.9668 65.625 -73.0469 C 65.625 -76.709 63.2324 -78.9062 60.1074 -78.9062 C 57.2754 -78.9062 55.8105 -76.9531 54.2969 -73.9258 C 48.3887 -62.3535 40.4297 -52.9785 34.375 -44.9707 C 29.248 -38.0859 26.7578 -32.3242 26.6113 -22.8516 C 26.3672 -8.25195 38.1836 2.83203 56.7871 2.97852 L 62.2559 3.02734 C 67.4316 3.07617 71.2402 2.68555 73.3887 2.14844 Z M 6.83594 -22.5586 C 6.83594 -10.6934 14.209 -0.78125 24.1211 -0.78125 L 30.7617 -0.78125 C 23.7793 -6.10352 20.6055 -14.0137 20.752 -22.9492 C 20.8984 -32.8125 24.7559 -40.1367 28.3691 -44.4824 L 22.6074 -44.4824 C 13.6719 -44.4824 6.83594 -34.8633 6.83594 -22.5586 Z"/>
  </g>
  <g id="Regular-S" transform="matrix(1 0 0 1 1404.36 696)">
   <path d="M 71.9238 1.26953 C 74.9512 0.537109 77.9785 -1.41602 77.9785 -5.12695 C 77.9785 -6.64062 77.5879 -7.71484 77.0508 -8.59375 C 76.7578 -9.08203 76.8066 -9.47266 77.2461 -9.66797 C 79.6875 -10.7422 81.6895 -12.9395 81.6895 -16.0156 C 81.6895 -17.7734 81.2012 -19.3359 80.3223 -20.459 C 79.8828 -21.0449 79.9805 -21.5332 80.6641 -21.9238 C 82.4707 -22.9492 83.6426 -25.1953 83.6426 -27.7344 C 83.6426 -29.541 83.0566 -31.4453 81.9824 -32.4219 C 81.3965 -32.959 81.4941 -33.3496 82.1777 -33.8867 C 83.4473 -34.8633 84.1309 -36.7188 84.1309 -38.916 C 84.1309 -42.7246 81.2012 -45.8008 77.3926 -45.8008 L 63.5742 -45.8008 C 60.1074 -45.8008 57.7637 -47.5586 57.7637 -50.4395 C 57.7637 -55.7617 64.3066 -65.332 64.3066 -72.2656 C 64.3066 -75.8789 62.0117 -78.0273 58.9355 -78.0273 C 56.1523 -78.0273 54.7363 -76.0742 53.2227 -73.1445 C 47.4609 -61.8164 39.6973 -52.6367 33.7402 -44.8242 C 28.7598 -38.0859 26.3184 -32.4219 26.1719 -23.1934 C 25.9277 -8.93555 37.5 1.95312 55.6641 2.09961 L 61.0352 2.14844 C 66.0645 2.19727 69.7754 1.80664 71.9238 1.26953 Z M 6.83594 -22.9004 C 6.83594 -11.3281 14.1113 -1.61133 23.7793 -1.61133 L 30.2734 -1.61133 C 23.4375 -6.78711 20.3125 -14.5508 20.459 -23.291 C 20.6055 -32.9102 24.4141 -40.0879 27.9297 -44.3359 L 22.3633 -44.3359 C 13.623 -44.3359 6.83594 -34.9121 6.83594 -22.9004 Z"/>
  </g>
  <g id="Light-S" transform="matrix(1 0 0 1 1108.58 696)">
   <path d="M 70.2637 0.585938 C 73.1934 -0.146484 76.1719 -2.05078 76.1719 -5.66406 C 76.1719 -7.17773 75.7812 -8.20312 75.293 -9.08203 C 75 -9.57031 75.0488 -9.96094 75.4883 -10.1562 C 77.8809 -11.1816 79.8828 -13.3301 79.8828 -16.4062 C 79.8828 -18.1152 79.3945 -19.6777 78.5156 -20.752 C 78.0762 -21.3379 78.1738 -21.8262 78.8574 -22.2168 C 80.6152 -23.1934 81.7871 -25.3906 81.7871 -27.8809 C 81.7871 -29.6875 81.2012 -31.5918 80.1758 -32.5195 C 79.5898 -33.0566 79.6875 -33.4473 80.3711 -33.9844 C 81.5918 -34.9121 82.2754 -36.7188 82.2754 -38.916 C 82.2754 -42.627 79.3945 -45.6543 75.5859 -45.6543 L 62.0605 -45.6543 C 58.6426 -45.6543 56.2988 -47.4121 56.2988 -50.2441 C 56.2988 -55.4688 62.793 -64.8926 62.793 -71.6797 C 62.793 -75.1953 60.498 -77.2949 57.4707 -77.2949 C 54.7363 -77.2949 53.3691 -75.3906 51.9043 -72.5586 C 46.2402 -61.377 38.5742 -52.3926 32.7148 -44.6777 C 27.7832 -38.0859 25.3418 -32.5195 25.2441 -23.4375 C 25.0977 -9.42383 36.4258 1.26953 54.248 1.36719 L 59.5215 1.41602 C 64.502 1.46484 68.1152 1.12305 70.2637 0.585938 Z M 6.83594 -23.1445 C 6.83594 -11.7676 13.8672 -2.24609 23.3887 -2.24609 L 30.5176 -2.24609 C 23.5352 -7.22656 20.3125 -14.7949 20.459 -23.5352 C 20.6055 -33.3008 24.3652 -40.0391 27.5879 -44.2383 L 21.9238 -44.2383 C 13.3789 -44.2383 6.83594 -34.9609 6.83594 -23.1445 Z"/>
  </g>
  <g id="Thin-S" transform="matrix(1 0 0 1 813.112 696)">
   <path d="M 68.0664 -0.292969 C 70.9473 -1.02539 73.8281 -2.83203 73.8281 -6.39648 C 73.8281 -7.86133 73.4375 -8.88672 72.9492 -9.7168 C 72.6562 -10.2051 72.7051 -10.5957 73.1445 -10.791 C 75.4883 -11.8164 77.4414 -13.916 77.4414 -16.8945 C 77.4414 -18.5547 76.9531 -20.0684 76.123 -21.1426 C 75.6836 -21.7285 75.7812 -22.168 76.4648 -22.5586 C 78.1738 -23.5352 79.2969 -25.6836 79.2969 -28.125 C 79.2969 -29.834 78.7598 -31.7383 77.7344 -32.6172 C 77.1484 -33.1543 77.2461 -33.5449 77.9297 -34.082 C 79.1016 -35.0098 79.7852 -36.7676 79.7852 -38.8672 C 79.7852 -42.5293 76.9531 -45.459 73.2422 -45.459 L 60.0098 -45.459 C 56.6895 -45.459 54.4434 -47.2168 54.4434 -49.9512 C 54.4434 -55.0293 60.7422 -64.2578 60.7422 -70.8984 C 60.7422 -74.3652 58.4961 -76.416 55.5664 -76.416 C 52.8809 -76.416 51.5625 -74.5605 50.0977 -71.7285 C 44.5801 -60.8398 37.0605 -52.0508 31.3965 -44.5312 C 26.5625 -38.0859 24.1211 -32.6172 24.0723 -23.7793 C 24.0234 -10.0586 35.0098 0.390625 52.4414 0.488281 L 57.5684 0.537109 C 62.4512 0.585938 65.9668 0.244141 68.0664 -0.292969 Z M 6.83594 -23.4863 C 6.83594 -12.3535 13.5254 -3.02734 22.8027 -3.02734 L 30.8594 -3.02734 C 23.6328 -7.71484 20.2637 -15.1367 20.4102 -23.877 C 20.5566 -33.7891 24.2676 -40.0391 27.1973 -44.0918 L 21.4355 -44.0918 C 13.0371 -44.0918 6.83594 -35.0586 6.83594 -23.4863 Z"/>
  </g>
  <g id="Ultralight-S" transform="matrix(1 0 0 1 517.035 696)">
   <path d="M 66.8945 -0.78125 C 69.7754 -1.46484 72.6562 -3.27148 72.6562 -6.78711 C 72.6562 -8.20312 72.2656 -9.22852 71.7773 -10.0586 C 71.4844 -10.5469 71.5332 -10.8887 71.9727 -11.084 C 74.2676 -12.1582 76.1719 -14.209 76.1719 -17.1387 C 76.1719 -18.7988 75.7324 -20.3125 74.9023 -21.3379 C 74.4629 -21.9238 74.5605 -22.3633 75.2441 -22.7539 C 76.9043 -23.6816 78.0273 -25.8301 78.0273 -28.2227 C 78.0273 -29.9805 77.4902 -31.8359 76.4648 -32.7148 C 75.9277 -33.252 76.0254 -33.5938 76.6602 -34.1309 C 77.832 -35.0586 78.5156 -36.7676 78.5156 -38.8672 C 78.5156 -42.4316 75.7324 -45.3613 72.0703 -45.3613 L 58.9844 -45.3613 C 55.7129 -45.3613 53.4668 -47.1191 53.4668 -49.8047 C 53.4668 -54.834 59.7168 -63.916 59.7168 -70.5078 C 59.7168 -73.9258 57.4707 -75.9277 54.5898 -75.9277 C 51.9043 -75.9277 50.5859 -74.1211 49.1699 -71.3379 C 43.7012 -60.5469 36.3281 -51.9043 30.6641 -44.4336 C 25.9277 -38.0859 23.4863 -32.7148 23.4863 -23.9258 C 23.4863 -10.4004 34.2285 -0.0976562 51.4648 0 L 56.543 0.0488281 C 61.377 0.0976562 64.8438 -0.244141 66.8945 -0.78125 Z M 6.83594 -23.6328 C 6.83594 -12.6953 13.3789 -3.4668 22.5098 -3.4668 L 31.0059 -3.4668 C 23.6816 -8.00781 20.2637 -15.2832 20.4102 -24.0234 C 20.5566 -34.082 24.2188 -39.9902 26.9531 -43.9941 L 21.1426 -43.9941 C 12.8906 -43.9941 6.83594 -35.1074 6.83594 -23.6328 Z"/>
  </g>
 </g>
</svg>
